<svg xmlns="http://www.w3.org/2000/svg" viewBox="0 0 168 168"><defs><style>.cls-1{fill:#fff;}.cls-2{fill:none;}</style></defs><title>cleanser-white-icon</title><g id="Layer_2" data-name="Layer 2"><g id="Layer_1-2" data-name="Layer 1"><path class="cls-1" d="M81.32,23.54H139.2a24.2,24.2,0,0,1,4.34,0c3.14.62,2.08,3.51,1.83,5.63l-1.58,13.28-4.93,41.38-4.31,36.24c-.22,1.85,0,4.76-.77,6.47-.87,2-3.46,1.42-5.07,1.42H99.26c-2.71,0-6.94,1-7.8-2.3-.79-3.08-.78-6.62-1.16-9.77L88.22,98.43,79.71,26.91c-.16-1.36-.67-3.05,1.87-3.4,1.25-.18.72-2.07-.52-1.9-4.18.59-3.43,4.32-3.07,7.31l1.7,14.28L85,87.67l4.21,35.4c.34,2.85.23,6.3,3.89,6.82,4.43.62,9.35,0,13.81,0h21.43c3.24,0,6.79.44,7.46-3.71,1.51-9.17,2.21-18.55,3.31-27.78l5.4-45.33,2.17-18.3c.35-2.94,1-6,1.07-9,.07-4-3.08-4.24-6.11-4.24H81.32A1,1,0,0,0,81.32,23.54Z"/><path class="cls-1" d="M95.09,129.92h35.17l-1-1v17.73l1-1H95.09l1,1V128.94a1,1,0,0,0-2,0v17.73a1,1,0,0,0,1,1h35.17a1,1,0,0,0,1-1V128.94a1,1,0,0,0-1-1H95.09A1,1,0,0,0,95.09,129.92Z"/><path class="cls-1" d="M94.11,146.67c0,3.82-.21,7.63,4.65,7.8,4.62.16,9.29,0,13.92,0s9.21.13,13.8,0c4.91-.14,4.76-3.89,4.76-7.8a1,1,0,0,0-2,0c0,2,.68,5.13-2.1,5.84a11.33,11.33,0,0,1-2.4,0h-24a9.43,9.43,0,0,1-2.6,0c-2.61-1-2.09-3.68-2.09-5.84a1,1,0,0,0-2,0Z"/><path class="cls-1" d="M113.38,140.23a6.68,6.68,0,0,0-6.61,6.44,1,1,0,0,0,1,1H119a1,1,0,0,0,1-1,6.68,6.68,0,0,0-6.61-6.44c-1.26-.06-1.26,1.9,0,2a4.66,4.66,0,0,1,4.64,4.47l1-1H107.75l1,1a4.68,4.68,0,0,1,4.65-4.47C114.64,142.13,114.64,140.17,113.38,140.23Z"/><path class="cls-1" d="M79.15,31.45h67a1,1,0,0,0,0-2h-67a1,1,0,0,0,0,2Z"/><path class="cls-1" d="M89.47,41.85h46.41l-1-1-2.81,22.6,1-1H92.28l1,1-2.81-22.6c-.16-1.24-2.12-1.25-2,0l2.82,22.6a1,1,0,0,0,1,1h40.79a1,1,0,0,0,1-1l2.82-22.6a1,1,0,0,0-1-1H89.47A1,1,0,0,0,89.47,41.85Z"/><path class="cls-1" d="M111.42,95a1.91,1.91,0,0,0,2.69,0l7.57-7.57c6.64-6.64-2.28-15.56-8.92-8.92-6.07-6.08-15,2.84-8.91,8.92Z"/><path class="cls-1" d="M42.21,15H61.63c1.47,0,2.65-.45,3.06,1,.32,1.1.54,6-.54,6.57-1.5.84-3.93-.7-5.51.48-1.4,1-1,3.22-1,4.73v6.69l1-1H36.14l1,1V25.6c0-4.23-.88-10.17,5.09-10.6,1.26-.09,1.27-2.05,0-2-5.42.38-7.06,4.4-7.06,9.15V34.48a1,1,0,0,0,1,1h22.5a1,1,0,0,0,1-1V27.21c0-.88-.33-2.17.53-2.66s2.77.07,3.67,0c2.23-.17,2.8-1.34,2.83-3.41,0-1.89.62-4.92-.23-6.71-.66-1.38-2-1.38-3.29-1.39-2.55,0-5.1,0-7.64,0H42.21A1,1,0,0,0,42.21,15Z"/><path class="cls-1" d="M58.64,35.79H36.14a1.33,1.33,0,0,1-1.31-1.31V22.19c0-5.86,2.41-9,7.16-9.46l.21,0a.6.6,0,0,1,.19,0H58c1.67,0,3.4,0,5.1,0h.07c1.31,0,2.78,0,3.52,1.58s.5,3.43.36,5.21c0,.6-.1,1.16-.1,1.64,0,1.82-.43,3.53-3.14,3.73a8.62,8.62,0,0,1-1.36-.07,4.94,4.94,0,0,0-2.17,0c-.46.27-.46.9-.4,1.77,0,.21,0,.42,0,.61v7.27A1.33,1.33,0,0,1,58.64,35.79Zm-1.17-.66h1.17a.68.68,0,0,0,.66-.65V33.3Zm-20,0H57.33V33.82H37.45Zm-2-1.83v1.18a.68.68,0,0,0,.66.65h1.17ZM58,33.17H59.3v-6c0-.18,0-.37,0-.57-.06-.84-.13-1.88.72-2.38a5,5,0,0,1,2.57-.12,7.58,7.58,0,0,0,1.24.08c1.86-.14,2.5-.92,2.53-3.09,0-.5.06-1.07.1-1.68.14-1.7.3-3.63-.29-4.88s-1.66-1.19-2.94-1.21h-.07c-1.69,0-3.42,0-5.09,0H43.36a1.47,1.47,0,0,1,0,1.23l0,.08H61.63c.29,0,.56,0,.82,0,1.06-.07,2.15-.14,2.56,1.28.27.94.66,6.19-.7,7a4.38,4.38,0,0,1-2.72.18,3.58,3.58,0,0,0-2.75.27c-1,.75-.94,2.26-.88,3.59,0,.31,0,.61,0,.88Zm-20.54,0H57.33V27.79c0-.27,0-.55,0-.85-.07-1.42-.15-3.18,1.13-4.15a4.26,4.26,0,0,1,3.24-.39A3.92,3.92,0,0,0,64,22.3c.78-.44.77-4.85.39-6.2-.25-.87-.76-.88-1.88-.81-.28,0-.57,0-.87,0H42.23c-5,.36-4.89,4.84-4.8,8.8,0,.5,0,1,0,1.47Zm-2,0h1.31V25.6c0-.47,0-1,0-1.46-.08-3.78-.19-8.42,4.41-9.33a1.39,1.39,0,0,1-.24-.79,1.69,1.69,0,0,1,.08-.5c-3.67.75-5.54,3.66-5.54,8.67Z"/><path class="cls-1" d="M30.32,53.57V39.51c0-2,0-3.63,2.5-4a35,35,0,0,1,5.51,0h17.8C59,35.46,65.65,34,66.34,38c.47,2.72,0,5.95,0,8.71v6.9l1-1h-38a1,1,0,0,0,0,2h38a1,1,0,0,0,1-1c0-5.27.25-10.61,0-15.88-.24-5-5.11-4.2-8.72-4.2H39.4c-3.54,0-10.52-1.38-11,3.7-.55,5.34,0,11,0,16.38A1,1,0,0,0,30.32,53.57Z"/><path class="cls-1" d="M67.32,54.88h-38a1.19,1.19,0,0,1-.93-.39,1.21,1.21,0,0,1-.38-.92c0-1.78-.06-3.63-.12-5.41a82.48,82.48,0,0,1,.12-11c.47-4.55,5.65-4.27,9.42-4.06.71,0,1.38.08,1.95.08H59.58l1.33,0c3.34-.08,7.49-.19,7.72,4.54.17,3.52.11,7.12.05,10.61,0,1.76-.05,3.53-.05,5.28A1.33,1.33,0,0,1,67.32,54.88Zm-1.18-.66h1.18a.66.66,0,0,0,.65-.65c0-.39,0-.79,0-1.18Zm-35.66,0H66V52.91H30.65v.66A1.21,1.21,0,0,1,30.48,54.22ZM28.87,54a.69.69,0,0,0,.47.16.6.6,0,0,0,.65-.62v-.66h-.65a.6.6,0,0,0-.62.66A.71.71,0,0,0,28.87,54Zm5.88-20.38c-3,0-5.76.55-6.07,3.57a82.78,82.78,0,0,0-.12,10.92c.05,1.41.1,2.86.12,4.29a1.24,1.24,0,0,1,.66-.17H30V39.51c0-1.92,0-3.91,2.78-4.37a17.06,17.06,0,0,1,3.79-.07c.62,0,1.21.06,1.77.06h17.8c.54,0,1.23-.05,2-.1,3.36-.26,8-.6,8.57,2.88a27.92,27.92,0,0,1,.11,5.94c-.06,1-.11,1.92-.11,2.82v5.59H68c0-1.32,0-2.65,0-4,0-3.48.11-7.07-.06-10.57-.19-4.09-3.67-4-7-3.91l-1.35,0H39.4c-.59,0-1.27,0-2-.08S35.64,33.65,34.75,33.65Zm-4.1,18.61H66V46.67c0-.92,0-1.86.1-2.85A26.58,26.58,0,0,0,66,38c-.5-2.89-4.76-2.57-7.87-2.34-.75,0-1.45.11-2,.11H38.33c-.58,0-1.18,0-1.8-.07a17.66,17.66,0,0,0-3.65.06c-2.13.36-2.23,1.59-2.23,3.73Z"/><path class="cls-1" d="M26.3,54.55H55.72c4.57,0,9.19-.21,13.75,0,2.34.11,4.29.93,4.6,3.67a19.1,19.1,0,0,1,0,2.14v81.9a65.6,65.6,0,0,1,0,6.87c-.51,4.72-6.13,3.7-9.53,3.7H29.27a29.22,29.22,0,0,1-3,0c-2.7-.29-3.59-2.17-3.73-4.44-.49-8.27,0-16.73,0-25V84.31c0-8.39-.49-16.94,0-25.32.14-2.25.87-4.19,3.72-4.44,1.25-.11,1.26-2.07,0-2-4.5.39-5.68,3.71-5.68,7.55v85.52c0,2.78-.41,5.88,2.06,7.85,2.74,2.19,7.9,1.28,11.13,1.28,11.91,0,23.85.23,35.76,0C77.93,154.63,76,145,76,139.27V64.22c0-2,.15-4.09,0-6.1-.41-5.46-5.21-5.53-9.38-5.53H26.3A1,1,0,0,0,26.3,54.55Z"/><path class="cls-1" d="M28.66,155.31c-2.29,0-4.61-.28-6.19-1.54-2.29-1.83-2.24-4.49-2.19-7.07,0-.35,0-.7,0-1V60.14c0-4.85,1.88-7.42,5.73-7.85a1.12,1.12,0,0,1,.27,0H66.66c3.91,0,9.27,0,9.7,5.84.1,1.36.07,2.76,0,4.11,0,.67,0,1.35,0,2v75.05c0,.85,0,1.78.09,2.77.18,4.05.39,8.64-2,11.2a6.52,6.52,0,0,1-4.85,1.88c-7.95.16-16,.1-23.86,0-4,0-7.94,0-11.91,0-.68,0-1.45,0-2.27.09S29.65,155.31,28.66,155.31ZM25.1,53.11c-2.83.7-4.15,3-4.15,7v85.52c0,.35,0,.7,0,1.05,0,2.42-.08,4.92,1.95,6.55s5.7,1.45,8.63,1.29c.82,0,1.6-.08,2.3-.08q6,0,11.92.05c7.81,0,15.9.1,23.83-.05A5.9,5.9,0,0,0,74,152.8c2.21-2.36,2-6.81,1.84-10.73,0-1-.09-1.93-.09-2.8V64.22c0-.67,0-1.35,0-2a38.87,38.87,0,0,0,0-4c-.39-5.24-5-5.24-9-5.24H27.45a1.35,1.35,0,0,1,.11.45,1.45,1.45,0,0,1-.19.86H55.72c1.52,0,3.05,0,4.57,0,3,0,6.14-.09,9.19,0s4.63,1.43,4.92,4a12.16,12.16,0,0,1,0,1.48c0,.23,0,.46,0,.69v81.9c0,.74,0,1.5,0,2.26a32.78,32.78,0,0,1,0,4.65c-.48,4.34-5,4.16-8.28,4-.56,0-1.09,0-1.58,0H29.27l-1,0a15.28,15.28,0,0,1-2,0c-2.49-.27-3.84-1.87-4-4.75-.33-5.53-.22-11.23-.11-16.73.05-2.73.11-5.56.11-8.31V84.31c0-2.79-.06-5.64-.11-8.41-.11-5.57-.23-11.33.11-16.93.1-1.69.54-3.91,3-4.58a1.34,1.34,0,0,1-.27-.82A1.48,1.48,0,0,1,25.1,53.11Zm4.17,99.39H64.54c.5,0,1,0,1.6.05,3.38.13,7.2.28,7.61-3.45a33,33,0,0,0,0-4.56c0-.77-.06-1.53-.06-2.28V60.36c0-.24,0-.48,0-.72a9.06,9.06,0,0,0,0-1.38c-.25-2.18-1.61-3.26-4.29-3.38-3-.14-6.15-.09-9.16-.05-1.53,0-3.06.05-4.58.05H26.31c-2.22.2-3.24,1.43-3.4,4.13-.33,5.58-.22,11.32-.11,16.88.06,2.77.11,5.63.11,8.42v39.06c0,2.76-.05,5.59-.11,8.32-.11,5.49-.22,11.17.11,16.68.16,2.58,1.25,3.9,3.43,4.13a13.89,13.89,0,0,0,1.94,0Q28.78,152.5,29.27,152.5ZM26.13,52.93a.62.62,0,0,0-.45.64.69.69,0,0,0,.16.46.53.53,0,0,0,.45.19.71.71,0,0,0,.62-.8.51.51,0,0,0-.43-.51h-.17Z"/><path class="cls-1" d="M64.87,126.23H38c-1.74,0-4.43.53-6.11,0-2.08-.65-1.54-2.87-1.54-4.45V80.58c0-1.45-.46-3.79,0-5.19.73-2.21,2.6-1.74,4.42-1.74H56.48c2.42,0,5.32-.44,7.7,0,3.63.67,2.16,7.77,2.16,10.48v36.2c0,1.63.8,5.53-1.74,5.94-1.24.2-.71,2.09.53,1.89,4.84-.78,3.17-9.28,3.17-12.67V89.76c0-4.75.59-9.92,0-14.64-.37-2.94-2.52-3.44-5-3.44H53.47c-7.07,0-14.28-.43-21.34,0-5,.31-3.77,6.48-3.77,10v24.72c0,6-.33,12,0,18,.13,2.51,1.58,3.71,4,3.83,3.37.17,6.8,0,10.18,0H64.87A1,1,0,0,0,64.87,126.23Z"/><path class="cls-1" d="M35.77,128.6c-1.14,0-2.28,0-3.41-.07-2.69-.14-4.19-1.57-4.33-4.14-.22-4-.14-8.07-.07-12,0-2,.07-4,.07-6V81.69c0-.55,0-1.17-.07-1.83-.17-3.47-.41-8.23,4.15-8.51,4.72-.29,9.58-.19,14.28-.09,2.33,0,4.74.09,7.08.09H63.3c2.4,0,4.92.45,5.33,3.73A62.53,62.53,0,0,1,68.76,85c-.07,1.59-.13,3.24-.13,4.8v25.73c0,.6.05,1.35.11,2.23.28,4,.7,10-3.49,10.76a1.58,1.58,0,0,1-.38.05H42.56l-3.38,0C38.06,128.58,36.92,128.6,35.77,128.6Zm3.47-56.78c-2.37,0-4.75.05-7.09.19-3.92.24-3.71,4.27-3.53,7.82,0,.66.06,1.29.06,1.86v24.72c0,2,0,4-.07,6-.07,3.94-.14,8,.07,12,.13,2.25,1.34,3.41,3.71,3.52s4.55.08,6.78,0c1.13,0,2.27,0,3.39,0H63.81a1.38,1.38,0,0,1-.17-1.22l0-.09H38c-.53,0-1.17,0-1.84.11a12.63,12.63,0,0,1-4.37-.12c-2-.63-1.88-2.47-1.8-4,0-.28,0-.56,0-.82V80.58c0-.44,0-1-.09-1.55A10.73,10.73,0,0,1,30,75.29c.7-2.11,2.41-2.05,3.93-2l.8,0H56.48c.78,0,1.6,0,2.47-.1a23.82,23.82,0,0,1,5.29.1c3.21.6,2.81,5.54,2.54,8.81-.06.8-.12,1.48-.12,2v36.2c0,.28,0,.62,0,1,.11,1.6.27,3.89-1,4.85a1.38,1.38,0,0,1,.46,1,2.45,2.45,0,0,1,0,.27c2.54-1.44,2.2-6.35,2-9.73-.06-.88-.12-1.65-.12-2.27V89.76c0-1.57.07-3.23.13-4.82A61.22,61.22,0,0,0,68,75.16C67.65,72.54,65.87,72,63.3,72H53.47c-2.35,0-4.76-.05-7.1-.1S41.63,71.82,39.24,71.82Zm25.58,54.74-.16,0a.49.49,0,0,0-.41.29.8.8,0,0,0,.16.71.69.69,0,0,0,.66.25h0a.63.63,0,0,0,.4-.62.61.61,0,0,0-.62-.66ZM33.12,73.93c-1.15,0-2,.21-2.49,1.57A10.19,10.19,0,0,0,30.55,79c.05.58.1,1.13.1,1.6v41.2c0,.27,0,.56,0,.86-.09,1.7-.05,2.84,1.34,3.28a12.08,12.08,0,0,0,4.11.1c.69-.06,1.34-.11,1.9-.11H64.74c1.48-.39,1.47-2.37,1.32-4.54,0-.39,0-.75,0-1V84.13c0-.54,0-1.24.12-2,.25-3,.62-7.63-2-8.11A22.38,22.38,0,0,0,59,73.88c-.88.05-1.71.09-2.51.09H34.74l-.83,0Z"/><path class="cls-1" d="M29.81,47.05h38a1,1,0,0,0,0-2h-38a1,1,0,0,0,0,2Z"/><path class="cls-1" d="M67.79,47.38h-38a1.31,1.31,0,0,1,0-2.62h38a1.31,1.31,0,0,1,0,2.62Zm-38-2a.6.6,0,0,0-.62.66.6.6,0,0,0,.62.65h38a.6.6,0,0,0,.62-.65.6.6,0,0,0-.62-.66Z"/><path class="cls-1" d="M47.17,108.32a1.94,1.94,0,0,0,2.75,0l7.75-7.74c6.79-6.79-2.33-15.91-9.12-9.12-6.22-6.21-15.34,2.91-9.12,9.12Z"/><path class="cls-1" d="M48.55,109.22a2.23,2.23,0,0,1-1.61-.67l-7.74-7.74A6.78,6.78,0,0,1,48.55,91a7.16,7.16,0,0,1,6.89-2,6.71,6.71,0,0,1,4.73,4.73,7.26,7.26,0,0,1-2.27,7.12l-7.74,7.74A2.26,2.26,0,0,1,48.55,109.22ZM43.91,89.71h-.27a6.19,6.19,0,0,0-4.08,1.87,6.27,6.27,0,0,0-1.88,4.08,6.16,6.16,0,0,0,2,4.68l7.74,7.74a1.66,1.66,0,0,0,2.29,0l7.75-7.74c3.34-3.34,2.61-7.11.53-9.19a5.91,5.91,0,0,0-4.18-1.77h0a7.1,7.1,0,0,0-5,2.3l-.23.23-.23-.23A6.21,6.21,0,0,0,43.91,89.71Z"/><rect class="cls-2" width="168" height="168"/></g></g></svg>