<svg xmlns="http://www.w3.org/2000/svg" viewBox="0 0 168 168"><defs><style>.cls-1,.cls-2{fill:#fff;}.cls-2{font-size:76.68px;font-family:Nunito-Black, Nunito Black;font-weight:800;}.cls-3{fill:none;}</style></defs><title>exclamation-mark-white-icon</title><g id="Layer_2" data-name="Layer 2"><g id="Layer_1-2" data-name="Layer 1"><path class="cls-1" d="M62,157.26a6.33,6.33,0,0,1-6-4.26l-7.18-21a2.69,2.69,0,0,0-2.7-1.81L27.33,131.3A6.27,6.27,0,0,1,21,123.09l6.62-20.34a2.69,2.69,0,0,0-1.09-3.08l-16-10.44a6.26,6.26,0,0,1,.06-10.54L26.5,68.57a2.7,2.7,0,0,0,1.11-3.09L20.83,44.36a6.23,6.23,0,0,1,.9-5.62,6.16,6.16,0,0,1,5.08-2.57l21.87,0h0a2.69,2.69,0,0,0,2.59-2l5-18.7a6.27,6.27,0,0,1,9.86-3.36L82.31,24.43a2.69,2.69,0,0,0,3.25,0h0L101.88,12a6.28,6.28,0,0,1,9.81,3.19l5.87,19.55a2.67,2.67,0,0,0,2.62,1.91l20.7-.39A6.27,6.27,0,0,1,147,44.5L140.27,65a2.69,2.69,0,0,0,1.07,3.08L157.47,78.7a6.26,6.26,0,0,1,0,10.47l-16.61,11a2.68,2.68,0,0,0-1.06,3.12l7,20.06a6.28,6.28,0,0,1-6,8.34l-21.66-.12a2.73,2.73,0,0,0-2.6,2l-5,18.78a6.28,6.28,0,0,1-9.87,3.36L85.57,143.33a2.69,2.69,0,0,0-3.27,0L65.81,156A6.26,6.26,0,0,1,62,157.26ZM46.33,126.55a6.31,6.31,0,0,1,5.94,4.25l7.18,21a2.68,2.68,0,0,0,4.17,1.27l16.5-12.63a6.29,6.29,0,0,1,7.63,0l16.13,12.34a2.68,2.68,0,0,0,4.22-1.43l5-18.77a6.26,6.26,0,0,1,6.09-4.66l21.66.12h0a2.69,2.69,0,0,0,2.53-3.57l-7-20.05a6.28,6.28,0,0,1,2.47-7.31l16.61-11a2.69,2.69,0,0,0,0-4.48L139.37,71.08a6.3,6.3,0,0,1-2.52-7.19l6.7-20.5a2.68,2.68,0,0,0-2.6-3.52l-20.7.39a6.29,6.29,0,0,1-6.13-4.47l-5.87-19.55a2.68,2.68,0,0,0-4.2-1.36L87.73,27.29a6.29,6.29,0,0,1-7.59,0L64,15a2.68,2.68,0,0,0-2.5-.41,2.65,2.65,0,0,0-1.72,1.84l-5,18.7a6.29,6.29,0,0,1-6.06,4.65h0l-21.88,0h0a2.67,2.67,0,0,0-2.55,3.5L31,64.39a6.28,6.28,0,0,1-2.6,7.21L12.54,81.72A2.59,2.59,0,0,0,11.3,84a2.63,2.63,0,0,0,1.21,2.27l16,10.44A6.26,6.26,0,0,1,31,103.86L24.4,124.21a2.65,2.65,0,0,0,.43,2.47,2.63,2.63,0,0,0,2.28,1L46,126.57Z"/><text class="cls-2" transform="translate(73.57 110.47)">!</text><rect class="cls-3" width="168" height="168"/></g></g></svg>