<svg xmlns="http://www.w3.org/2000/svg" viewBox="0 0 120 120"><defs><style>.cls-1{fill:#5c8f8e;}.cls-2{fill:none;}</style></defs><title>combination-icon_3</title><g id="Layer_2" data-name="Layer 2"><g id="Layer_1-2" data-name="Layer 1"><path class="cls-1" d="M97.65,78.85C91.48,67.76,85.22,56.73,79,45.67L62.2,75.61a37.27,37.27,0,0,0-2.71,5.3,17.2,17.2,0,0,0,1.29,14.4c4.81,8.42,15.62,11.85,24.69,9.11,11-3.31,17.26-14.9,12.18-25.57-1-2.13-4.18-.27-3.17,1.85,4.23,8.87-1.87,18.12-10.8,20.41-8.12,2.09-18-1.68-20.82-10a14.06,14.06,0,0,1,1.43-11.73l1.85-3.3L74.4,61.36l6.19-11H77.43c5.69,10.12,11.41,20.22,17,30.37C95.63,82.76,98.79,80.91,97.65,78.85Z"/><path class="cls-1" d="M88.68,83.46c-.07-.55,0,.14,0,.33,0,.5.06,1,.07,1.49a16,16,0,0,1-.56,4.51c-1.33,4.67-5.24,6.09-9.8,5.54-1.55-.19-1.54,2.26,0,2.44,5.26.64,10-1.29,11.88-6.48A17.94,17.94,0,0,0,91,82.81c-.22-1.54-2.58-.89-2.36.65Z"/><path class="cls-1" d="M64.68,79h-9q.07-8.18.16-16.33c5.2-.67,9.8-3,12.73-7.59a22.15,22.15,0,0,0,2.74-6.54c.56-2.18,1.31-5,.48-7.15A5.53,5.53,0,0,0,65.48,38c-3.14.64-4,3.18-4.49,6s-2.27,5.79-5.15,6.39V25.45a19.94,19.94,0,0,0-.17-3.94A8,8,0,0,0,40.47,20a13.9,13.9,0,0,0-.68,5.51L39.68,39a5.3,5.3,0,0,1-3.51-1.31,6.17,6.17,0,0,1-1.34-3.12,5.53,5.53,0,0,0-5.28-4.41c-7,0-5.47,8.57-3.64,12.74a18.75,18.75,0,0,0,13.9,10.55l0,25.48H29.35a1.41,1.41,0,0,0,0,2.81h33.8ZM53,61.37q-.09,8.79-.17,17.57L42.67,79q0-13.35,0-26.7a1.44,1.44,0,0,0-1.41-1.41,16.58,16.58,0,0,1-11.95-7.51,16.74,16.74,0,0,1-2.19-6.81c-.36-4,4.17-4.67,5.1-.76,1.17,4.89,5.26,6.51,10.3,6q0-6.26.1-12.52c0-4.12-.93-11.34,5.25-11.34C53.17,18,53,23.18,53,27V51.89a1.43,1.43,0,0,0,1.41,1.4A8.46,8.46,0,0,0,60,51.37a10,10,0,0,0,3-4.26c.86-2.25.47-7,4.09-6.32,4.51.8.86,9.6-.5,12-2.58,4.58-7,6.81-12.2,7.18A1.43,1.43,0,0,0,53,61.37Z"/><rect class="cls-2" width="120" height="120"/></g></g></svg>