<svg xmlns="http://www.w3.org/2000/svg" viewBox="0 0 120 120"><defs><style>.cls-1{fill:#f4f2f1;stroke:#f4f2f1;stroke-miterlimit:10;}.cls-2{fill:none;}</style></defs><title>dry-white-icon_1</title><g id="Layer_2" data-name="Layer 2"><g id="Layer_1-2" data-name="Layer 1"><path class="cls-1" d="M87.6,69a30.68,30.68,0,0,0,3.73-8.89c.76-3,1.78-6.76.65-9.73a7.54,7.54,0,0,0-8.56-4.54c-4.28.88-5.42,4.32-6.12,8.13s-3.08,7.87-7,8.68V28.71a26.55,26.55,0,0,0-.23-5.35A10.88,10.88,0,0,0,49.4,21.3c-1,2.4-.9,4.95-.92,7.49l-.15,18.4a7.1,7.1,0,0,1-4.77-1.79c-1.21-1.2-1.41-2.67-1.83-4.23-.92-3.36-3.48-6-7.17-6-9.51,0-7.45,11.66-5,17.32a25.42,25.42,0,0,0,18.9,14.34q0,17.33.05,34.66H34.28a1.91,1.91,0,0,0,0,3.82H86a1.91,1.91,0,0,0,0-3.82H70.07l.21-22.21C77.36,78.37,83.62,75.17,87.6,69ZM34.17,53a22.66,22.66,0,0,1-3-9.27c-.5-5.38,5.66-6.35,6.93-1,1.44,6,6.14,8.41,12.1,8.32a2,2,0,0,0,1.92-1.92l.12-15.21c0-5.61-1.26-15.42,7.13-15.42,7.27,0,7.07,7.12,7.07,12.24V64.66a2,2,0,0,0,1.92,1.91A11.58,11.58,0,0,0,76,64a13.54,13.54,0,0,0,4.09-5.8c1.17-3,.64-9.47,5.56-8.6,6.14,1.09,1.17,13.06-.67,16.32-3.52,6.23-9.59,9.27-16.59,9.77a1.94,1.94,0,0,0-1.92,1.91q-.12,11.94-.23,23.89l-13.85,0q0-18.15,0-36.32a2,2,0,0,0-1.92-1.91A22.58,22.58,0,0,1,34.17,53Z"/><rect class="cls-2" width="120" height="120"/></g></g></svg>