<svg xmlns="http://www.w3.org/2000/svg" viewBox="0 0 153.7 150.5"><defs><style>.cls-1{fill:#5c8f8e;}</style></defs><title>new-heart-message</title><g id="Layer_2" data-name="Layer 2"><g id="Layer_1-2" data-name="Layer 1"><path class="cls-1" d="M78.48,0A76.4,76.4,0,0,0,16.66,32.21C.72,54.81-1,84.56,11.34,109.16v-3l-6.9,14.79c-2.08,4.46-6.59,10.81-3.24,15.61C5,142,11.38,139,16.42,137.52l16.1-4.68-2.91-.77c31.23,26,79,25.09,106.07-6.63,24.58-28.83,24-73-1.59-101A76.25,76.25,0,0,0,78.48,0c-3.86,0-3.86,6,0,6,34,.32,63.64,25.32,68.71,59.16,4.9,32.79-14.43,66.42-46.4,76.54a70.67,70.67,0,0,1-54.63-5.48c-4.37-2.37-8-6.07-12.31-8.39a4.57,4.57,0,0,0-4.07-.44c-4.87,1.26-9.69,2.82-14.52,4.22-2.12.62-9.6,4.31-8.93-.59.2-1.47,1.53-3.3,2.16-4.63l3.8-8.17c1.36-2.91,4.26-6.9,4.58-10.18.18-1.79-1.16-3.47-1.86-5a62.5,62.5,0,0,1-2.82-7.37A66.23,66.23,0,0,1,9.1,78.17C7.57,39,39.59,6.37,78.48,6,82.34,6,82.35,0,78.48,0Z"/><path class="cls-1" d="M72,112.59a6.81,6.81,0,0,0,9.65,0l27.14-27.13c23.8-23.8-8.17-55.77-32-32-21.78-21.78-53.74,10.18-32,32Z"/></g></g></svg>