<svg xmlns="http://www.w3.org/2000/svg" viewBox="0 0 120 120"><defs><style>.cls-1{fill:#f4f2f1;stroke:#f4f2f1;stroke-miterlimit:10;}.cls-2{fill:none;}</style></defs><title>oily-white-icon</title><g id="Layer_2" data-name="Layer 2"><g id="Layer_1-2" data-name="Layer 1"><path class="cls-1" d="M84,64.07C77.4,52.16,70.68,40.31,64,28.43a2.16,2.16,0,0,0-3.71,0L42.41,60.27a45.08,45.08,0,0,0-3.18,6.23,20.21,20.21,0,0,0,1.52,16.9c5.65,9.87,18.34,13.9,29,10.68C82.59,90.2,90,76.59,84,64.07c-1.19-2.5-4.9-.32-3.72,2.17,5,10.41-2.2,21.27-12.67,24-9.54,2.45-21.1-2-24.45-11.76-1.62-4.76-.75-9.46,1.68-13.77L47,60.81l9.7-17.27L64,30.6H60.3c6.67,11.88,13.39,23.73,20,35.64C81.66,68.66,85.37,66.49,84,64.07Z"/><path class="cls-1" d="M73.51,69.49c-.1-.65,0,.16,0,.38,0,.58.07,1.16.07,1.75A18.54,18.54,0,0,1,73,76.91c-1.56,5.49-6.16,7.16-11.5,6.51-1.83-.22-1.81,2.65,0,2.86,6.17.75,11.76-1.51,13.95-7.61a21.08,21.08,0,0,0,.86-9.94c-.26-1.82-3-1-2.76.76Z"/><rect class="cls-2" width="120" height="120"/></g></g></svg>