<svg xmlns="http://www.w3.org/2000/svg" viewBox="0 0 171.94 157.09"><defs><style>.cls-1{fill:#5c8f8e;}</style></defs><title>people</title><g id="Layer_2" data-name="Layer 2"><g id="Layer_1-2" data-name="Layer 1"><path class="cls-1" d="M86,88.9a30.1,30.1,0,1,1,30.1-30.1A30.13,30.13,0,0,1,86,88.9Zm0-55.24A25.14,25.14,0,1,0,111.11,58.8,25.17,25.17,0,0,0,86,33.66Z"/><path class="cls-1" d="M86,157.09c-14.87,0-30.92-2.69-35.49-8.64H49.19V121A32.67,32.67,0,0,1,81.83,88.39h8.28A32.67,32.67,0,0,1,122.75,121v27.42h-1.29C116.89,154.4,100.85,157.09,86,157.09ZM54.15,145l.05.12c1.12,2.89,13.09,7.06,31.77,7.06s30.65-4.17,31.78-7.06l0-.12V121A27.71,27.71,0,0,0,90.11,93.35H81.83A27.71,27.71,0,0,0,54.15,121Z"/><path class="cls-1" d="M141.79,59.69H133.5A30.07,30.07,0,0,0,120,62.87a34.24,34.24,0,0,1-15.58,24.82,36.46,36.46,0,0,1,23,33.87V123c3.23.28,6.66.44,10.22.44,17.66,0,32.19-3.78,34.09-8.64h.21V89.85A30.15,30.15,0,0,0,141.79,59.69Z"/><path class="cls-1" d="M51.92,62.87a30,30,0,0,0-13.48-3.18H30.16A30.16,30.16,0,0,0,0,89.85v24.94H.22c1.89,4.86,16.43,8.64,34.08,8.64,3.56,0,7-.16,10.22-.44v-1.43a36.46,36.46,0,0,1,23-33.87A34.3,34.3,0,0,1,51.92,62.87Z"/><path class="cls-1" d="M60.75,35.56a27.63,27.63,0,1,0-7.1,11.76A34.24,34.24,0,0,1,60.75,35.56Z"/><path class="cls-1" d="M137.64,0a27.64,27.64,0,0,0-26.45,35.56,34.27,34.27,0,0,1,7.11,11.76A27.61,27.61,0,1,0,137.64,0Z"/></g></g></svg>