<svg xmlns="http://www.w3.org/2000/svg" viewBox="0 0 161.64 201.51"><defs><style>.cls-1{fill:#5c8f8e;}</style></defs><title>new-person</title><g id="Layer_2" data-name="Layer 2"><g id="Layer_1-2" data-name="Layer 1"><path class="cls-1" d="M128.72,53.76a3.06,3.06,0,0,1-3-2.32l-3.06-12a14.73,14.73,0,0,0-6.79-9.07l-2.2-1.3a4,4,0,0,1,.76-7.17l1.16-.39a13.7,13.7,0,0,0,8.27-7.64l1.35-3.16a4,4,0,0,1,7.34,0l2.06,4.87a9.39,9.39,0,0,0,5.78,5.26l3,.95a3.84,3.84,0,0,1,.82,7l-1.81,1.09a16,16,0,0,0-7.18,9.34l-3.56,12.35a3.07,3.07,0,0,1-3,2.23ZM118.45,26.09a19.62,19.62,0,0,1,9.08,12.13l1.34,5.24,1.63-5.65a21,21,0,0,1,9.07-12l-.63-.2a14.33,14.33,0,0,1-8.86-8.06l-1.15-2.73-.44,1A18.7,18.7,0,0,1,118.13,25.9Z"/><path class="cls-1" d="M128.76,53.17h0a2.47,2.47,0,0,1-2.38-1.88l-3.06-12a15.25,15.25,0,0,0-7.06-9.43L114,28.56a3.38,3.38,0,0,1,.65-6.11l1.16-.38a14.3,14.3,0,0,0,8.62-8l1.35-3.16a3.4,3.4,0,0,1,6.26,0l2.06,4.87a10,10,0,0,0,6.15,5.59l3,1a3.26,3.26,0,0,1,.69,5.9l-1.81,1.09A16.68,16.68,0,0,0,134.71,39l-3.56,12.35A2.46,2.46,0,0,1,128.76,53.17Zm-12-27.4,1.41.83A19,19,0,0,1,127,38.36l1.87,7.34L131.06,38a20.47,20.47,0,0,1,9.14-11.89l.78-.47L139.12,25a13.72,13.72,0,0,1-8.5-7.73l-1.69-4-1,2.3A18.05,18.05,0,0,1,117,25.67Z"/><path class="cls-1" d="M26,146.1a3.42,3.42,0,0,1-3.32-2.6l-4.95-19.45A25.34,25.34,0,0,0,6,108.39l-3.58-2.11a4.89,4.89,0,0,1,.95-8.84l1.88-.63A23.78,23.78,0,0,0,19.58,83.56l2.18-5.13a4.92,4.92,0,0,1,9.06,0l3.35,7.89a16.66,16.66,0,0,0,10.33,9.4l4.88,1.54a4.7,4.7,0,0,1,1,8.5l-2.94,1.76a27.64,27.64,0,0,0-12.35,16.06l-5.78,20A3.43,3.43,0,0,1,26,146.1Zm-17.46-42a30.3,30.3,0,0,1,14,18.71l3.57,14,4.23-14.65a32.57,32.57,0,0,1,14.57-18.94l2.39-1.44L43,100.46a21.64,21.64,0,0,1-13.4-12.2l-3.32-7.82L24.16,85.5a28.75,28.75,0,0,1-17.36,16l-1.7.57Z"/><path class="cls-1" d="M26,145.52h0a2.83,2.83,0,0,1-2.73-2.16l-4.95-19.45a25.91,25.91,0,0,0-12-16l-3.58-2.12A4.29,4.29,0,0,1,3.53,98l1.88-.63A24.38,24.38,0,0,0,20.12,83.79l2.18-5.13a4.28,4.28,0,0,1,4-2.65h0a4.29,4.29,0,0,1,4,2.65l3.35,7.89a17.27,17.27,0,0,0,10.69,9.73l4.88,1.54a4.1,4.1,0,0,1,.87,7.43L47.13,107a28.15,28.15,0,0,0-12.6,16.4l-5.79,20A2.84,2.84,0,0,1,26,145.52Zm.3-65.7a.51.51,0,0,0-.5.32l-2.17,5.13A28.22,28.22,0,0,1,6.61,101l-1.88.62a.49.49,0,0,0-.34.42.48.48,0,0,0,.24.48l3.57,2.12A29.64,29.64,0,0,1,21.94,123l4.11,16.12,4.82-16.73a32,32,0,0,1,14.31-18.6L48.12,102a.26.26,0,0,0,.14-.29.27.27,0,0,0-.21-.25L43.17,99.9A21.05,21.05,0,0,1,30.13,88l-3.35-7.89a.49.49,0,0,0-.49-.32Z"/><polygon class="cls-1" points="32.81 125.7 61.48 116.6 61.48 98.74 66.45 98.74 66.45 120.21 31.3 131.72 32.81 125.7"/><polygon class="cls-1" points="62.06 99.33 62.06 117.03 33.3 126.16 32.13 130.84 65.86 119.79 65.86 99.33 62.06 99.33"/><path class="cls-1" d="M81.09,107.59a38.42,38.42,0,0,1-5.36-.38,2.49,2.49,0,0,1,.34-4.95,2.17,2.17,0,0,1,.36,0,31.47,31.47,0,0,0,4.66.34h.5c17.6-.27,31.92-15,31.92-32.93V37.41A32.38,32.38,0,0,0,82.64,5L81.1,5C63.21,5,48.65,19.74,48.65,37.88V70.19A32.37,32.37,0,0,0,65.9,98.85l.15.08.17.29v4.67l-.54.36-.33-.12A37.54,37.54,0,0,1,43.68,70.19V37.91C43.68,17,60.46,0,81.09,0h.66a37.57,37.57,0,0,1,36.74,37.4V69.67c0,20.68-16.59,37.7-37,37.92Z"/><path class="cls-1" d="M81.74.59C61.07.23,44.26,17.24,44.26,37.91V70.19A36.86,36.86,0,0,0,65.61,103.6l0,0V99.37A33.07,33.07,0,0,1,48.06,70.19V37.88C48.06,19,63.76,3.53,82.67,4.43a33,33,0,0,1,31.43,33V69.68c0,18.12-14.38,33.24-32.5,33.52a32.82,32.82,0,0,1-5.26-.34,1.9,1.9,0,0,0-2.15,1.89h0a1.9,1.9,0,0,0,1.63,1.88,35.67,35.67,0,0,0,5.68.37c20.26-.22,36.4-17.07,36.4-37.33V37.41A36.87,36.87,0,0,0,81.74.59Z"/><path class="cls-1" d="M28.55,199.76a2.57,2.57,0,0,1-2.45-2.68V172.29a2.46,2.46,0,1,1,4.9,0v24.79A2.57,2.57,0,0,1,28.55,199.76Z"/><path class="cls-1" d="M28.55,199.17h0a2,2,0,0,1-1.86-2.09V172.29a2,2,0,0,1,1.86-2.1h0a2,2,0,0,1,1.87,2.1v24.79A2,2,0,0,1,28.55,199.17Z"/><path class="cls-1" d="M127,201.51a2.6,2.6,0,0,1-2.45-2.72V173.58a2.47,2.47,0,1,1,4.91,0v25.21A2.61,2.61,0,0,1,127,201.51Z"/><path class="cls-1" d="M127,200.93h0a2,2,0,0,1-1.86-2.14V173.58a2,2,0,0,1,1.86-2.13h0a2,2,0,0,1,1.87,2.13v25.21A2,2,0,0,1,127,200.93Z"/><path class="cls-1" d="M23.37,129.67l-2,.67a27.4,27.4,0,0,0-18.88,26v20.31s1.62,1.35,3.8,3.25V156.38A23.59,23.59,0,0,1,22.52,134l2-.78Z"/><path class="cls-1" d="M141.34,177a3.12,3.12,0,0,1-3-2.37L135,161.16a16.91,16.91,0,0,0-7.83-10.45l-2.52-1.49a4.43,4.43,0,0,1-2.17-4.24,4.59,4.59,0,0,1,3.19-3.88l1.17-.39a15.8,15.8,0,0,0,9.54-8.81l1.53-3.62a4.5,4.5,0,0,1,4.13-2.74,4.52,4.52,0,0,1,4.18,2.86l2.32,5.46a10.85,10.85,0,0,0,6.68,6.08l3.3,1a4.46,4.46,0,0,1,3.14,3.65,4.27,4.27,0,0,1-2.06,4.23l-2.08,1.24a18.58,18.58,0,0,0-8.28,10.77l-2.54,8.8-2,5.05A3.56,3.56,0,0,1,141.34,177Zm-11.4-31a22.42,22.42,0,0,1,10.37,13.85l1.61,6.32,2-6.79a24,24,0,0,1,10.52-13.84l-.9-.28A16.31,16.31,0,0,1,143.4,136L142,132.7l-.57,1.36a21.33,21.33,0,0,1-12,11.58Z"/><path class="cls-1" d="M161,144.7a3.89,3.89,0,0,0-2.74-3.16l-3.29-1a11.43,11.43,0,0,1-7.05-6.41l-2.31-5.46a4,4,0,0,0-2.81-2.41,3.91,3.91,0,0,0-4.43,2.29l-1.54,3.62a16.34,16.34,0,0,1-9.88,9.13l-1.18.39A4,4,0,0,0,123,145a3.84,3.84,0,0,0,1.89,3.67l2.52,1.5a17.47,17.47,0,0,1,8.1,10.81l3.35,13.45a2.55,2.55,0,0,0,2.47,1.92h0a3,3,0,0,0,2.78-1.89l2-5,2.54-8.81a19.14,19.14,0,0,1,8.54-11.1l2.07-1.25A3.7,3.7,0,0,0,161,144.7Zm-6.11,1.17a23.48,23.48,0,0,0-10.48,13.63l-2.55,8.86L139.74,160a22,22,0,0,0-10.1-13.49l-1.61-1,.31-.1a20.73,20.73,0,0,0,12.54-11.57L142,131.2l1.95,4.59a15.78,15.78,0,0,0,9.74,8.86l2.14.68Z"/><path class="cls-1" d="M95.72,120.21V98.74h5V116.6L141,129.78l1.62.57-3.54,3,.27,1.1Z"/><path class="cls-1" d="M138.43,133.17l3-2.61-.65-.22L100.1,117V99.33H96.3v20.46l42.23,13.8Z"/><path class="cls-1" d="M104.89,189.93a4,4,0,0,1-2.81-1.16L88.65,175.34C85,171.65,83.9,167,85.74,162.57a12.42,12.42,0,0,1,11.1-7.67,11.78,11.78,0,0,1,8,3.38,13.23,13.23,0,0,1,9.06-3.93,11.68,11.68,0,0,1,10.65,7.2c1.92,4.64.65,9.66-3.47,13.79l-13.44,13.43A3.93,3.93,0,0,1,104.89,189.93Z"/><path class="cls-1" d="M102.5,188.36a3.38,3.38,0,0,0,4.78,0l13.43-13.44c11.79-11.78-4-27.61-15.82-15.83-10.79-10.78-26.61,5-15.83,15.83Z"/><path class="cls-1" d="M153.09,143.74l-1.15.62-.29-.45a23,23,0,0,0-7.9-7.5l-.64-.36,1.6-1.77-2.62-4.19,1.77.8a28,28,0,0,1,13.64,13.27l.6,1.25Z"/><path class="cls-1" d="M153,143.1l3.94,1.31a27.28,27.28,0,0,0-13.35-13l1.82,2.91L144,135.9a23.42,23.42,0,0,1,8.1,7.69Z"/><path class="cls-1" d="M155.34,164.37h0l0-8a22.88,22.88,0,0,0-1.56-8.33l-.31-.78,2.75-.07,1.54-2.58.45,1.08a27.9,27.9,0,0,1,2.11,10.68l-.18,7.29.08.62L160,178l-4.67,1.56Z"/><path class="cls-1" d="M159.71,156.38a27.5,27.5,0,0,0-2.06-10.45l-1.11,1.84-2.24.06a23.54,23.54,0,0,1,1.61,8.55l0,8.48h0l0,13.87,3.51-1.17.16-13.27h-.11Z"/></g></g></svg>