<svg xmlns="http://www.w3.org/2000/svg" viewBox="0 0 120 120"><defs><style>.cls-1{fill:#5c8f8e;}.cls-2{fill:none;}</style></defs><title>sensitive-icon_2</title><g id="Layer_2" data-name="Layer 2"><g id="Layer_1-2" data-name="Layer 1"><path class="cls-1" d="M93.8,23.93c-1.77-2.77-8.75-1.14-11.22-.79a81.54,81.54,0,0,0-19.45,5.33c-4.74,2-9.79,4.56-13.52,8.31.11-2.13-.23-4.09-1.8-4.56-1.73-.53-2.38,1.22-3,2.41Q40,43.69,35.14,52.74c-3.21,5.77-5.81,13.15-4.86,19.81a12.15,12.15,0,0,0,5.8,8.92c-.95,3.46-1.74,7-2.41,10.5-.34,1.83,2.46,2.61,2.81.77.62-3.3,1.38-6.65,2.28-10A18.51,18.51,0,0,0,54,81.34a24,24,0,0,0,7.4-6.71c.72-1-.28-2.06-1.25-2.18l-2.24-.28a17.7,17.7,0,0,0,8.69-7.45c.86-1.47,1.66-3,2.48-4.47C69.68,59.1,70.32,58,71,56.82c.52-.92,1.71-2.36,1.86-3.42.21-1.43-1-2.2-2.1-2.89-.27-.18-.54-.34-.82-.51a10.16,10.16,0,0,0,7.63-3.35c3.27-3.43,5.83-7.51,8.43-11.44,1.9-2.87,3.66-5.92,6.51-7.9C93.56,26.55,94.67,25.31,93.8,23.93ZM48,34.74c.13-.38.17-.19,0,0Zm-1.47.11c-.23-.18,0-.4,0,0Zm20,13c0-.06,0-.07,0,0ZM85.87,30.17c-2.82,4-5.31,8.25-8.36,12.08-7.47,9.35,8.73-.4-5,4.63-2.25.83-5.07.18-7.38-.05a1.45,1.45,0,0,0-1.4,1.07c-.51,2.51,4,4,5.55,5.12l.42.25c-.25.08-.44.71-.62,1-.66,1.15-1.3,2.3-1.94,3.45-.85,1.52-1.67,3.05-2.52,4.57-1.86,3.31-4,5.68-7.61,7.1a25.44,25.44,0,0,1-7.41,1.7,1.46,1.46,0,0,0,0,2.91l7.77,1a22.6,22.6,0,0,1-5.93,4.42,15.38,15.38,0,0,1-11.9.68C45,61.71,55.08,43.91,72,34.3c.93-.53,1.89-1,2.87-1.49a5,5,0,0,1,.83-.35c1.74-.63,1-3.44-.78-2.8-4.27,1.56-8.2,4.36-11.71,7.18-9.11,7.33-16.07,17.15-21,27.69a106.28,106.28,0,0,0-5.34,14.14,9.28,9.28,0,0,1-2.2-2.3c-4.22-6.26-.32-16.25,3-22.17l7.88-14.77.91-1.72c-.14,1.47-.39,2.92-.66,4.37s1.85,2.69,2.66,1.12c2.61-5.05,7.75-8.27,12.72-10.68a75.09,75.09,0,0,1,17.29-5.7c3.61-.76,7.85-1.72,11.61-1.35A20.52,20.52,0,0,0,85.87,30.17Zm5.53-4.49c.17.06.08.09,0,0Z"/><rect class="cls-2" width="120" height="120"/></g></g></svg>