<svg xmlns="http://www.w3.org/2000/svg" viewBox="0 0 168 168"><defs><style>.cls-1{fill:#5c8f8e;}.cls-2{fill:none;}</style></defs><title>clock-icon</title><g id="Layer_2" data-name="Layer 2"><g id="Layer_1-2" data-name="Layer 1"><path class="cls-1" d="M151.24,84.1c-.28,28-17.83,53.64-44.39,63.15A67.1,67.1,0,0,1,26.68,49.5,67.69,67.69,0,0,1,97.2,18.28c31.27,6.24,53.73,34.12,54,65.82,0,2.9,4.53,2.9,4.5,0a72.42,72.42,0,0,0-47.07-67.26c-28.21-10.37-60.94-1.32-79.91,22S7.34,95.34,22.79,121a72.32,72.32,0,0,0,74.94,33.41c33.52-6.35,57.68-36.47,58-70.29C155.77,81.21,151.27,81.2,151.24,84.1Z"/><path class="cls-1" d="M81.91,21.13V33.84c0,2.9,4.5,2.9,4.5,0V21.13c0-2.9-4.5-2.9-4.5,0Z"/><path class="cls-1" d="M35.21,81.85H22.49c-2.89,0-2.9,4.5,0,4.5H35.21c2.9,0,2.9-4.5,0-4.5Z"/><path class="cls-1" d="M81.91,134.66v12.72c0,2.9,4.5,2.9,4.5,0V134.66c0-2.89-4.5-2.9-4.5,0Z"/><path class="cls-1" d="M144.81,81.85H132.09c-2.89,0-2.9,4.5,0,4.5h12.72c2.9,0,2.9-4.5,0-4.5Z"/><path class="cls-1" d="M81.71,46c0,12-.82,24.24,0,36.18,0,.47-.22,1.41,0,1.84-.56-1.11,1.45-1.92,0-.64-2.33,2-4.23,5.08-6.2,7.44L64.2,104.31c-1.84,2.21,1.32,5.41,3.18,3.18L79.27,93.22c2.48-3,6.66-6.26,6.94-10.26.84-12.21,0-24.76,0-37,0-2.89-4.5-2.9-4.5,0Z"/><rect class="cls-2" width="168" height="168"/></g></g></svg>