<svg xmlns="http://www.w3.org/2000/svg" viewBox="0 0 168 168"><defs><style>.cls-1{fill:#5c8f8e;}.cls-2{fill:none;}</style></defs><title>give-love-icon</title><g id="Layer_2" data-name="Layer 2"><g id="Layer_1-2" data-name="Layer 1"><path class="cls-1" d="M37.64,121.21H16.44L18.23,123V79.28l-1.79,1.79h21.2l-1.79-1.79V123a1.79,1.79,0,0,0,3.57,0V79.28a1.82,1.82,0,0,0-1.78-1.79H16.44a1.81,1.81,0,0,0-1.79,1.79V123a1.81,1.81,0,0,0,1.79,1.79h21.2A1.79,1.79,0,0,0,37.64,121.21Z"/><path class="cls-1" d="M37.64,86.37H56.21c7.43,0,13.9-.81,19.71,4.9,4.53,4.45,8.35,9.93,13.3,13.93,3.36,2.73,7.14,3.59,11.36,3.69,2.18,0,4-.23,6.09.68,3,1.36,3.45,6-.73,7.07a10.68,10.68,0,0,1-2.76-.13c-2.3-.11-2.29,3.47,0,3.58,4,.19,8.36.1,9.9-4.48,1.38-4.13-1.54-8.65-5.49-9.91-6.34-2-11.42,1.09-17.28-4.35-2.86-2.66-5.41-5.75-8.09-8.6s-5.32-6.22-8.89-8.1-6.94-1.86-10.69-1.86h-25a1.79,1.79,0,0,0,0,3.58Z"/><path class="cls-1" d="M72.14,103.07c4.59,4.24,9.09,8.61,13.79,12.73,4.39,3.85,8.69,3.88,14.21,4.14s12.43,1.72,18,.77c5.11-.87,11-8.63,16.28-5.69,4,2.21,1,3.5-1.39,4.88L122.61,126c-2.92,1.71-5.91,3.35-8.78,5.15-.3.18-2,1.09-1.14.79.7-.25-2,.16-2.41.2-6.82.75-13.82,2.09-20.67,2.25-4.72.12-9-2.32-13.27-4.08-12.47-5.12-25.16-12.55-38.7-13.53-2.3-.17-2.29,3.41,0,3.57,12.38.9,24.9,8.13,36.72,13C79,135.25,84,138.09,89.18,138c7.11-.13,14.44-1.56,21.51-2.35,4.63-.51,8-3.26,12.06-5.61,4.89-2.86,12.43-5.52,16.24-9.79,4.9-5.47-2.64-9.33-7.46-9.4-5.83-.1-9.89,6.05-15.67,6.26-4.37.17-8.9-.42-13.28-.63-3.76-.18-8,.23-11.44-1.46-6.2-3.07-11.4-9.8-16.47-14.48-1.69-1.56-4.23,1-2.53,2.53Z"/><path class="cls-1" d="M106.13,100.41c6.74,4.87,12.09-3.14,16.41-7.46,5.35-5.37,12.36-10.76,16.36-17.3,5-8.13,3.45-18.62-4.28-24.44-8.26-6.22-18.27-3.51-25.32,3.06h2.53c-6.22-5.76-14.6-7.82-22.23-3.32-6.55,3.87-10.7,11.58-9.27,19.2,1.24,6.63,6.47,11,11,15.52l14.45,14.46a1.79,1.79,0,0,0,2.52-2.53c-6.45-6.46-13.13-12.75-19.38-19.4-5-5.39-7.13-12.41-2.92-19,5.52-8.59,16.08-9.12,23.31-2.43a1.82,1.82,0,0,0,2.53,0c7.24-6.74,18.6-8.1,24.39,1.35,4.33,7.07,1.2,14.54-4,20.05-3.36,3.55-6.93,6.92-10.38,10.38-2.56,2.56-9.2,12.14-13.91,8.74C106.06,96,104.28,99.07,106.13,100.41Z"/><path class="cls-1" d="M63.23,40.58,79.51,51.43c1.92,1.28,3.71-1.82,1.8-3.09L65,37.49c-1.92-1.28-3.71,1.82-1.8,3.09Z"/><path class="cls-1" d="M111.18,22.75V39a1.79,1.79,0,0,0,3.58,0V22.75a1.79,1.79,0,0,0-3.58,0Z"/><path class="cls-1" d="M157.29,39.3,141,50.15c-1.91,1.27-.12,4.37,1.8,3.09l16.28-10.85c1.91-1.27.12-4.37-1.8-3.09Z"/><rect class="cls-2" width="168" height="168"/></g></g></svg>