<svg xmlns="http://www.w3.org/2000/svg" viewBox="0 0 177 177"><defs><style>.cls-1{fill:#5c8f8e;}.cls-2{fill:none;}</style></defs><title>new-cleanser</title><g id="Layer_2" data-name="Layer 2"><g id="Layer_4" data-name="Layer 4"><g id="Cleansers"><g id="_2_Cleanser" data-name="#2 Cleanser"><path class="cls-1" d="M83.91,38.8h41.47c2.59,0,7.91-1.06,10.32,0,2.9,1.28-.1,12.39-.42,15.08L131.2,88.12l-3.57,30c-.13,1.09.08,4.93-.69,5.8-1.49,1.68-8.67.47-10.69.47H99.39c-2.26,0-5.25.78-6.26-1.22s-.71-6-1-8.15L90.44,100.6,85.76,61.26,83.93,45.87c-.17-1.44-1.76-6.51.4-7.13a1.58,1.58,0,0,0-.84-3C77.32,37.44,81.15,49,81.68,53.48l4.55,38.23,3.56,30c.26,2.17.3,4.55,2.65,5.57,3.23,1.4,8.61.32,12,.32H123c3.2,0,6.18.22,7.1-3.58,1.67-6.85,1.73-14.54,2.56-21.53l4.69-39.33c.88-7.46,2.94-15.68,2.76-23.21-.1-3.77-2.91-4.25-5.93-4.29-5.78-.07-11.57,0-17.35,0H83.91A1.58,1.58,0,0,0,83.91,38.8Z"/><path class="cls-1" d="M95.41,127.58h29.34L123.17,126v14.79l1.58-1.57H95.41L97,140.79V126a1.58,1.58,0,0,0-3.16,0v14.79a1.6,1.6,0,0,0,1.58,1.58h29.34a1.6,1.6,0,0,0,1.58-1.58V126a1.6,1.6,0,0,0-1.58-1.58H95.41A1.58,1.58,0,0,0,95.41,127.58Z"/><path class="cls-1" d="M93.83,140.79c0,3.59,0,6.78,4.31,7.28,3.87.44,8,0,11.94,0s8.07.44,11.94,0c4.31-.5,4.31-3.69,4.31-7.28a1.58,1.58,0,0,0-3.16,0c0,3.27-.33,4.12-3.45,4.12H100.45c-3.13,0-3.46-.85-3.46-4.12a1.58,1.58,0,0,0-3.16,0Z"/><path class="cls-1" d="M110.67,134.66a6.37,6.37,0,0,0-6.28,6.13,1.6,1.6,0,0,0,1.58,1.58h9.39a1.59,1.59,0,0,0,1.58-1.58,6.35,6.35,0,0,0-6.27-6.13c-2-.1-2,3.06,0,3.16a3.11,3.11,0,0,1,3.11,3l1.58-1.57H106l1.58,1.57a3.13,3.13,0,0,1,3.12-3C112.69,137.72,112.7,134.56,110.67,134.66Z"/><path class="cls-1" d="M82.11,45.4h56a1.58,1.58,0,0,0,0-3.16H82.11a1.58,1.58,0,0,0,0,3.16Z"/><path class="cls-1" d="M90.71,54.08h38.74l-1.58-1.58-2.35,18.87,1.58-1.58h-34l1.58,1.58L92.29,52.5c-.25-2-3.41-2-3.16,0l2.35,18.87A1.63,1.63,0,0,0,93.06,73h34a1.62,1.62,0,0,0,1.58-1.58L131,52.5a1.6,1.6,0,0,0-1.58-1.58H90.71A1.58,1.58,0,0,0,90.71,54.08Z"/><path class="cls-1" d="M109,97.7a1.59,1.59,0,0,0,2.25,0l6.32-6.32c5.54-5.54-1.9-13-7.45-7.44-5.07-5.07-12.51,2.37-7.44,7.44Z"/></g><g id="_1_Cleanser_1" data-name="#1 Cleanser 1"><path class="cls-1" d="M51.28,30.91h16.2c1.22,0,2.21-.37,2.56.85.26.92.44,5-.46,5.48-1.25.7-3.28-.59-4.59.4s-.82,2.69-.82,4v5.58l.82-.82H46.21l.82.82V39.76c0-3.53-.74-8.49,4.25-8.85,1-.07,1-1.71,0-1.64-4.52.33-5.89,3.68-5.89,7.64V47.17a.83.83,0,0,0,.82.82H65a.84.84,0,0,0,.82-.82V41.1c0-.73-.27-1.8.44-2.22s2.31.06,3.07,0c1.86-.14,2.33-1.11,2.36-2.85,0-1.57.52-4.1-.19-5.59-.55-1.16-1.66-1.15-2.75-1.17-2.13,0-4.25,0-6.38,0H51.28A.82.82,0,0,0,51.28,30.91Z"/><path class="cls-1" d="M65,48.51H46.21a1.36,1.36,0,0,1-1.35-1.34V36.91c0-6.25,3.34-7.89,6.21-8.15h.19a.49.49,0,0,1,.17,0H64.49c1.42,0,2.84,0,4.26,0,1.16,0,2.53,0,3.21,1.46a9.34,9.34,0,0,1,.33,4.48c0,.49-.08,1-.09,1.35,0,1.56-.38,3.18-2.84,3.37a7.39,7.39,0,0,1-1.18-.07,4.56,4.56,0,0,0-1.66,0c-.26.15-.25.61-.21,1.23,0,.19,0,.37,0,.53v6.07A1.35,1.35,0,0,1,65,48.51Zm-.37-1H65a.3.3,0,0,0,.29-.29V46.8Zm-17.07,0H63.64v-.59H47.55Zm-1.64-.66v.37a.31.31,0,0,0,.3.29h.37Zm18.79-1h.58V41.1c0-.14,0-.29,0-.45-.05-.73-.12-1.73.73-2.22a4.14,4.14,0,0,1,2.29-.14,8.4,8.4,0,0,0,1,.07c1.41-.11,1.85-.65,1.87-2.34,0-.41,0-.9.09-1.41A8.89,8.89,0,0,0,71,30.67c-.38-.8-1.09-.85-2.22-.87-1.47,0-2.89,0-4.3,0H52.57a1.31,1.31,0,0,1,0,.59H67.48c.24,0,.46,0,.67,0,.89-.06,2-.13,2.39,1.25.23.77.65,5.34-.7,6.09a3.83,3.83,0,0,1-2.42.18,2.92,2.92,0,0,0-2.12.18c-.73.55-.68,1.73-.63,2.78,0,.26,0,.51,0,.75Zm-17.15,0H63.64V41.59c0-.22,0-.46,0-.7-.06-1.25-.13-2.79,1.05-3.68a3.82,3.82,0,0,1,2.89-.38,3,3,0,0,0,1.77,0c.49-.39.5-3.84.2-4.88-.15-.52-.34-.56-1.31-.49-.23,0-.48,0-.74,0H51.3c-3.63.27-3.85,3.11-3.77,7.09,0,.42,0,.83,0,1.23Zm-1.64,0h.59V39.76c0-.39,0-.79,0-1.21-.06-3-.15-7,3.56-8A1.56,1.56,0,0,1,50,30.1V30c-2.72.71-4.05,3-4.05,6.9Zm5.29-16a.3.3,0,0,0,.06.58.28.28,0,0,0,.24-.17.38.38,0,0,0,0-.36s0-.05-.1-.06H51.2Z"/><path class="cls-1" d="M41.35,63.1V51.37c0-1.67,0-3,2.09-3.38A28.26,28.26,0,0,1,48,48H62.89c2.43,0,8-1.19,8.52,2.09.39,2.27,0,5,0,7.26V63.1l.82-.82H40.53a.82.82,0,0,0,0,1.64h31.7a.83.83,0,0,0,.82-.82c0-4.4.21-8.85,0-13.25-.2-4.17-4.26-3.5-7.28-3.5H48.93c-3,0-8.78-1.16-9.22,3.08-.46,4.46,0,9.18,0,13.67A.82.82,0,0,0,41.35,63.1Z"/><path class="cls-1" d="M72.23,64.45H40.53a1.35,1.35,0,0,1-1.34-1.35c0-1.48,0-3-.1-4.51a67.51,67.51,0,0,1,.1-9.22c.42-4,5.05-3.78,8.13-3.61.59,0,1.14.06,1.61.06H65.77l1.11,0c2.73-.07,6.49-.17,6.69,4,.15,3,.1,6,.05,8.88,0,1.47-.05,2.94-.05,4.4A1.36,1.36,0,0,1,72.23,64.45Zm-.37-1.06h.37a.3.3,0,0,0,.29-.29v-.37Zm-30,0h29v-.58h-29v.29A1.36,1.36,0,0,1,41.85,63.39Zm-1.52-.08a.31.31,0,0,0,.2.06.27.27,0,0,0,.3-.27v-.29h-.3c-.23,0-.26.18-.26.29A.36.36,0,0,0,40.33,63.31Zm4.83-16.57c-2.68,0-4.69.48-4.92,2.74a67,67,0,0,0-.1,9.08c0,1.06.07,2.15.09,3.23a1.54,1.54,0,0,1,.3,0h.3V51.37c0-1.63,0-3.48,2.53-3.9a14.91,14.91,0,0,1,3.21-.06c.5,0,1,.05,1.47.05H62.89c.45,0,1,0,1.62-.09,2.74-.2,6.87-.51,7.42,2.62A23.28,23.28,0,0,1,72,55c0,.8-.09,1.58-.09,2.33v4.41h.6c0-1,0-2,0-3.07,0-2.89.09-5.89,0-8.8s-2.31-3.11-5.62-3l-1.13,0H48.93c-.49,0-1.06,0-1.67-.06S45.83,46.74,45.16,46.74Zm-3.28,15h29V57.34c0-.76,0-1.57.09-2.39a22.27,22.27,0,0,0-.08-4.78c-.35-2-3.18-2-6.3-1.75-.65,0-1.23.09-1.7.09H48c-.49,0-1,0-1.52,0a14.1,14.1,0,0,0-3,0c-1.58.26-1.65,1.11-1.65,2.86Z"/><path class="cls-1" d="M38,63.92H62.55c3.81,0,7.67-.17,11.47,0,2,.09,3.59.78,3.84,3.06a15.27,15.27,0,0,1,0,1.79v68.35a52.16,52.16,0,0,1,0,5.73c-.42,3.94-5.12,3.09-8,3.09H40.47c-.8,0-1.66.08-2.47,0-2.25-.25-3-1.81-3.1-3.71-.41-6.9,0-14,0-20.88V88.75c0-7-.42-14.14,0-21.12.11-1.89.72-3.5,3.1-3.71,1-.09,1-1.73,0-1.64-3.75.33-4.74,3.1-4.74,6.31V140c0,2.33-.35,4.91,1.71,6.56,2.29,1.82,6.6,1.07,9.29,1.07,10,0,19.91.19,29.85,0,7-.14,5.39-8.16,5.39-13V72c0-1.68.13-3.41,0-5.09-.34-4.56-4.34-4.62-7.82-4.62H38A.82.82,0,0,0,38,63.92Z"/><path class="cls-1" d="M40,148.26c-2,0-3.94-.25-5.31-1.34-2-1.61-2-4-1.93-6.1,0-.29,0-.58,0-.87V68.58c0-4.14,1.69-6.43,5-6.8a1.66,1.66,0,0,1,.22,0H71.68c3.36,0,8,0,8.35,5.11.08,1.15.06,2.32,0,3.46,0,.56,0,1.12,0,1.67v62.63c0,.71,0,1.49.07,2.3.16,3.43.33,7.32-1.75,9.53a5.68,5.68,0,0,1-4.23,1.65c-6.64.13-13.39.09-19.91.05-3.32,0-6.63-.05-10-.05-.56,0-1.2,0-1.88.07S40.79,148.26,40,148.26ZM36.68,63.08c-2,.67-2.9,2.45-2.9,5.5V140c0,.29,0,.59,0,.89,0,2-.07,4,1.53,5.25s4.63,1.16,7,1c.69,0,1.35-.07,1.93-.07,3.32,0,6.63,0,10,0,6.52,0,13.27.09,19.89,0a4.62,4.62,0,0,0,3.48-1.32c1.78-1.89,1.61-5.54,1.47-8.76,0-.83-.07-1.63-.07-2.35V72c0-.56,0-1.13,0-1.7,0-1.11.06-2.26,0-3.35-.29-3.83-3.34-4.13-7.3-4.13H39.29a1.62,1.62,0,0,1,0,.58H62.55l3.81,0c2.52,0,5.13-.08,7.69,0s4.09,1.3,4.34,3.53a9,9,0,0,1,0,1.27c0,.19,0,.38,0,.57v68.35c0,.61,0,1.24,0,1.87a28.5,28.5,0,0,1,0,3.92c-.42,3.86-4.33,3.7-7.18,3.59-.46,0-.9,0-1.3,0H40.47l-.79,0a12.49,12.49,0,0,1-1.73,0c-2.22-.24-3.43-1.65-3.58-4.2-.27-4.63-.18-9.38-.09-14,0-2.32.09-4.63.09-6.93V88.75c0-2.32,0-4.66-.09-7-.09-4.65-.19-9.46.09-14.15.05-.83.19-3.16,2.41-4a1.53,1.53,0,0,1-.1-.54Zm3.79,82.33H69.91c.42,0,.87,0,1.35,0,3.27.12,5.79,0,6.08-2.66a26.16,26.16,0,0,0,0-3.76c0-.65,0-1.29,0-1.91V68.77c0-.2,0-.41,0-.61a7,7,0,0,0,0-1.12c-.19-1.7-1.22-2.5-3.34-2.59-2.52-.12-5.12-.08-7.62,0-1.28,0-2.56,0-3.83,0H38c-1.72.15-2.47,1.09-2.6,3.21-.27,4.64-.18,9.43-.09,14.06.05,2.35.09,4.7.09,7v32.6c0,2.31,0,4.63-.09,7-.09,4.58-.18,9.31.09,13.9.12,2,1,3,2.64,3.21a10.37,10.37,0,0,0,1.58,0ZM37.91,62.82a.27.27,0,0,0-.18.28c0,.11,0,.28.24.29a.29.29,0,0,0,.25-.17.4.4,0,0,0,0-.36.1.1,0,0,0-.08,0h-.22Z"/><path class="cls-1" d="M70.18,123.74H47.74c-1.45,0-3.7.44-5.1,0-1.74-.55-1.29-2.4-1.29-3.71V85.64c0-1.21-.38-3.16,0-4.33.61-1.84,2.17-1.45,3.69-1.45H63.19c2,0,4.43-.37,6.42,0,3,.56,1.8,6.48,1.8,8.75v30.21c0,1.35.67,4.61-1.45,5-1,.17-.59,1.75.44,1.58,4-.65,2.65-7.74,2.65-10.58V93.3c0-4,.49-8.28,0-12.22-.31-2.45-2.1-2.86-4.18-2.86h-8.2c-5.9,0-11.92-.37-17.81,0-4.2.25-3.15,5.4-3.15,8.34v20.63c0,5-.27,10,0,15,.12,2.1,1.33,3.1,3.36,3.2,2.82.14,5.68,0,8.5,0H70.18A.82.82,0,0,0,70.18,123.74Z"/><path class="cls-1" d="M45.9,126c-.95,0-1.91,0-2.86-.06-2.39-.12-3.73-1.4-3.85-3.7-.18-3.33-.12-6.74-.06-10,0-1.66.06-3.33.06-5V86.56c0-.45,0-1-.06-1.51-.14-2.83-.36-7.11,3.7-7.36s8-.16,11.94-.08c2,0,3.95.08,5.9.08h8.2c2,0,4.33.38,4.7,3.33a52,52,0,0,1,.11,8.29c-.05,1.32-.11,2.7-.11,4v21.47c0,.5.05,1.14.1,1.85.24,3.43.6,8.6-3.15,9.25a1.76,1.76,0,0,1-.34,0H51.57q-1.41,0-2.82,0C47.81,126,46.86,126,45.9,126Zm2.9-47.39c-2,0-4,0-5.91.16C40.1,78.91,40,81.56,40.18,85c0,.56.06,1.09.06,1.56v20.63c0,1.66,0,3.33-.06,5-.06,3.28-.12,6.67.06,10,.09,1.76,1,2.61,2.85,2.71s3.79,0,5.64,0l2.84,0H68.91a1.8,1.8,0,0,1,0-.19,1.34,1.34,0,0,1,0-.4H47.74c-.45,0-1,0-1.52.09a10.52,10.52,0,0,1-3.74-.12c-1.84-.58-1.75-2.29-1.68-3.54,0-.24,0-.46,0-.67V85.64c0-.37,0-.81-.08-1.27a9,9,0,0,1,.1-3.22c.64-2,2.24-1.89,3.53-1.84l.66,0H63.19c.65,0,1.34,0,2-.08a19.53,19.53,0,0,1,4.47.09c2.91.53,2.56,4.8,2.33,7.62,0,.64-.1,1.21-.1,1.65v30.21c0,.22,0,.5,0,.81.08,1.24.21,3.13-.75,4.09a1.4,1.4,0,0,1,.25.57c1.57-1.4,1.32-5,1.14-7.6-.05-.74-.1-1.4-.1-1.92V93.3c0-1.32.06-2.7.11-4a51,51,0,0,0-.1-8.12c-.22-1.76-1.21-2.41-3.66-2.41h-8.2c-2,0-3.94,0-5.92-.08S50.79,78.58,48.8,78.58Zm21.37,45.69-.12,0c-.08,0-.18,0-.15.21s.12.38.4.34a.29.29,0,0,0,.15-.28.26.26,0,0,0-.27-.29ZM43.72,80.35c-1,0-1.55.17-1.87,1.13a8.31,8.31,0,0,0-.05,2.8c0,.5.08,1,.08,1.36V120q0,.34,0,.72c-.07,1.34,0,2.18.94,2.49a10.18,10.18,0,0,0,3.34.07c.58,0,1.14-.09,1.61-.09H70c1-.31,1-1.84.89-3.52,0-.34-.05-.64-.05-.88V88.61c0-.47.05-1.06.1-1.74.2-2.44.5-6.13-1.47-6.5a19,19,0,0,0-4.22-.07c-.72,0-1.44.08-2.1.08H45l-.7,0Z"/><path class="cls-1" d="M40.92,57.66h31.7a.82.82,0,0,0,0-1.64H40.92a.82.82,0,0,0,0,1.64Z"/><path class="cls-1" d="M72.62,58.19H40.92a1.35,1.35,0,0,1,0-2.69h31.7a1.35,1.35,0,0,1,0,2.69Zm-31.7-1.64c-.23,0-.26.18-.26.29s0,.29.26.29h31.7c.23,0,.26-.18.26-.29s0-.29-.26-.29Z"/><path class="cls-1" d="M55.41,108.79a1.62,1.62,0,0,0,2.3,0l6.46-6.46c5.67-5.67-1.94-13.28-7.61-7.61-5.18-5.19-12.79,2.43-7.61,7.61Z"/><path class="cls-1" d="M56.56,109.8a2.14,2.14,0,0,1-1.52-.63l-6.46-6.47A5.73,5.73,0,0,1,46.88,97a6.31,6.31,0,0,1,4.37-4.37A5.64,5.64,0,0,1,56.56,94c3-2.64,6.44-2.09,8.43-.1s2.59,5.77-.44,8.8l-6.47,6.47A2.13,2.13,0,0,1,56.56,109.8ZM52.69,93.51a4.16,4.16,0,0,0-1.16.16A5.28,5.28,0,0,0,47.9,97.3,4.72,4.72,0,0,0,49.32,102l6.47,6.46a1.09,1.09,0,0,0,1.55,0L63.8,102c2.67-2.67,2.1-5.66.45-7.31s-4.65-2.22-7.31.44l-.38.38-.37-.38A4.94,4.94,0,0,0,52.69,93.51Z"/></g></g><rect class="cls-2" width="177" height="177"/></g></g></svg>