<svg xmlns="http://www.w3.org/2000/svg" viewBox="0 0 177 177"><defs><style>.cls-1{fill:#5c8f8e;}.cls-2{fill:none;}</style></defs><title>new-exfoliator</title><g id="Layer_2" data-name="Layer 2"><g id="Layer_4" data-name="Layer 4"><path class="cls-1" d="M147.1,117.84c.34-.74.66-1.49,1-2.24a71.13,71.13,0,0,0,3.63-42.68h0q-.24-1.1-.51-2.16c-.2-.8-.42-1.6-.65-2.38h0a68.14,68.14,0,0,0-24.19-35.19l-.51-.38-1.61-1.16h0A62.44,62.44,0,0,0,88.5,20.41c-.8,0-1.59,0-2.38.06h0l-2.1.11-.78.07a62.07,62.07,0,0,0-17.29,4c-.8.31-1.58.64-2.37,1-.4.17-.79.36-1.19.54L61,26.8l-1.22.61-1.37.74c-.62.34-1.23.69-1.84,1.05h0l0,0c-.78.45-3,1.88-3.73,2.39h0l-1.49,1.06-.74.55A67.08,67.08,0,0,0,35.76,48.81l-.24.35a70,70,0,0,0-12,39.34c0,1.55.07,3.08.17,4.61q0,.63.09,1.26a69.17,69.17,0,0,0,20.66,44.18l0,0c.8.78,1.63,1.54,2.47,2.28h0a63.26,63.26,0,0,0,33.55,15.21h0c.69.08,1.37.17,2.07.23s1.64.15,2.48.2c1.13.06,2.26.09,3.41.09a62.49,62.49,0,0,0,35.73-11.24h0A67.51,67.51,0,0,0,147.1,117.84ZM43.85,129.55A63.49,63.49,0,0,1,29.53,96H42.22c.28.47.58.92.79,1.3l4.42,8L53.32,116q-3.66,6.64-7.31,13.28Zm7.89-25.1-5.9-10.7L51.74,83,56,75.26c.24-.44.61-1,.94-1.54H77.41c.59,0,1.4.1,2.17.1l8.85,16.06a17.75,17.75,0,0,0,1.71,3l.09.88c-.23.46-.43.92-.63,1.27l-4.41,8-5.91,10.72H57c-.29-.47-.59-.92-.8-1.3ZM83,71.34c.2-.43.39-.84.57-1.16l4.41-8q3-5.37,5.92-10.75l.24,0c6.68.08,13.35,0,20,0,.82,0,1.74.1,2.62.05q3.55,6.46,7.12,12.94c1.08,1.95,2,4.48,3.32,6.26-.22.45-.42.89-.61,1.23l-4.41,8-6.12,11.11H93.82Q88.41,81.2,83,71.34Zm.57,43.41,4.41-8,6.12-11.12h22.24q4.55,8.28,9.11,16.55a15.52,15.52,0,0,0,2.09,3.49l0,.38-11,20H95.73c-.53,0-1.23-.08-1.93-.1Q88.34,126,82.87,116.1C83.12,115.61,83.33,115.13,83.54,114.75Zm36.25-21.43c.81-1.26,1.42-2.92,2.06-4.08l9-16.37a2,2,0,0,0,.24,0c5,.06,10,0,14.94,0a65.51,65.51,0,0,1,1.88,15.59,64.64,64.64,0,0,1-4.82,24.55L131,113.7Zm24.93-24.94h-12c-.53,0-1.23-.08-1.93-.1L120.16,49c.63-1.16,1.15-2.49,1.69-3.46l3.3-6A62.53,62.53,0,0,1,144.72,68.38ZM88.5,26.18a57.11,57.11,0,0,1,31.69,9.63l-2.92,10.28H95.73c-.65,0-1.54-.11-2.38-.09L82.71,26.67l.09-.19A56.64,56.64,0,0,1,88.5,26.18ZM73.28,28.27l7.31,3.25L86.89,43A64.17,64.17,0,0,0,90,48.9c-.13.27-.25.52-.37.73l-4.41,8L78.83,69.2H57c-.29-.47-.59-.92-.8-1.3l-4.41-8-4.47-8.11,1.32-9.38A58.71,58.71,0,0,1,73.28,28.27ZM41.09,51,42,51c.35.62.77,1.22,1,1.7l4.42,8,5.89,10.7q-3,5.36-5.89,10.71L43.14,90c-.24.43-.6,1-.94,1.54H29.15c0-1-.07-2-.07-3A64,64,0,0,1,41.09,51Zm7,83.19,3.61-6.56q2.13-3.89,4.28-7.77c.24-.44.61-1,.94-1.55H77.41c.53,0,1.23.08,1.93.1l7.55,13.72c1.08,1.95,2,4.48,3.32,6.26-.22.45-.42.89-.61,1.23l-4.41,8-1.63,3A57.88,57.88,0,0,1,48.13,134.17Zm40.09,16.64,5.65-10.25.24,0c6.68.08,13.35,0,20,0,.75,0,1.6.09,2.41.06l1.16,2.1a57,57,0,0,1-29.48,8.08Zm33.24-10.49c-.36-.67-.73-1.33-1.1-2L131.6,117.9h9.27A61.86,61.86,0,0,1,121.46,140.32Z"/><rect class="cls-2" width="177" height="177"/></g></g></svg>