<svg xmlns="http://www.w3.org/2000/svg" viewBox="0 0 177 177"><defs><style>.cls-1{fill:#5c8f8e;}.cls-2{fill:none;}</style></defs><title>new-moisturizer</title><g id="Layer_2" data-name="Layer 2"><g id="Layer_4" data-name="Layer 4"><g id="Moisturizer"><path class="cls-1" d="M120,73.8H25.59a.07.07,0,0,1-.07-.07V60.81A4.42,4.42,0,0,1,30,56.39h85.71a4.42,4.42,0,0,1,4.42,4.42V73.73A.07.07,0,0,1,120,73.8ZM27.75,71.64h90.1a.07.07,0,0,0,.07-.07V60.81a2.26,2.26,0,0,0-2.26-2.26H29.94a2.26,2.26,0,0,0-2.26,2.26V71.57A.07.07,0,0,0,27.75,71.64Z"/><path class="cls-1" d="M120,74.32H25.06L25,73.73V60.82a5,5,0,0,1,5-5h85.71a5,5,0,0,1,5,5V74.25Zm-94-1h93.5V60.81a3.89,3.89,0,0,0-3.89-3.89H30a3.91,3.91,0,0,0-3.9,3.9Zm91.8-1.1H27.22l-.07-.6V60.81A2.79,2.79,0,0,1,29.94,58h85.72a2.79,2.79,0,0,1,2.79,2.8V72.1Zm-89.65-1h89.2V60.82a1.74,1.74,0,0,0-1.74-1.75H29.94a1.74,1.74,0,0,0-1.74,1.74Z"/><path class="cls-1" d="M124.86,143.77H17.15a5.08,5.08,0,0,1-5.09-5.08v-62a5.09,5.09,0,0,1,5.09-5.08H124.86A5.09,5.09,0,0,1,130,76.73v62A5.08,5.08,0,0,1,124.86,143.77ZM17.15,73.8a2.93,2.93,0,0,0-2.93,2.93v62a2.93,2.93,0,0,0,2.93,2.93H124.86a2.93,2.93,0,0,0,2.93-2.93v-62a2.92,2.92,0,0,0-2.92-2.92Z"/><path class="cls-1" d="M124.86,144.3H17.15a5.61,5.61,0,0,1-5.61-5.61v-62a5.61,5.61,0,0,1,5.61-5.6H124.86a5.62,5.62,0,0,1,5.62,5.61v62A5.62,5.62,0,0,1,124.86,144.3ZM17.15,72.17a4.56,4.56,0,0,0-4.56,4.55v62a4.56,4.56,0,0,0,4.56,4.56H124.86a4.56,4.56,0,0,0,4.56-4.56v-62a4.56,4.56,0,0,0-4.56-4.56Zm107.71,70H17.15a3.46,3.46,0,0,1-3.46-3.45v-62a3.46,3.46,0,0,1,3.46-3.45H124.87a3.46,3.46,0,0,1,3.45,3.45v62A3.46,3.46,0,0,1,124.86,142.14ZM17.15,74.32a2.4,2.4,0,0,0-2.4,2.4v62a2.4,2.4,0,0,0,2.4,2.4H124.86a2.41,2.41,0,0,0,2.41-2.4v-62a2.41,2.41,0,0,0-2.4-2.4Z"/><path class="cls-1" d="M38,58.27l-1.22-1.6a.08.08,0,0,1,0-.1c1.31-1,19.76-14.52,42.86-12.74,15.29,1.18,24.23-5.22,28.26-9.25a4.29,4.29,0,0,1,3.78-1.29,4,4,0,0,1,3.12,2.78c3.84,12.18.38,19-2.07,22a.07.07,0,0,1-.1,0L111,56.83a.08.08,0,0,1,0-.1c5-6.17,3.21-15.18,1.69-20a1.89,1.89,0,0,0-1.37-1.28,1.86,1.86,0,0,0-1.8.52c-4.23,4.29-13.76,11.29-30.1,10C57.4,44.29,39.16,57.47,38.06,58.29A.08.08,0,0,1,38,58.27Z"/><path class="cls-1" d="M37.94,59l-.4-.43-1.54-2,.43-.41c.8-.6,19.75-14.66,43.22-12.84,15.14,1.15,23.95-5.21,27.85-9.1a4.8,4.8,0,0,1,4.25-1.44,4.58,4.58,0,0,1,3.52,3.14c3.92,12.44.33,19.45-2.16,22.52l-.33.4-.51-.31-2-1.61.31-.51c4.85-6,3.08-14.8,1.59-19.53a1.37,1.37,0,0,0-2.29-.55c-4.29,4.35-14,11.47-30.51,10.19-22-1.68-40.27,11.63-41,12.2Zm-.5-2.3.67.88c2.82-2,20.45-13.75,41.38-12.14C95.62,46.7,105,39.8,109.17,35.58a2.43,2.43,0,0,1,4,1c1.52,4.83,3.31,13.79-1.5,20.14l.86.7c2.33-3.08,5.31-9.68,1.69-21.17a3.47,3.47,0,0,0-2.71-2.42A3.77,3.77,0,0,0,108.24,35c-4,4-13.12,10.61-28.67,9.41C58,42.71,40.29,54.67,37.44,56.72Z"/><rect class="cls-1" x="51.99" y="38.85" width="2.16" height="52.93" rx="0.07" transform="matrix(0.01, -1, 1, 0.01, -12.7, 117.83)"/><path class="cls-1" d="M79.44,67.15l-53-.45-.36-.34,0-.27,0-2.53.6-.07,53,.45.36.34v.27l0,2.22-.33.36Zm-52.32-1.5L79,66.09V65l-51.88-.44Z"/><rect class="cls-1" x="92.98" y="64.24" width="26.02" height="2.16" rx="0.07" transform="translate(-1.09 1.8) rotate(-0.97)"/><path class="cls-1" d="M92.55,67.15l-.07-.59,0-2.54.59-.08,26.41-.46.08.59,0,2.54-.59.09Zm1-2.17,0,1.11,25-.44,0-1.1Z"/><path class="cls-1" d="M129.88,128.52H12.13a.07.07,0,0,1-.07-.07V87.86a.07.07,0,0,1,.07-.07H129.88a.07.07,0,0,1,.07.07v40.59A.07.07,0,0,1,129.88,128.52ZM14.29,126.37H127.72a.08.08,0,0,0,.07-.07V90a.07.07,0,0,0-.07-.07H14.29a.07.07,0,0,0-.07.07V126.3A.08.08,0,0,0,14.29,126.37Z"/><path class="cls-1" d="M129.88,129.05H11.61l-.07-.6V87.33l.59-.07H130.4l.08.6V129ZM12.59,128H129.42V88.32H12.59Zm115.13-1.11h-114l-.07-.59V89.49l.6-.07h114l.07.6v36.8Zm-113-1H127.27V90.47H14.75Z"/><path class="cls-1" d="M154.8,143.77H141.49a3.83,3.83,0,0,1-3.83-3.83V53a3.84,3.84,0,0,1,3.83-3.83H154.8a10.14,10.14,0,0,1,10.14,10.14v74.29A10.13,10.13,0,0,1,154.8,143.77Zm-13.31-92.4A1.67,1.67,0,0,0,139.82,53v86.9a1.68,1.68,0,0,0,1.67,1.68H154.8a8,8,0,0,0,8-8V59.35a8,8,0,0,0-8-8Z"/><path class="cls-1" d="M154.8,144.3H141.49a4.36,4.36,0,0,1-4.36-4.36V53a4.36,4.36,0,0,1,4.36-4.35H154.8a10.67,10.67,0,0,1,10.66,10.66v74.29A10.67,10.67,0,0,1,154.8,144.3ZM141.49,49.74a3.3,3.3,0,0,0-3.3,3.3v86.9a3.31,3.31,0,0,0,3.3,3.31H154.8a9.62,9.62,0,0,0,9.61-9.61V59.35a9.62,9.62,0,0,0-9.61-9.61Zm13.31,92.4H141.49a2.2,2.2,0,0,1-2.2-2.2V53a2.21,2.21,0,0,1,2.2-2.2H154.8a8.52,8.52,0,0,1,8.51,8.51v74.29A8.51,8.51,0,0,1,154.8,142.14ZM141.49,51.89A1.16,1.16,0,0,0,140.34,53v86.9a1.15,1.15,0,0,0,1.15,1.15H154.8a7.46,7.46,0,0,0,7.45-7.45V59.35a7.46,7.46,0,0,0-7.45-7.46Z"/><path class="cls-1" d="M69.8,116.91a2,2,0,0,0,2.8,0l7.56-7.56c6.66-6.65-2.25-15.59-8.91-9a.07.07,0,0,1-.1,0c-6.1-6-15,2.92-8.91,9Z"/></g><rect class="cls-2" width="177" height="177"/></g></g></svg>