<svg xmlns="http://www.w3.org/2000/svg" viewBox="0 0 45.59 45.59"><defs><style>.cls-1{fill:#f9b5a2;}</style></defs><title>scroll-back-to-top</title><g id="Layer_2" data-name="Layer 2"><g id="Layer_4" data-name="Layer 4"><path class="cls-1" d="M22.79,0a22.8,22.8,0,1,0,22.8,22.79A22.79,22.79,0,0,0,22.79,0ZM33.47,26.87l-5.7-4.27-3.91-2.94c-.26-.19-.71-.44-1.06-.68-.43.32-1.06.68-1.35.89L17.81,22.6l-5.69,4.27c-1.47,1.1-2.89-1.37-1.44-2.46l11.39-8.54a1.34,1.34,0,0,1,1.44,0l11.4,8.54C36.36,25.5,34.94,28,33.47,26.87Z"/></g></g></svg>