<svg xmlns="http://www.w3.org/2000/svg" viewBox="0 0 177 177"><defs><style>.cls-1{fill:#5c8f8e;}.cls-2{fill:none;}</style></defs><title>new-serums</title><g id="Layer_2" data-name="Layer 2"><g id="Layer_4" data-name="Layer 4"><g id="serum"><path class="cls-1" d="M94,51.1a2.35,2.35,0,0,1-1.71-.75L80.88,38.29a2.69,2.69,0,0,1,0-3.62l5.59-5.92a2.36,2.36,0,0,1,3.41,0l11.37,12.06a2.66,2.66,0,0,1,0,3.61l-5.59,5.93A2.33,2.33,0,0,1,94,51.1ZM88.17,30.22a.31.31,0,0,0-.22.1l-5.59,5.92a.33.33,0,0,0-.09.24.32.32,0,0,0,.09.24L93.73,48.78a.27.27,0,0,0,.45,0l5.59-5.93a.36.36,0,0,0,0-.48l-11.37-12A.33.33,0,0,0,88.17,30.22Z"/><path class="cls-1" d="M94,51.62a2.84,2.84,0,0,1-2.09-.91L80.5,38.65a3.19,3.19,0,0,1,0-4.34l5.59-5.92a2.84,2.84,0,0,1,2.08-.89h0a2.85,2.85,0,0,1,2.09.89l11.37,12a3.2,3.2,0,0,1,0,4.34l-5.58,5.93A2.86,2.86,0,0,1,94,51.62ZM88.17,28.55h0a1.81,1.81,0,0,0-1.32.56L81.27,35a2.08,2.08,0,0,0-.57,1.45,2.12,2.12,0,0,0,.56,1.45L92.64,50a1.83,1.83,0,0,0,2.64,0l5.59-5.93a2.14,2.14,0,0,0,0-2.89L89.5,29.11A1.82,1.82,0,0,0,88.17,28.55ZM94,49.43a.88.88,0,0,1-.61-.29L82,37.08a.87.87,0,0,1-.24-.6.89.89,0,0,1,.24-.6L87.57,30a.84.84,0,0,1,1.21,0l11.37,12a.88.88,0,0,1,0,1.2l-5.59,5.93A.84.84,0,0,1,94,49.43Zm-11.1-13L94,48.25l5.31-5.64L88.17,30.85Zm-.11.12Zm0-.24ZM88,30.68Zm.31,0Z"/><path class="cls-1" d="M44.51,91.76a2.59,2.59,0,0,1-1.9-.83,3,3,0,0,1,0-4l2.25-2.39a6.67,6.67,0,0,0,1.52-2.6l1.49-4.74a5.07,5.07,0,0,1,1.15-2L83.84,38.29l8.42,8.92L57.44,84.14a4.86,4.86,0,0,1-1.86,1.22l-4.47,1.58a6.23,6.23,0,0,0-2.45,1.61l-2.25,2.38A2.59,2.59,0,0,1,44.51,91.76ZM83.84,41.42,50.5,76.78a2.88,2.88,0,0,0-.65,1.11l-1.49,4.73a8.71,8.71,0,0,1-2,3.47l-2.25,2.39a.65.65,0,0,0,0,.88.58.58,0,0,0,.84,0L47.18,87a8.37,8.37,0,0,1,3.27-2.15l4.47-1.58a2.54,2.54,0,0,0,1-.68L89.3,47.21Z"/><path class="cls-1" d="M44.51,92.29a3.1,3.1,0,0,1-2.28-1,3.51,3.51,0,0,1,0-4.74l2.25-2.39a6.36,6.36,0,0,0,1.4-2.4L47.37,77a5.6,5.6,0,0,1,1.26-2.18L83.84,37.52,93,47.21,57.82,84.5a5.37,5.37,0,0,1-2.07,1.36l-4.47,1.58A5.61,5.61,0,0,0,49,88.91l-2.25,2.38A3.08,3.08,0,0,1,44.51,92.29ZM83.84,39.05,49.4,75.57a4.69,4.69,0,0,0-1,1.77l-1.49,4.74a7.47,7.47,0,0,1-1.63,2.81L43,87.27a2.43,2.43,0,0,0,0,3.3,2.09,2.09,0,0,0,3,0l2.25-2.38a6.82,6.82,0,0,1,2.66-1.75l4.47-1.58a4.19,4.19,0,0,0,1.65-1.08L91.53,47.21Zm-39.33,51h0a1.08,1.08,0,0,1-.8-.35,1.17,1.17,0,0,1,0-1.6L46,85.73a8.42,8.42,0,0,0,1.9-3.26l1.49-4.74a3.58,3.58,0,0,1,.76-1.31L83.84,40.66,90,47.21,56.34,82.93a3.24,3.24,0,0,1-1.25.82l-4.47,1.58a7.78,7.78,0,0,0-3.06,2l-2.25,2.38A1.08,1.08,0,0,1,44.51,90.07ZM83.84,42.19l-33,35a2.2,2.2,0,0,0-.52.9l-1.49,4.74a9.66,9.66,0,0,1-2.14,3.67l-2.25,2.39a.12.12,0,0,0,0,.16l2.31-2.38a8.82,8.82,0,0,1,3.48-2.28l4.47-1.58a2.08,2.08,0,0,0,.83-.55l33-35Z"/><path class="cls-1" d="M99.49,42.07,88.78,30.72l5.08-2.9A10.46,10.46,0,0,0,96.18,26l6.37-6.76a4.93,4.93,0,0,1,7.27,0,5.69,5.69,0,0,1,0,7.7l-6,6.38a10.49,10.49,0,0,0-2.13,3.32ZM92.25,31.26l6.53,6.93,1-2.43a12.73,12.73,0,0,1,2.57-4l6-6.38a3.37,3.37,0,0,0,0-4.56,2.92,2.92,0,0,0-4.31,0l-6.37,6.76a12.28,12.28,0,0,1-2.81,2.22Z"/><path class="cls-1" d="M99.67,43,87.94,30.6l5.66-3.24a9.39,9.39,0,0,0,2.2-1.73l6.37-6.76a5.44,5.44,0,0,1,8,0,6.2,6.2,0,0,1,0,8.42l-6,6.38a10,10,0,0,0-2,3.16Zm-10-12.18,9.69,10.27,1.89-4.69a11,11,0,0,1,2.22-3.49l6-6.37a5.16,5.16,0,0,0,0-7,4.41,4.41,0,0,0-6.5,0l-6.38,6.76a10.81,10.81,0,0,1-2.44,1.93ZM99,39.14l-7.55-8,3.18-1.82a11.92,11.92,0,0,0,2.69-2.12l6.37-6.76a3.52,3.52,0,0,1,5.07,0,3.87,3.87,0,0,1,0,5.28l-6,6.38A12.23,12.23,0,0,0,100.25,36Zm-5.87-7.75,5.51,5.84.67-1.67a13.16,13.16,0,0,1,2.67-4.18L108,25a2.74,2.74,0,0,0,.75-1.92,2.78,2.78,0,0,0-.74-1.92,2.45,2.45,0,0,0-3.54,0L98,27.92a12.82,12.82,0,0,1-2.93,2.31Z"/><path class="cls-1" d="M122.84,147.37H81.13A7.42,7.42,0,0,1,74,139.75V86.22c0-7.68,5.89-13.93,13.13-13.93h3.23V65.85a2.17,2.17,0,0,1,2.1-2.23h19.15a2.17,2.17,0,0,1,2.1,2.23v6.44h3.23c7.24,0,13.13,6.25,13.13,13.93v53.53A7.42,7.42,0,0,1,122.84,147.37ZM87.08,74.51c-6.09,0-11,5.25-11,11.71v53.53a5.25,5.25,0,0,0,5.09,5.4h41.71a5.25,5.25,0,0,0,5.09-5.4V86.22c0-6.46-5-11.71-11-11.71h-5.32V65.85H92.4v8.66Z"/><path class="cls-1" d="M122.84,147.9H81.13a8,8,0,0,1-7.71-8.15V86.22c0-8,6.13-14.46,13.66-14.46h2.7v-5.9a2.7,2.7,0,0,1,2.63-2.77h19.15a2.7,2.7,0,0,1,2.63,2.77v5.9h2.7c7.53,0,13.66,6.49,13.66,14.46v53.53A8,8,0,0,1,122.84,147.9ZM87.08,72.82c-7,0-12.6,6-12.6,13.4v53.53a6.89,6.89,0,0,0,6.65,7.09h41.71a6.89,6.89,0,0,0,6.66-7.09V86.22c0-7.39-5.66-13.4-12.61-13.4h-3.75v-7a1.66,1.66,0,0,0-1.58-1.72H92.41a1.66,1.66,0,0,0-1.58,1.72v7Zm35.76,72.86H81.13a5.78,5.78,0,0,1-5.61-5.93V86.22C75.52,79.47,80.7,74,87.08,74h4.79V65.33l.54,0,19.69,0V74h4.79c6.38,0,11.56,5.48,11.56,12.23v53.53A5.78,5.78,0,0,1,122.84,145.68ZM87.08,75c-5.8,0-10.51,5-10.51,11.18v53.53a4.72,4.72,0,0,0,4.56,4.87h41.71a4.72,4.72,0,0,0,4.56-4.87V86.22c0-6.17-4.71-11.18-10.51-11.18H111V66.38l-18.11,0V75Z"/><path class="cls-1" d="M74,126.56V89.25H130v36.89ZM76,91.47v32.85l51.89-.38V91.47Z"/><path class="cls-1" d="M73.42,127.09V88.72h57.13v37.94Zm1.06-37.32V126l55-.41V89.77Zm1,35.09V90.94h52.93v33.52Zm1-32.87v31.8l50.83-.38V92Z"/><rect class="cls-1" x="88.08" y="67.09" width="27.81" height="2.22"/><path class="cls-1" d="M116.42,69.83H87.55V66.56h28.87Zm-27.81-1h26.75V67.61H88.61Z"/><path class="cls-1" d="M45.61,129.3C39.75,129.3,35,124.25,35,118a11.81,11.81,0,0,1,1.64-6,2.72,2.72,0,0,1,.24-.58l6.65-11.36A2.18,2.18,0,0,1,45.36,99h0A2.16,2.16,0,0,1,47.24,100l7,11.36a3.42,3.42,0,0,1,.21.43A11.68,11.68,0,0,1,56.24,118C56.24,124.25,51.47,129.3,45.61,129.3Zm-.22-28.12c-.07,0-.09,0-.1.06L38.64,112.6l0,.23-.12.23a9.41,9.41,0,0,0-1.41,5,8.82,8.82,0,0,0,8.54,9,8.81,8.81,0,0,0,8.53-9,9.37,9.37,0,0,0-1.48-5.09l-.09-.14,0-.17a0,0,0,0,0,0,0l-7-11.36A.11.11,0,0,0,45.39,101.18Z"/><path class="cls-1" d="M45.61,129.83c-6.15,0-11.16-5.29-11.16-11.8a12.21,12.21,0,0,1,1.69-6.23,2.35,2.35,0,0,1,.27-.63L43.06,99.8a2.66,2.66,0,0,1,4.62-.06l7,11.37a2.47,2.47,0,0,1,.23.46A12.29,12.29,0,0,1,56.76,118C56.76,124.54,51.76,129.83,45.61,129.83Zm-.22-30.34a1.64,1.64,0,0,0-1.42.84L37.32,111.7a1.57,1.57,0,0,0-.18.44l-.06.14A11.2,11.2,0,0,0,35.5,118c0,5.93,4.54,10.75,10.11,10.75S55.71,124,55.71,118A11.12,11.12,0,0,0,54,112.09l0-.1a2.06,2.06,0,0,0-.17-.33l-7-11.36A1.64,1.64,0,0,0,45.39,99.49Zm.22,28.12A9.34,9.34,0,0,1,36.55,118,9.9,9.9,0,0,1,38,112.79l.16-.45L44.84,101a.57.57,0,0,1,.65-.31.64.64,0,0,1,.44.29l7.17,11.7A9.86,9.86,0,0,1,54.67,118,9.35,9.35,0,0,1,45.61,127.61Zm-6.47-14.83-.07.29-.13.24A9,9,0,0,0,37.6,118a8.29,8.29,0,0,0,8,8.53,8.3,8.3,0,0,0,8-8.53,8.92,8.92,0,0,0-1.4-4.81l-.19-.39L45.4,102.09Z"/><path class="cls-1" d="M100.52,115.86a1.44,1.44,0,0,0,2.12,0l6-6.31c5.22-5.53-1.79-13-7-7.43-4.77-5.07-11.78,2.37-7,7.43Z"/></g><rect class="cls-2" width="177" height="177"/></g></g></svg>