<svg xmlns="http://www.w3.org/2000/svg" viewBox="0 0 427.85 98.85"><defs><style>.cls-1{fill:#f0bb69;}.cls-2{fill:#f4f2f1;}</style></defs><title>new-cleanser_1</title><g id="Layer_2" data-name="Layer 2"><g id="Layer_5" data-name="Layer 5"><g id="serum"><path class="cls-1" d="M194,32.82a1.29,1.29,0,0,1-.93-.41l-6.2-6.58a1.45,1.45,0,0,1,0-2L190,20.62a1.29,1.29,0,0,1,1.86,0L198,27.2a1.46,1.46,0,0,1,0,2L195,32.41A1.29,1.29,0,0,1,194,32.82Zm-3.15-11.4a.2.2,0,0,0-.13,0l-3,3.24a.16.16,0,0,0-.06.13.17.17,0,0,0,.06.13l6.2,6.58a.15.15,0,0,0,.25,0l3.05-3.23a.2.2,0,0,0,0-.26L191,21.47A.17.17,0,0,0,190.89,21.42Z"/><path class="cls-1" d="M194,33a1.49,1.49,0,0,1-1.09-.48L186.75,26a1.67,1.67,0,0,1,0-2.28l3.05-3.23a1.48,1.48,0,0,1,1.09-.47h0a1.5,1.5,0,0,1,1.09.47l6.2,6.58a1.66,1.66,0,0,1,0,2.27l-3,3.24A1.51,1.51,0,0,1,194,33Zm-3.15-12.6h0a1,1,0,0,0-.77.33L187.07,24a1.23,1.23,0,0,0,0,1.68l6.2,6.58a1.08,1.08,0,0,0,1.55,0L197.87,29a1.24,1.24,0,0,0,0-1.67l-6.21-6.58A1.07,1.07,0,0,0,190.89,20.44ZM194,31.84a.4.4,0,0,1-.28-.14l-6.2-6.58a.38.38,0,0,1-.11-.28.36.36,0,0,1,.11-.28l3.05-3.24a.4.4,0,0,1,.56,0l6.21,6.59a.43.43,0,0,1,0,.56l-3,3.23A.4.4,0,0,1,194,31.84Zm-3.15-10.18-3,3.2,6.17,6.5,3-3.19Z"/><path class="cls-1" d="M167.06,55a1.43,1.43,0,0,1-1-.45,1.63,1.63,0,0,1,0-2.2l1.23-1.3a3.61,3.61,0,0,0,.82-1.42l.82-2.58a2.71,2.71,0,0,1,.62-1.08l19-20.16,4.6,4.88-19,20.15a2.63,2.63,0,0,1-1,.67l-2.44.86a3.33,3.33,0,0,0-1.34.88l-1.23,1.3A1.41,1.41,0,0,1,167.06,55Zm21.46-27.47-18.2,19.3a1.44,1.44,0,0,0-.35.6L169.16,50a4.88,4.88,0,0,1-1.11,1.89l-1.22,1.3a.34.34,0,0,0,0,.48.31.31,0,0,0,.45,0l1.23-1.3a4.64,4.64,0,0,1,1.78-1.17l2.44-.86a1.56,1.56,0,0,0,.57-.37l18.2-19.3Z"/><path class="cls-1" d="M167.06,55.23a1.62,1.62,0,0,1-1.2-.52,1.85,1.85,0,0,1,0-2.5l1.23-1.3a3.49,3.49,0,0,0,.78-1.33l.81-2.59a3,3,0,0,1,.68-1.16L188.52,25.5l4.9,5.2L174.27,51a2.74,2.74,0,0,1-1.1.72l-2.44.87a3.13,3.13,0,0,0-1.25.82l-1.23,1.3A1.61,1.61,0,0,1,167.06,55.23Zm21.46-29.09-18.85,20a2.52,2.52,0,0,0-.57,1l-.82,2.59a3.9,3.9,0,0,1-.87,1.5l-1.23,1.3a1.41,1.41,0,0,0,0,1.9,1.21,1.21,0,0,0,1.75,0l1.23-1.3a3.72,3.72,0,0,1,1.42-.94l2.44-.86a2.29,2.29,0,0,0,.93-.61l18.87-20ZM167.06,54h0a.52.52,0,0,1-.38-.17.58.58,0,0,1,0-.78l1.23-1.3A4.76,4.76,0,0,0,169,50l.81-2.59a1.8,1.8,0,0,1,.4-.68l18.36-19.47,3.28,3.48L173.46,50.15a1.62,1.62,0,0,1-.65.42l-2.44.87a4.26,4.26,0,0,0-1.7,1.11l-1.23,1.3A.52.52,0,0,1,167.06,54Zm21.46-26.16L170.48,47a1.38,1.38,0,0,0-.3.51l-.81,2.59a5.26,5.26,0,0,1-1.16,2L167,53.37a.13.13,0,0,0,0,.18s.06,0,.07,0a.07.07,0,0,0,.06,0l1.23-1.3A4.84,4.84,0,0,1,170.22,51l2.44-.86a1.17,1.17,0,0,0,.48-.31L191.2,30.7Z"/><path class="cls-1" d="M197.06,27.89l-5.84-6.19L194,20.11a5.29,5.29,0,0,0,1.27-1l3.48-3.69a2.69,2.69,0,0,1,4,0,3.11,3.11,0,0,1,0,4.21l-3.28,3.48a5.9,5.9,0,0,0-1.16,1.81ZM193.11,22l3.57,3.78.53-1.33a7.07,7.07,0,0,1,1.4-2.19l3.28-3.48a1.79,1.79,0,0,0,.49-1.25,1.76,1.76,0,0,0-.49-1.24,1.61,1.61,0,0,0-1.17-.52,1.65,1.65,0,0,0-1.18.52L196.07,20a6.63,6.63,0,0,1-1.54,1.21Z"/><path class="cls-1" d="M197.14,28.29l-6.27-6.65,3-1.72a5.12,5.12,0,0,0,1.22-1l3.48-3.69a2.91,2.91,0,0,1,4.28,0,3.24,3.24,0,0,1,.88,2.25,3.29,3.29,0,0,1-.88,2.26l-3.28,3.48A5.59,5.59,0,0,0,198.46,25Zm-5.57-6.54L197,27.49l1.07-2.65a5.86,5.86,0,0,1,1.2-1.88l3.28-3.48a2.86,2.86,0,0,0,.76-2,2.82,2.82,0,0,0-.76-1.95,2.47,2.47,0,0,0-3.64,0l-3.48,3.69a6,6,0,0,1-1.32,1Zm5.18,4.42-4-4.23,1.66-1a6.47,6.47,0,0,0,1.49-1.17l3.48-3.69a1.79,1.79,0,0,1,2.66,0,2,2,0,0,1,0,2.79l-3.28,3.48a6.86,6.86,0,0,0-1.36,2.13ZM193.46,22l3.14,3.33.41-1a7.2,7.2,0,0,1,1.44-2.26l3.28-3.48a1.61,1.61,0,0,0,0-2.19,1.4,1.4,0,0,0-2,0l-3.48,3.69a7.08,7.08,0,0,1-1.58,1.25Z"/><path class="cls-1" d="M209.81,85.36H187a4,4,0,0,1-3.92-4.15V52a7.41,7.41,0,0,1,7.17-7.6h1.76V40.87a1.19,1.19,0,0,1,1.15-1.22h10.45a1.19,1.19,0,0,1,1.15,1.22v3.52h1.76a7.41,7.41,0,0,1,7.17,7.6V81.21A4,4,0,0,1,209.81,85.36ZM190.29,45.6a6.22,6.22,0,0,0-6,6.39V81.21A2.86,2.86,0,0,0,187,84.15h22.77a2.87,2.87,0,0,0,2.78-2.94V52a6.22,6.22,0,0,0-6-6.39h-2.9V40.87H193.19V45.6Z"/><path class="cls-1" d="M209.81,85.58H187a4.27,4.27,0,0,1-4.14-4.37V52a7.62,7.62,0,0,1,7.39-7.82h1.54v-3.3a1.41,1.41,0,0,1,1.37-1.44h10.45A1.41,1.41,0,0,1,205,40.87v3.3h1.54A7.61,7.61,0,0,1,214,52V81.21A4.27,4.27,0,0,1,209.81,85.58Zm-19.52-41A7.19,7.19,0,0,0,183.34,52V81.21a3.83,3.83,0,0,0,3.7,3.94h22.77a3.83,3.83,0,0,0,3.7-3.94V52a7.19,7.19,0,0,0-6.95-7.39h-2V40.87a1,1,0,0,0-.93-1H193.2a1,1,0,0,0-.93,1V44.6Zm19.52,39.77H187a3.08,3.08,0,0,1-3-3.16V52a6.44,6.44,0,0,1,6.24-6.61H193V40.65h10.9v4.73h2.68A6.45,6.45,0,0,1,212.81,52V81.21A3.09,3.09,0,0,1,209.81,84.37ZM190.29,45.82A6,6,0,0,0,184.48,52V81.21A2.65,2.65,0,0,0,187,83.93h22.77a2.65,2.65,0,0,0,2.56-2.72V52a6,6,0,0,0-5.81-6.17h-3.12V41.09h-10v4.74Z"/><path class="cls-1" d="M183.12,74V53.64h30.61V73.78Zm1.15-19.16V72.79l28.32-.22V54.85Z"/><path class="cls-1" d="M182.9,74.23V53.42h31V74Zm.44-20.37V73.79l30.17-.23V53.86ZM184.05,73V54.63h28.76V72.79Zm.43-17.94v17.5l27.89-.21V55.07Z"/><rect class="cls-1" x="190.84" y="41.54" width="15.18" height="1.21"/><path class="cls-1" d="M206.23,43H190.62V41.33h15.61Zm-15.17-.44H205.8v-.78H191.06Z"/><path class="cls-1" d="M167.65,75.5a6,6,0,0,1-5.8-6.15,6.34,6.34,0,0,1,.9-3.28,1.13,1.13,0,0,1,.13-.32l3.63-6.2a1.18,1.18,0,0,1,1-.61h0a1.19,1.19,0,0,1,1,.58l3.84,6.2a1.75,1.75,0,0,1,.11.24,6.36,6.36,0,0,1,1,3.39A6,6,0,0,1,167.65,75.5Zm-.12-15.35s0,0-.05,0l-3.63,6.2,0,.12-.07.13a5.14,5.14,0,0,0-.77,2.71,4.67,4.67,0,1,0,9.32,0,5.1,5.1,0,0,0-.81-2.78l-.05-.08,0-.09h0l-3.83-6.21S167.57,60.15,167.53,60.15Z"/><path class="cls-1" d="M167.65,75.72a6.21,6.21,0,0,1-6-6.37,6.61,6.61,0,0,1,.92-3.37,1.28,1.28,0,0,1,.14-.34l3.63-6.2a1.39,1.39,0,0,1,2.41,0l3.83,6.21a2,2,0,0,1,.13.25,6.63,6.63,0,0,1,1,3.49A6.21,6.21,0,0,1,167.65,75.72Zm-.12-16.56a1,1,0,0,0-.83.5l-3.63,6.2a1,1,0,0,0-.11.26l0,.06a6.17,6.17,0,0,0-.87,3.17,5.6,5.6,0,1,0,11.17,0,6.28,6.28,0,0,0-.93-3.28l0,0a1.14,1.14,0,0,0-.1-.19l-3.83-6.21A1,1,0,0,0,167.53,59.16Zm.12,15.35a5,5,0,0,1-4.87-5.16,5.31,5.31,0,0,1,.8-2.83l0-.08,0-.16,3.63-6.2a.24.24,0,0,1,.29-.14.32.32,0,0,1,.19.12l3.92,6.39a5.36,5.36,0,0,1,.84,2.9A5,5,0,0,1,167.65,74.51Zm-3.59-8.05,0,.15-.07.13a5,5,0,0,0-.74,2.61,4.45,4.45,0,1,0,8.88,0,4.88,4.88,0,0,0-.77-2.66l-.08-.14,0-.09-3.68-5.94Zm3.62-6.19v0Z"/><path class="cls-1" d="M197.63,68.17a.79.79,0,0,0,1.15,0L202,64.72c2.85-3-1-7.08-3.82-4.06-2.61-2.76-6.44,1.3-3.83,4.06Z"/></g><path class="cls-1" d="M40.8,7.25H79.49a16.52,16.52,0,0,1,2.9,0c2.1.41,1.39,2.34,1.22,3.76l-1.06,8.87L79.26,47.54,76.38,71.77c-.15,1.23,0,3.17-.51,4.32s-2.32.94-3.39.94H52.79c-1.8,0-4.64.67-5.21-1.53A50.81,50.81,0,0,1,46.81,69L45.42,57.3,39.73,9.5c-.11-.91-.45-2,1.25-2.27.83-.12.48-1.39-.35-1.27-2.8.39-2.29,2.89-2.05,4.88l1.13,9.55,3.54,29.72,2.82,23.66c.22,1.9.15,4.21,2.59,4.55,3,.42,6.25,0,9.23,0H72.21c2.17,0,4.54.29,5-2.48,1-6.13,1.48-12.4,2.21-18.57L83,27l1.46-12.23c.23-2,.68-4,.71-6,0-2.65-2.06-2.83-4.09-2.83H40.8A.66.66,0,0,0,40.8,7.25Z"/><path class="cls-1" d="M50,78.35h23.5l-.66-.66V89.54l.66-.66H50l.66.66V77.69a.66.66,0,0,0-1.32,0V89.54a.67.67,0,0,0,.66.66h23.5a.67.67,0,0,0,.66-.66V77.69a.67.67,0,0,0-.66-.66H50A.66.66,0,0,0,50,78.35Z"/><path class="cls-1" d="M49.35,89.54c0,2.56-.14,5.1,3.11,5.21,3.09.11,6.21,0,9.3,0s6.16.09,9.23,0c3.28-.09,3.18-2.6,3.18-5.21a.66.66,0,0,0-1.32,0c0,1.34.46,3.43-1.4,3.9a7.13,7.13,0,0,1-1.6,0h-16a5.9,5.9,0,0,1-1.73,0c-1.75-.65-1.4-2.46-1.4-3.9a.66.66,0,0,0-1.32,0Z"/><path class="cls-1" d="M62.23,85.24a4.46,4.46,0,0,0-4.42,4.3.67.67,0,0,0,.66.66H66a.67.67,0,0,0,.66-.66,4.46,4.46,0,0,0-4.42-4.3c-.84,0-.84,1.27,0,1.31a3.11,3.11,0,0,1,3.1,3l.66-.66H58.47l.66.66a3.12,3.12,0,0,1,3.1-3C63.07,86.51,63.08,85.19,62.23,85.24Z"/><path class="cls-1" d="M39.36,12.53h44.8a.66.66,0,0,0,0-1.31H39.36a.66.66,0,0,0,0,1.31Z"/><path class="cls-1" d="M46.25,19.49h31l-.65-.66L74.73,33.94l.66-.66H48.13l.66.66L46.91,18.83c-.11-.83-1.42-.84-1.32,0l1.88,15.11a.69.69,0,0,0,.66.66H75.39a.69.69,0,0,0,.66-.66l1.88-15.11a.66.66,0,0,0-.66-.65h-31A.66.66,0,0,0,46.25,19.49Z"/><path class="cls-1" d="M60.92,55a1.29,1.29,0,0,0,1.8,0L67.78,50c4.44-4.44-1.52-10.4-6-6-4.06-4.06-10,1.9-6,6Z"/><path class="cls-1" d="M14.67,1.54h13c1,0,1.76-.3,2,.68.21.73.36,4-.36,4.39-1,.56-2.63-.47-3.68.32S25,9.08,25,10.09v4.47l.66-.66h-15l.65.66V8.63c0-2.83-.58-6.8,3.41-7.09.84-.06.84-1.37,0-1.31C11.05.49,10,3.17,10,6.35v8.21a.66.66,0,0,0,.66.65h15a.67.67,0,0,0,.66-.65V9.7c0-.59-.22-1.45.35-1.78s1.85,0,2.45,0C30.61,7.81,31,7,31,5.64s.41-3.28-.16-4.48c-.44-.92-1.32-.92-2.2-.93-1.7,0-3.4,0-5.1,0H14.67A.66.66,0,0,0,14.67,1.54Z"/><path class="cls-1" d="M25.65,15.43h-15a.89.89,0,0,1-.88-.87V6.35c0-3.92,1.61-6,4.79-6.33H25.25c1.11,0,2.27,0,3.4,0h.05c.87,0,1.86,0,2.35,1.06a7.26,7.26,0,0,1,.24,3.48c0,.4-.06.78-.07,1.1,0,1.21-.28,2.36-2.09,2.49a6.26,6.26,0,0,1-.91-.05,3.26,3.26,0,0,0-1.45,0c-.31.18-.31.6-.27,1.18,0,.14,0,.28,0,.41v4.86A.88.88,0,0,1,25.65,15.43ZM24.86,15h.79a.46.46,0,0,0,.44-.44v-.79ZM11.48,15H24.77v-.88H11.48Zm-1.31-1.23v.79a.45.45,0,0,0,.44.44h.78Zm15-.09h.88v-4c0-.12,0-.25,0-.38,0-.56-.09-1.26.48-1.59a3.28,3.28,0,0,1,1.72-.08,4.33,4.33,0,0,0,.83,0c1.24-.09,1.66-.61,1.69-2.06,0-.34,0-.72.07-1.12a7.2,7.2,0,0,0-.2-3.26c-.38-.79-1.11-.8-2-.81h-.05c-1.13,0-2.29,0-3.4,0H15.43a.94.94,0,0,1,0,.82l0,.05H27.65l.55,0c.7,0,1.43-.09,1.7.86.18.63.44,4.13-.46,4.64a2.87,2.87,0,0,1-1.82.12,2.42,2.42,0,0,0-1.84.18c-.67.51-.63,1.51-.59,2.4,0,.21,0,.41,0,.59Zm-13.73,0H24.77V10.09c0-.18,0-.37,0-.57-.05-.95-.1-2.13.76-2.77a2.85,2.85,0,0,1,2.16-.27,2.54,2.54,0,0,0,1.54-.06c.53-.29.52-3.24.26-4.14-.17-.59-.51-.59-1.26-.54l-.57,0h-13C11.34,2,11.41,5,11.47,7.64c0,.34,0,.67,0,1Zm-1.31,0H11v-5c0-.32,0-.64,0-1C11,5.13,10.91,2,14,1.41a1,1,0,0,1-.15-.52.88.88,0,0,1,0-.33c-2.46.49-3.7,2.44-3.7,5.79Z"/><path class="cls-1" d="M6.72,27.32v-9.4c0-1.33,0-2.43,1.67-2.71a23.79,23.79,0,0,1,3.68,0H24c1.94,0,6.36-1,6.82,1.68a35.34,35.34,0,0,1,0,5.82v4.61l.66-.66H6.06a.66.66,0,0,0,0,1.32H31.45a.67.67,0,0,0,.65-.66c0-3.53.17-7.09,0-10.61-.16-3.35-3.41-2.81-5.82-2.81H12.79c-2.37,0-7-.92-7.38,2.47-.37,3.57,0,7.35,0,11A.66.66,0,0,0,6.72,27.32Z"/><path class="cls-1" d="M31.45,28.19H6.06a.85.85,0,0,1-.87-.87c0-1.19,0-2.42-.08-3.62a54.59,54.59,0,0,1,.08-7.35C5.5,13.3,9,13.49,11.48,13.63c.48,0,.93,0,1.31,0H27.17c2.22-.06,5-.13,5.15,3,.11,2.35.08,4.76,0,7.09,0,1.18,0,2.36,0,3.53A.88.88,0,0,1,31.45,28.19Zm-.79-.43h.79a.45.45,0,0,0,.43-.44c0-.26,0-.53,0-.79Zm-23.83,0H30.57v-.88H6.94v.44A.87.87,0,0,1,6.83,27.76Zm-1.08-.13a.52.52,0,0,0,.31.1.39.39,0,0,0,.44-.41v-.44H6.06a.4.4,0,0,0-.41.44A.5.5,0,0,0,5.75,27.63ZM9.68,14c-2,0-3.85.37-4.06,2.39a55.48,55.48,0,0,0-.08,7.3c0,.94.07,1.91.08,2.87a.87.87,0,0,1,.44-.12H6.5V17.92c0-1.28,0-2.61,1.86-2.92A11.83,11.83,0,0,1,10.89,15c.41,0,.81.05,1.18.05H24c.36,0,.82,0,1.31-.07,2.25-.17,5.32-.4,5.72,1.92a18.14,18.14,0,0,1,.08,4c0,.65-.07,1.28-.07,1.88v3.73h.88c0-.88,0-1.77,0-2.66,0-2.32.08-4.72,0-7.06-.13-2.73-2.45-2.68-4.7-2.61H12.79c-.39,0-.85,0-1.33,0S10.28,14,9.68,14ZM6.94,26.44H30.57V22.71c0-.62,0-1.24.07-1.91a17.75,17.75,0,0,0-.07-3.87c-.33-1.94-3.18-1.72-5.26-1.57-.5,0-1,.07-1.34.07H12.07c-.39,0-.78,0-1.2,0a11.61,11.61,0,0,0-2.44,0c-1.42.24-1.49,1.06-1.49,2.49Z"/><path class="cls-1" d="M4,28H23.7c3.05,0,6.14-.14,9.18,0,1.57.07,2.87.62,3.08,2.45a13.64,13.64,0,0,1,0,1.43V86.6a43.92,43.92,0,0,1,0,4.59c-.34,3.15-4.1,2.47-6.37,2.47H6a18.49,18.49,0,0,1-2,0c-1.81-.2-2.4-1.45-2.49-3-.33-5.53,0-11.18,0-16.72V47.86c0-5.6-.33-11.32,0-16.92.09-1.5.58-2.8,2.48-3,.84-.08.85-1.39,0-1.32C1,26.92.24,29.15.24,31.71V88.86c0,1.87-.28,3.94,1.37,5.25,1.83,1.47,5.28.86,7.44.86,8,0,15.94.15,23.9,0,5.59-.11,4.32-6.53,4.32-10.37V34.44c0-1.35.1-2.73,0-4.08-.27-3.65-3.48-3.7-6.27-3.7H4A.66.66,0,0,0,4,28Z"/><path class="cls-1" d="M5.61,95.31a6.64,6.64,0,0,1-4.13-1C0,93.06,0,91.28,0,89.56c0-.23,0-.47,0-.7V31.71c0-3.24,1.25-5,3.83-5.25l.17,0H31c2.62,0,6.2,0,6.49,3.91a25,25,0,0,1,0,2.74c0,.45,0,.9,0,1.35V84.6c0,.56,0,1.19.06,1.85.12,2.7.26,5.77-1.35,7.48A4.36,4.36,0,0,1,33,95.19c-5.31.1-10.72.07-15.95,0l-8,0c-.45,0-1,0-1.51.06S6.27,95.31,5.61,95.31ZM3.23,27c-1.89.47-2.77,2-2.77,4.7V88.86c0,.24,0,.47,0,.71,0,1.62-.06,3.29,1.3,4.37s3.81,1,5.76.87c.55,0,1.08-.06,1.54-.06,2.65,0,5.31,0,8,0,5.22,0,10.62.07,15.93,0a3.87,3.87,0,0,0,2.93-1.12c1.48-1.57,1.35-4.54,1.23-7.16,0-.67-.06-1.3-.06-1.87V34.44c0-.45,0-.9,0-1.36a27,27,0,0,0,0-2.7c-.26-3.5-3.33-3.5-6-3.5H4.8a1,1,0,0,1,.08.3,1.08,1.08,0,0,1-.13.58h19l3.05,0c2,0,4.1-.07,6.14,0s3.1,1,3.29,2.64a8.2,8.2,0,0,1,0,1c0,.16,0,.31,0,.47V86.6c0,.49,0,1,0,1.5a21.5,21.5,0,0,1,0,3.11c-.32,2.9-3.33,2.78-5.54,2.7l-1.05,0H5.37a10.29,10.29,0,0,1-1.36,0c-1.66-.19-2.56-1.25-2.68-3.18-.22-3.7-.14-7.5-.07-11.18,0-1.82.07-3.71.07-5.55V47.86c0-1.86,0-3.77-.07-5.62-.08-3.72-.15-7.57.07-11.31.07-1.13.36-2.62,2-3.06a1,1,0,0,1-.17-.55A1.12,1.12,0,0,1,3.23,27ZM6,93.44H29.59l1.07,0c2.26.09,4.81.19,5.08-2.31a22,22,0,0,0,0-3c0-.52,0-1,0-1.52V31.86c0-.16,0-.32,0-.48a5.76,5.76,0,0,0,0-.93c-.16-1.46-1.07-2.17-2.87-2.26-2-.09-4.1-.06-6.11,0l-3.06,0H4c-1.48.14-2.16,1-2.27,2.77-.22,3.72-.15,7.56-.08,11.28,0,1.84.08,3.76.08,5.62V74c0,1.84,0,3.73-.07,5.56-.08,3.67-.15,7.47.07,11.15.1,1.72.83,2.6,2.29,2.76a8,8,0,0,0,1.3,0ZM3.92,26.89a.41.41,0,0,0-.3.43.52.52,0,0,0,.1.31.42.42,0,0,0,.3.13.48.48,0,0,0,.42-.54.34.34,0,0,0-.29-.34H3.92Z"/><path class="cls-1" d="M29.81,75.88h-18c-1.16,0-3,.36-4.08,0-1.39-.44-1-1.92-1-3V45.37a13,13,0,0,1,0-3.47c.49-1.47,1.73-1.16,3-1.16H24.21a29.41,29.41,0,0,1,5.14,0c2.43.45,1.44,5.19,1.44,7V71.94c0,1.08.54,3.69-1.16,4-.83.13-.48,1.4.35,1.26,3.24-.52,2.12-6.2,2.12-8.47V51.51c0-3.18.4-6.63,0-9.79-.24-2-1.68-2.3-3.34-2.3H22.19c-4.72,0-9.55-.29-14.26,0-3.37.21-2.52,4.33-2.52,6.69V62.63c0,4-.22,8,0,12A2.49,2.49,0,0,0,8.09,77.2c2.26.11,4.55,0,6.81,0H29.81A.66.66,0,0,0,29.81,75.88Z"/><path class="cls-1" d="M10.36,77.46c-.76,0-1.52,0-2.28,0a2.71,2.71,0,0,1-2.89-2.77c-.15-2.66-.1-5.39-.05-8,0-1.31.05-2.67.05-4V46.11c0-.37,0-.78-.05-1.22-.11-2.32-.28-5.5,2.77-5.68s6.41-.13,9.55-.07c1.55,0,3.16.06,4.73.06h6.57c1.61,0,3.29.3,3.56,2.49a40.43,40.43,0,0,1,.09,6.61c0,1.06-.09,2.16-.09,3.21V68.7c0,.4,0,.91.08,1.49.18,2.67.46,6.69-2.34,7.19a.93.93,0,0,1-.25,0H14.9l-2.26,0Zm2.32-37.95c-1.59,0-3.17,0-4.74.13-2.62.16-2.48,2.85-2.36,5.23,0,.44,0,.86,0,1.24V62.63c0,1.33,0,2.68,0,4,0,2.63-.1,5.35,0,8A2.27,2.27,0,0,0,8.1,77c1.5.07,3,0,4.53,0l2.27,0H29.1a.93.93,0,0,1-.11-.82.14.14,0,0,0,0-.06H11.83c-.36,0-.78,0-1.23.07a8.07,8.07,0,0,1-2.92-.08c-1.32-.41-1.25-1.65-1.2-2.64,0-.18,0-.37,0-.54V45.37c0-.3,0-.65-.06-1a7.11,7.11,0,0,1,.07-2.5C7,40.42,8.13,40.47,9.14,40.5l.54,0H24.2c.53,0,1.07,0,1.65-.07a16,16,0,0,1,3.54.07c2.14.4,1.88,3.7,1.7,5.89,0,.53-.08,1-.08,1.34V71.94c0,.18,0,.41,0,.66.08,1.08.18,2.61-.69,3.25a.88.88,0,0,1,.31.69,1.1,1.1,0,0,1,0,.18c1.71-1,1.48-4.24,1.32-6.5,0-.59-.08-1.1-.08-1.52V51.51c0-1.06.05-2.16.09-3.23a40.55,40.55,0,0,0-.08-6.53c-.22-1.75-1.41-2.11-3.13-2.11H22.19c-1.57,0-3.18,0-4.74-.06S14.28,39.51,12.68,39.51ZM29.78,76.1l-.11,0a.34.34,0,0,0-.27.19.54.54,0,0,0,.1.48A.49.49,0,0,0,30,77h0a.43.43,0,0,0,.26-.42.4.4,0,0,0-.41-.44ZM8.59,40.93c-.77,0-1.37.14-1.66,1a6.62,6.62,0,0,0,0,2.33c0,.39.06.76.06,1.07V72.91c0,.18,0,.37,0,.57-.06,1.14,0,1.9.89,2.2a8.31,8.31,0,0,0,2.75.06c.46,0,.9-.08,1.27-.08H29.72c1-.26,1-1.58.89-3,0-.26,0-.5,0-.69V47.75c0-.37,0-.84.08-1.38.17-2,.42-5.09-1.34-5.42a15.6,15.6,0,0,0-3.43-.06c-.59,0-1.14.07-1.68.07H9.68l-.56,0Z"/><path class="cls-1" d="M6.38,23H31.76a.66.66,0,0,0,0-1.31H6.38a.66.66,0,0,0,0,1.31Z"/><path class="cls-1" d="M31.76,23.18H6.38a.88.88,0,0,1,0-1.75H31.76a.88.88,0,0,1,0,1.75ZM6.38,21.87a.44.44,0,0,0,0,.87H31.76a.44.44,0,0,0,0-.87Z"/><path class="cls-1" d="M18,63.91a1.3,1.3,0,0,0,1.84,0L25,58.74c4.53-4.54-1.56-10.64-6.1-6.1-4.15-4.15-10.25,1.94-6.09,6.1Z"/><path class="cls-1" d="M18.9,64.51a1.51,1.51,0,0,1-1.07-.44l-5.18-5.18a4.38,4.38,0,0,1-.07-6.47,4.37,4.37,0,0,1,6.32-.08A4.78,4.78,0,0,1,23.51,51a4.48,4.48,0,0,1,3.16,3.16,4.85,4.85,0,0,1-1.52,4.76L20,64.07A1.55,1.55,0,0,1,18.9,64.51Zm-3.1-13h-.18a4.31,4.31,0,0,0-4,4A4.09,4.09,0,0,0,13,58.58l5.18,5.18a1.11,1.11,0,0,0,1.53,0l5.17-5.18c2.23-2.23,1.75-4.75.36-6.14a3.93,3.93,0,0,0-2.79-1.18h0a4.7,4.7,0,0,0-3.33,1.54L18.9,53l-.15-.15A4.16,4.16,0,0,0,15.8,51.47Z"/><g id="Moisturizer"><path class="cls-1" d="M299.45,40.34H241.86v-8a2.66,2.66,0,0,1,2.66-2.65H296.8a2.65,2.65,0,0,1,2.65,2.65ZM243.18,39h55V32.39a1.34,1.34,0,0,0-1.34-1.34H244.52a1.34,1.34,0,0,0-1.34,1.34Z"/><path class="cls-1" d="M299.67,40.56h-58V32.39a2.87,2.87,0,0,1,2.87-2.87H296.8a2.88,2.88,0,0,1,2.87,2.87Zm-57.59-.44h57.15V32.39A2.43,2.43,0,0,0,296.8,30H244.52a2.43,2.43,0,0,0-2.44,2.43Zm56.28-.87H243V32.39a1.56,1.56,0,0,1,1.56-1.56H296.8a1.56,1.56,0,0,1,1.56,1.56Zm-55-.44h54.52V32.39a1.12,1.12,0,0,0-1.12-1.12H244.52a1.12,1.12,0,0,0-1.12,1.12Z"/><path class="cls-1" d="M302.41,83H236.72a3.06,3.06,0,0,1-3.05-3.06V42.08a3.06,3.06,0,0,1,3.05-3h65.69a3.06,3.06,0,0,1,3,3V79.9A3.06,3.06,0,0,1,302.41,83ZM236.72,40.34A1.74,1.74,0,0,0,235,42.08V79.9a1.74,1.74,0,0,0,1.74,1.74h65.69a1.74,1.74,0,0,0,1.74-1.74V42.08a1.74,1.74,0,0,0-1.74-1.74Z"/><path class="cls-1" d="M302.41,83.18H236.72a3.28,3.28,0,0,1-3.27-3.28V42.08a3.28,3.28,0,0,1,3.27-3.27h65.69a3.28,3.28,0,0,1,3.27,3.27V79.9A3.28,3.28,0,0,1,302.41,83.18ZM236.72,39.25a2.83,2.83,0,0,0-2.83,2.83V79.9a2.84,2.84,0,0,0,2.83,2.84h65.69a2.84,2.84,0,0,0,2.83-2.84V42.08a2.83,2.83,0,0,0-2.83-2.83Zm65.69,42.61H236.72a2,2,0,0,1-2-2V42.08a2,2,0,0,1,2-2h65.69a2,2,0,0,1,2,2V79.9A2,2,0,0,1,302.41,81.86Zm-65.69-41.3a1.52,1.52,0,0,0-1.52,1.52V79.9a1.53,1.53,0,0,0,1.52,1.53h65.69a1.53,1.53,0,0,0,1.52-1.53V42.08a1.52,1.52,0,0,0-1.52-1.52Z"/><path class="cls-1" d="M249.47,30.92l-.8-1.05c.48-.36,11.85-8.88,26.14-7.78,9.42.73,14.88-3.27,17.29-5.72a2.47,2.47,0,0,1,4.12,1c2.35,7.47.2,11.63-1.29,13.45l-1-.83c3.07-3.76,2-9.27,1.05-12.22a1.16,1.16,0,0,0-.84-.79,1.14,1.14,0,0,0-1.09.32c-2.57,2.61-8.38,6.88-18.33,6.11C260.92,22.35,249.58,30.83,249.47,30.92Z"/><path class="cls-1" d="M249.43,31.22l-1.07-1.39.18-.13c.48-.37,11.92-8.94,26.28-7.83,9.35.72,14.74-3.23,17.13-5.66a2.67,2.67,0,0,1,2.54-.73,2.7,2.7,0,0,1,1.94,1.82c2.38,7.56.19,11.8-1.33,13.65l-.14.17L293.61,30l.14-.17c3-3.68,1.92-9.11,1-12a.92.92,0,0,0-.68-.63.9.9,0,0,0-.88.25c-2.61,2.64-8.47,7-18.51,6.18-13.69-1.05-25,7.39-25.09,7.47Zm-.45-1.3.53.69c1.5-1.07,12.31-8.42,25.21-7.43,9.86.76,15.62-3.46,18.16-6a1.37,1.37,0,0,1,2.3.55c.92,2.95,2,8.42-1,12.26l.68.55c1.45-1.87,3.36-5.93,1.11-13.07a2.25,2.25,0,0,0-3.75-.91c-2.44,2.48-8,6.52-17.47,5.79C261.37,21.28,250.53,28.78,249,29.92Z"/><rect class="cls-1" x="257.98" y="19.06" width="1.31" height="32.24" transform="translate(221.27 293.51) rotate(-89.51)"/><path class="cls-1" d="M275,36.19l-32.68-.28,0-1.75,32.67.28Zm-32.23-.71,31.79.27v-.88l-31.8-.27Z"/><rect class="cls-1" x="282.95" y="34.52" width="15.85" height="1.31" transform="translate(-0.55 4.93) rotate(-0.97)"/><path class="cls-1" d="M282.75,36.19l0-1.75L299,34.16l0,1.75Zm.41-1.32,0,.88,15.4-.27v-.87Z"/><path class="cls-1" d="M305.46,73.67H233.67V48.86h71.79ZM235,72.36h69.17V50.18H235Z"/><path class="cls-1" d="M305.68,73.89H233.45V48.64h72.23Zm-71.79-.44h71.35V49.08H233.89Zm70.48-.88H234.76V50h69.61Zm-69.17-.43h68.73V50.39H235.2Z"/><path class="cls-1" d="M320.64,83h-8.19a2.3,2.3,0,0,1-2.29-2.29v-53a2.29,2.29,0,0,1,2.29-2.29h8.19a6.14,6.14,0,0,1,6.13,6.13V76.83A6.14,6.14,0,0,1,320.64,83Zm-8.19-56.28a1,1,0,0,0-1,1v53a1,1,0,0,0,1,1h8.19a4.82,4.82,0,0,0,4.82-4.81V31.5a4.82,4.82,0,0,0-4.82-4.82Z"/><path class="cls-1" d="M320.64,83.18h-8.19a2.52,2.52,0,0,1-2.51-2.51v-53a2.51,2.51,0,0,1,2.51-2.51h8.19A6.36,6.36,0,0,1,327,31.5V76.83A6.36,6.36,0,0,1,320.64,83.18Zm-8.19-57.59a2.07,2.07,0,0,0-2.07,2.07v53a2.07,2.07,0,0,0,2.07,2.07h8.19a5.92,5.92,0,0,0,5.91-5.91V31.5a5.92,5.92,0,0,0-5.91-5.91Zm8.19,56.27h-8.19a1.19,1.19,0,0,1-1.2-1.19v-53a1.2,1.2,0,0,1,1.2-1.2h8.19a5,5,0,0,1,5,5V76.83A5,5,0,0,1,320.64,81.86Zm-8.19-55a.76.76,0,0,0-.76.76v53a.76.76,0,0,0,.76.76h8.19a4.61,4.61,0,0,0,4.6-4.6V31.5a4.6,4.6,0,0,0-4.6-4.6Z"/><path class="cls-1" d="M268.86,66.63a1.18,1.18,0,0,0,1.65,0L275.14,62c4.07-4.06-1.39-9.52-5.46-5.45-3.72-3.72-9.17,1.74-5.45,5.45Z"/></g><g id="Toner"><path class="cls-1" d="M141.67,93.46H115.14a2.37,2.37,0,0,1-2.37-2.36V28.88a2.37,2.37,0,0,1,2.37-2.37h26.53A2.37,2.37,0,0,1,144,28.88V91.1A2.36,2.36,0,0,1,141.67,93.46ZM115.14,27.83a1.05,1.05,0,0,0-1.06,1.05V91.1a1.05,1.05,0,0,0,1.06,1.05h26.53a1,1,0,0,0,1.05-1.05V28.88a1,1,0,0,0-1.05-1.05Z"/><path class="cls-1" d="M140.85,27.83H115.32V12.74a3.11,3.11,0,0,1,3.11-3.11h19.31a3.11,3.11,0,0,1,3.11,3.11Zm-24.22-1.32h22.9V12.74a1.8,1.8,0,0,0-1.79-1.8H118.43a1.81,1.81,0,0,0-1.8,1.8Z"/><path class="cls-1" d="M140.53,50.13H116.27V30.92h24.26Zm-22.94-1.31h21.62V32.24H117.59Z"/><path class="cls-1" d="M128.32,22.26a5.1,5.1,0,0,0-5,4.91.67.67,0,0,0,.66.66h8.77a.67.67,0,0,0,.66-.66,5.1,5.1,0,0,0-5.05-4.91c-.84,0-.84,1.27,0,1.31a3.76,3.76,0,0,1,3.73,3.6l.66-.66h-8.77l.65.66a3.77,3.77,0,0,1,3.73-3.6C129.16,23.53,129.17,22.22,128.32,22.26Z"/><path class="cls-1" d="M128,43.47a.89.89,0,0,0,1.26,0l3.56-3.55c3.11-3.12-1.07-7.31-4.19-4.19a3,3,0,1,0-4.19,4.19Z"/></g><g id="Sunscreen"><path class="cls-1" d="M374,63.1A18.74,18.74,0,1,1,392.7,44.36,18.77,18.77,0,0,1,374,63.1Zm0-35.66a16.92,16.92,0,1,0,16.92,16.92A16.95,16.95,0,0,0,374,27.44Z"/><path class="cls-1" d="M374,63.32a19,19,0,1,1,18.95-19A19,19,0,0,1,374,63.32Zm0-37.48a18.52,18.52,0,1,0,18.51,18.52A18.54,18.54,0,0,0,374,25.84Zm0,35.66a17.14,17.14,0,1,1,17.14-17.14A17.16,17.16,0,0,1,374,61.5Zm0-33.84a16.7,16.7,0,1,0,16.7,16.7A16.73,16.73,0,0,0,374,27.66Z"/><path class="cls-1" d="M374.26,20.49a.92.92,0,0,0,.92-.91V5.08a.91.91,0,0,0-.91-.91h0a.91.91,0,0,0-.91.91V19.59a.91.91,0,0,0,.89.9Z"/><path class="cls-1" d="M374.27,20.71h0a1.13,1.13,0,0,1-1.11-1.12V5.08a1.13,1.13,0,1,1,2.25,0v14.5a1.08,1.08,0,0,1-.33.8A1.11,1.11,0,0,1,374.27,20.71Zm0-16.32a.69.69,0,0,0-.69.69V19.59a.68.68,0,0,0,.68.68h0a.66.66,0,0,0,.49-.2.69.69,0,0,0,.21-.49V5.08A.69.69,0,0,0,374.27,4.39Z"/><path class="cls-1" d="M373.36,69.16V84.28a.87.87,0,0,0,.87.88h.07a.88.88,0,0,0,.88-.88V69.1a.88.88,0,0,0-.89-.87h0A.94.94,0,0,0,373.36,69.16Z"/><path class="cls-1" d="M374.3,85.38h-.07a1.09,1.09,0,0,1-1.09-1.1V69.16A1.16,1.16,0,0,1,374.29,68a1.07,1.07,0,0,1,.78.32,1.06,1.06,0,0,1,.32.77V84.28A1.09,1.09,0,0,1,374.3,85.38Zm0-16.93h0a.71.71,0,0,0-.72.71V84.28a.66.66,0,0,0,.65.66h.07a.67.67,0,0,0,.66-.66V69.1a.63.63,0,0,0-.2-.46A.64.64,0,0,0,374.3,68.45Z"/><path class="cls-1" d="M387.49,23.6l7.39-12.79a.87.87,0,0,0-.32-1.19l-.06,0a.87.87,0,0,0-1.19.31l-7.39,12.79a.87.87,0,0,0,.32,1.19l0,0A.87.87,0,0,0,387.49,23.6Z"/><path class="cls-1" d="M386.73,24.25a1,1,0,0,1-.57-.16,1.1,1.1,0,0,1-.43-1.51l7.39-12.79a1.07,1.07,0,0,1,.66-.5,1.05,1.05,0,0,1,.83.11l.06,0a1.12,1.12,0,0,1,.51.66,1.14,1.14,0,0,1-.11.83l-7.39,12.79a1.14,1.14,0,0,1-.67.51A1.27,1.27,0,0,1,386.73,24.25Zm7.34-14.56a.47.47,0,0,0-.17,0,.64.64,0,0,0-.4.3L386.11,22.8a.66.66,0,0,0,.24.9.69.69,0,0,0,.55.09.64.64,0,0,0,.4-.3l7.39-12.79a.65.65,0,0,0-.24-.89l-.06,0A.72.72,0,0,0,394.07,9.69Z"/><path class="cls-1" d="M361.16,65.54l-7.5,13A.87.87,0,0,0,354,79.7l.06,0a.87.87,0,0,0,1.19-.32l7.5-13a.88.88,0,0,0-.35-1.21h0A.87.87,0,0,0,361.16,65.54Z"/><path class="cls-1" d="M354.47,80.08a1,1,0,0,1-.54-.15l-.06,0a1.09,1.09,0,0,1-.4-1.49l7.5-13a1.08,1.08,0,0,1,1.48-.4,1.1,1.1,0,0,1,.57.69,1,1,0,0,1-.1.83l-7.5,13a1.12,1.12,0,0,1-.66.51A1.45,1.45,0,0,1,354.47,80.08Zm6.88-14.44-7.5,13a.65.65,0,0,0,.24.9l.06,0a.65.65,0,0,0,.49.07.69.69,0,0,0,.4-.31l7.5-13a.61.61,0,0,0,.06-.49.64.64,0,0,0-.33-.41.65.65,0,0,0-.92.21Z"/><path class="cls-1" d="M396.43,33.9l13.25-7a.89.89,0,0,0,.36-1.18l0-.07a.88.88,0,0,0-1.18-.36l-13.24,7a.87.87,0,0,0-.36,1.18v0A.89.89,0,0,0,396.43,33.9Z"/><path class="cls-1" d="M396,34.22a.86.86,0,0,1-.32,0,1.11,1.11,0,0,1-.66-.56,1.09,1.09,0,0,1,.43-1.5l13.25-7a1.1,1.1,0,0,1,1.48.45l0,.06a1.09,1.09,0,0,1,.08.83,1.11,1.11,0,0,1-.53.65L396.53,34.1A1.13,1.13,0,0,1,396,34.22Zm13.21-8.85a.64.64,0,0,0-.3.08L395.68,32.5a.64.64,0,0,0-.27.88.71.71,0,0,0,.42.38.64.64,0,0,0,.49,0l13.25-7a.63.63,0,0,0,.32-.38.67.67,0,0,0-.05-.5l0-.06a.62.62,0,0,0-.39-.32A.58.58,0,0,0,409.23,25.37Z"/><path class="cls-1" d="M351.89,55.54l-13,6.93a.88.88,0,0,0-.36,1.18l0,.06a.87.87,0,0,0,1.18.36l13-6.93a.88.88,0,0,0,.35-1.2l0,0A.87.87,0,0,0,351.89,55.54Z"/><path class="cls-1" d="M339.31,64.39a1.1,1.1,0,0,1-1-.58l0-.06a1,1,0,0,1-.08-.83,1,1,0,0,1,.53-.64l13-6.93a1.09,1.09,0,0,1,1.47.45,1.13,1.13,0,0,1,.11.89,1,1,0,0,1-.53.64l-13,6.93A1.07,1.07,0,0,1,339.31,64.39ZM352,55.73l-13,6.93a.64.64,0,0,0-.31.39.63.63,0,0,0,.05.5l0,.06a.65.65,0,0,0,.88.27l13-6.93a.64.64,0,0,0,.31-.39.68.68,0,0,0-.06-.52.67.67,0,0,0-.9-.31Z"/><path class="cls-1" d="M349.17,43.76H334.65a.88.88,0,0,0-.88.87v.07a.88.88,0,0,0,.88.87h14.58a.88.88,0,0,0,.87-.88h0A.93.93,0,0,0,349.17,43.76Z"/><path class="cls-1" d="M349.23,45.79H334.65a1.09,1.09,0,0,1-1.09-1.09v-.07a1.09,1.09,0,0,1,1.09-1.09h14.52a1.15,1.15,0,0,1,1.14,1.14,1,1,0,0,1-.31.78A1.08,1.08,0,0,1,349.23,45.79ZM334.65,44a.67.67,0,0,0-.66.66v.07a.66.66,0,0,0,.66.65h14.58a.66.66,0,0,0,.46-.19.68.68,0,0,0,.19-.47.73.73,0,0,0-.71-.72Z"/><path class="cls-1" d="M398.76,43.76a.92.92,0,0,0-.92.92h0a.87.87,0,0,0,.87.88h15.18a.87.87,0,0,0,.87-.87v-.07a.87.87,0,0,0-.87-.87Z"/><path class="cls-1" d="M413.89,45.79H398.71a1.09,1.09,0,0,1-.78-.33,1.07,1.07,0,0,1-.31-.78,1.15,1.15,0,0,1,1.14-1.14h15.13A1.09,1.09,0,0,1,415,44.63v.07A1.09,1.09,0,0,1,413.89,45.79ZM398.76,44a.71.71,0,0,0-.7.72.63.63,0,0,0,.18.47.68.68,0,0,0,.47.19h15.18a.65.65,0,0,0,.65-.65v-.07a.66.66,0,0,0-.65-.66Z"/><path class="cls-1" d="M352.54,32l-12.75-6.85a.87.87,0,0,0-1.18.36l0,.06a.87.87,0,0,0,.36,1.18l12.74,6.85a.88.88,0,0,0,1.19-.38l0,0A.87.87,0,0,0,352.54,32Z"/><path class="cls-1" d="M352.08,33.88a1.13,1.13,0,0,1-.5-.13L338.83,26.9a1.16,1.16,0,0,1-.53-.64,1.12,1.12,0,0,1,.09-.84l0-.06a1.09,1.09,0,0,1,1.48-.44l12.74,6.85a1.06,1.06,0,0,1,.53.64,1.15,1.15,0,0,1-.09.85A1.13,1.13,0,0,1,352.08,33.88Zm-12.7-8.65a.63.63,0,0,0-.57.34l0,.06a.67.67,0,0,0,0,.5.69.69,0,0,0,.32.39l12.74,6.84a.67.67,0,0,0,.9-.28.72.72,0,0,0,.07-.55.63.63,0,0,0-.32-.38L339.69,25.3A.67.67,0,0,0,339.38,25.23Z"/><path class="cls-1" d="M395,55.75l0,0a.88.88,0,0,0,.35,1.2l13.46,7.23a.87.87,0,0,0,1.18-.35l0-.06a.87.87,0,0,0-.36-1.18l-13.47-7.24A.87.87,0,0,0,395,55.75Z"/><path class="cls-1" d="M409.15,64.54a1.17,1.17,0,0,1-.51-.13l-13.47-7.24a1.1,1.1,0,0,1-.52-.64,1.12,1.12,0,0,1,.09-.86l.21.08-.19-.11a1.09,1.09,0,0,1,1.48-.45l13.46,7.23a1.07,1.07,0,0,1,.53.65,1,1,0,0,1-.08.83l0,.06a1.07,1.07,0,0,1-.65.53A1.13,1.13,0,0,1,409.15,64.54ZM395,55.75l.18.13a.68.68,0,0,0-.06.52.67.67,0,0,0,.31.39L408.85,64a.64.64,0,0,0,.49,0,.62.62,0,0,0,.39-.32l0-.06a.6.6,0,0,0,.05-.49.64.64,0,0,0-.31-.39L396,55.57a.67.67,0,0,0-.89.28h0Z"/><rect class="cls-1" x="355.89" y="9.28" width="1.81" height="16.21" rx="0.87" transform="translate(46.96 195.17) rotate(-32.64)"/><path class="cls-1" d="M360.66,24.57a1.08,1.08,0,0,1-.91-.49L352,11.9a1.1,1.1,0,0,1,.33-1.5l.06,0a1.09,1.09,0,0,1,1.51.33l7.8,12.18a1.07,1.07,0,0,1,.14.82,1.1,1.1,0,0,1-.49.7A1.24,1.24,0,0,1,360.66,24.57Zm-7.73-13.95a.66.66,0,0,0-.35.11l-.06,0a.67.67,0,0,0-.29.41.72.72,0,0,0,.09.5l7.8,12.18A.67.67,0,0,0,361,24a.66.66,0,0,0,.25-.94l-7.8-12.17A.65.65,0,0,0,352.93,10.62Z"/><path class="cls-1" d="M386.62,65.64l8.25,12.88a.88.88,0,0,0,1.21.26l.06,0a.87.87,0,0,0,.26-1.2l-8.25-12.88a.87.87,0,0,0-1.22-.25l0,0A.88.88,0,0,0,386.62,65.64Z"/><path class="cls-1" d="M395.61,79.14a1,1,0,0,1-.24,0,1.09,1.09,0,0,1-.68-.47l-8.25-12.89a1.1,1.1,0,0,1,.34-1.51,1.15,1.15,0,0,1,.87-.18,1.08,1.08,0,0,1,.68.48l8.25,12.88a1.09,1.09,0,0,1,.15.82,1.07,1.07,0,0,1-.48.69l-.05,0A1.12,1.12,0,0,1,395.61,79.14Zm-8.19-14.66a.7.7,0,0,0-.37.11.66.66,0,0,0-.24.93l8.25,12.88a.64.64,0,0,0,.41.29.7.7,0,0,0,.49-.09l.06,0a.63.63,0,0,0,.28-.41.65.65,0,0,0-.08-.49L388,64.78a.67.67,0,0,0-.41-.29Z"/><polyline class="cls-2" points="380.01 7.49 387.26 80.02 416.88 78.81 424.09 35.84 402.05 7.52 381.82 7.49"/><path class="cls-1" d="M381.9,8.17h40.15a13.76,13.76,0,0,1,2.94,0c2.16.56,1.44,2.45,1.26,4l-1.09,9.16-3.43,28.82-3,24.84c-.15,1.28,0,3.3-.53,4.5-.6,1.36-2.29,1-3.4,1H394.4c-1.86,0-4.95.72-5.5-1.62a59.41,59.41,0,0,1-.81-6.81l-1.43-12-5.9-49.57c-.11-.95-.46-2.12,1.31-2.37.84-.12.48-1.38-.35-1.27-2.92.41-2.34,3.05-2.09,5.12l1.15,9.67,3.67,30.84L387.36,77c.24,2,.14,4.43,2.68,4.78,3.12.43,6.55,0,9.69,0h14.59c2.28,0,4.79.33,5.26-2.58,1-6.33,1.52-12.78,2.28-19.14l3.75-31.47c.74-6.22,1.89-12.55,2.23-18.81.16-2.79-2.2-2.95-4.28-2.95H381.9A.66.66,0,0,0,381.9,8.17Z"/><path class="cls-1" d="M391.43,81.81h24.35l-.66-.65V93.43l.66-.66H391.43l.66.66V81.16a.66.66,0,0,0-1.31,0V93.43a.66.66,0,0,0,.65.66h24.35a.66.66,0,0,0,.65-.66V81.16a.66.66,0,0,0-.65-.66H391.43A.66.66,0,0,0,391.43,81.81Z"/><path class="cls-1" d="M390.78,93.43c0,2.71-.11,5.28,3.3,5.38,3.17.09,6.35,0,9.52,0s6.36.09,9.53,0c3.4-.1,3.3-2.66,3.3-5.38a.66.66,0,0,0-1.31,0c0,1.37.48,3.58-1.45,4.06a7.26,7.26,0,0,1-1.68,0H395.34a5.9,5.9,0,0,1-1.78,0c-1.83-.72-1.47-2.52-1.47-4.06a.66.66,0,0,0-1.31,0Z"/><path class="cls-1" d="M404.09,89a4.6,4.6,0,0,0-4.55,4.43.67.67,0,0,0,.66.66H408a.66.66,0,0,0,.65-.66A4.59,4.59,0,0,0,404.09,89c-.84,0-.84,1.27,0,1.31a3.26,3.26,0,0,1,3.24,3.12l.66-.66H400.2l.65.66a3.26,3.26,0,0,1,3.24-3.12C404.93,90.27,404.94,89,404.09,89Z"/><path class="cls-1" d="M380.4,13.65h46.41a.66.66,0,0,0,0-1.32H380.4a.66.66,0,0,0,0,1.32Z"/><path class="cls-1" d="M387.54,20.85h32.13l-.66-.66-1.94,15.65.65-.66H389.49l.65.66-1.95-15.65c-.1-.82-1.41-.83-1.31,0l1.95,15.65a.67.67,0,0,0,.66.66h28.23a.68.68,0,0,0,.66-.66l1.95-15.65a.66.66,0,0,0-.66-.65H387.54A.66.66,0,0,0,387.54,20.85Z"/><path class="cls-1" d="M402.73,57.68a1.32,1.32,0,0,0,1.87,0l5.24-5.24c4.6-4.6-1.58-10.77-6.17-6.17-4.21-4.21-10.38,2-6.18,6.17Z"/></g></g></g></svg>