<svg xmlns="http://www.w3.org/2000/svg" viewBox="0 0 177 177"><defs><style>.cls-1{fill:#5c8f8e;}.cls-2{fill:#f4f2f1;}.cls-3{fill:none;}</style></defs><title>new-sunscreen</title><g id="Layer_2" data-name="Layer 2"><g id="Layer_4" data-name="Layer 4"><g id="Sunscreen"><path class="cls-1" d="M77,107.22a30.75,30.75,0,1,1,30.74-30.75A30.78,30.78,0,0,1,77,107.22ZM77,48.7a27.77,27.77,0,1,0,27.77,27.77A27.81,27.81,0,0,0,77,48.7Z"/><path class="cls-1" d="M77.5,37.29A1.49,1.49,0,0,0,79,35.81V12a1.49,1.49,0,0,0-1.49-1.49h0A1.49,1.49,0,0,0,76,12V35.81a1.49,1.49,0,0,0,1.47,1.48Z"/><path class="cls-1" d="M76,117.17V142a1.43,1.43,0,0,0,1.43,1.43h.12A1.43,1.43,0,0,0,79,142V117.07a1.43,1.43,0,0,0-1.45-1.42h0A1.53,1.53,0,0,0,76,117.17Z"/><path class="cls-1" d="M56,111.22l-12.3,21.3a1.43,1.43,0,0,0,.52,2l.1.05a1.42,1.42,0,0,0,1.95-.52l12.31-21.3a1.44,1.44,0,0,0-.57-2l0,0A1.45,1.45,0,0,0,56,111.22Z"/><path class="cls-1" d="M40.78,94.82,19.4,106.19a1.44,1.44,0,0,0-.59,1.94l.06.1a1.43,1.43,0,0,0,1.93.59L42.18,97.45a1.45,1.45,0,0,0,.57-2l0,0A1.44,1.44,0,0,0,40.78,94.82Z"/><path class="cls-1" d="M36.32,75.48H12.48a1.43,1.43,0,0,0-1.43,1.43V77a1.43,1.43,0,0,0,1.43,1.43H36.41A1.43,1.43,0,0,0,37.84,77h0A1.53,1.53,0,0,0,36.32,75.48Z"/><path class="cls-1" d="M117.71,75.48A1.53,1.53,0,0,0,116.19,77h0a1.43,1.43,0,0,0,1.43,1.44h24.92A1.43,1.43,0,0,0,144,77v-.11a1.43,1.43,0,0,0-1.43-1.43Z"/><path class="cls-1" d="M142.54,79H117.62a2,2,0,0,1-1.39-.58,1.93,1.93,0,0,1-.56-1.4,2.06,2.06,0,0,1,2-2h24.83a2,2,0,0,1,2,2V77A2,2,0,0,1,142.54,79Zm-24.83-3a1,1,0,0,0-1,1,.9.9,0,0,0,.9.92h24.92a.9.9,0,0,0,.9-.91v-.11a.9.9,0,0,0-.9-.91Z"/><path class="cls-1" d="M41.85,56.12,20.93,44.88a1.44,1.44,0,0,0-1.94.58l0,.1a1.44,1.44,0,0,0,.58,1.94L40.44,58.74a1.44,1.44,0,0,0,2-.61l0-.05A1.44,1.44,0,0,0,41.85,56.12Z"/><path class="cls-1" d="M111.45,95.16l0,0a1.44,1.44,0,0,0,.57,2l22.1,11.87a1.43,1.43,0,0,0,1.94-.58l.05-.1a1.43,1.43,0,0,0-.58-1.94L113.4,94.56A1.44,1.44,0,0,0,111.45,95.16Z"/><path class="cls-1" d="M134.76,109.75a2,2,0,0,1-.92-.23l-22.1-11.88A2,2,0,0,1,111,95l.49.2-.46-.25a2,2,0,0,1,2.66-.82L135.75,106a1.93,1.93,0,0,1,.95,1.16,2,2,0,0,1-.15,1.49l-.06.1a2,2,0,0,1-1.16,1A2.18,2.18,0,0,1,134.76,109.75ZM111.91,95.41l0,0a.87.87,0,0,0-.08.72.84.84,0,0,0,.43.53l22.1,11.88a.9.9,0,0,0,1.22-.37l.06-.1a.92.92,0,0,0,.07-.69.94.94,0,0,0-.44-.54L113.15,95A.91.91,0,0,0,111.91,95.41Z"/><path class="cls-1" d="M56.5,41.39l-12.8-20a1.44,1.44,0,0,0-2-.43l-.1.06a1.44,1.44,0,0,0-.43,2L54,43a1.44,1.44,0,0,0,2,.42l.05,0A1.45,1.45,0,0,0,56.5,41.39Z"/><path class="cls-1" d="M97.79,111.39l13.54,21.14a1.42,1.42,0,0,0,2,.43l.1-.06a1.43,1.43,0,0,0,.43-2l-13.54-21.14a1.43,1.43,0,0,0-2-.41l-.05,0A1.44,1.44,0,0,0,97.79,111.39Z"/><path class="cls-1" d="M112.54,133.71a2.09,2.09,0,0,1-.43,0,2,2,0,0,1-1.23-.86L97.34,111.67a2,2,0,0,1,2.17-3,2,2,0,0,1,1.23.85l13.54,21.14a2,2,0,0,1-.6,2.7l-.09.07A2,2,0,0,1,112.54,133.71ZM98.23,111.1l13.54,21.14a.87.87,0,0,0,.57.4.9.9,0,0,0,.68-.12l.1-.06a.9.9,0,0,0,.27-1.25L99.85,110.07a.86.86,0,0,0-.56-.39,1,1,0,0,0-1.06,1.42Z"/><line class="cls-2" x1="123.11" y1="16.01" x2="89.91" y2="15.96"/><polyline class="cls-2" points="86.93 15.96 98.84 134.99 147.44 133.01 159.28 62.49"/><path class="cls-1" d="M90,17.58h65.38c1.52,0,3.91-.46,5.37,0,3,1,1.82,3.7,1.54,6l-1.79,15.1-5.59,46.9-4.86,40.89c-.22,1.84.11,6-.91,7.6s-3.45,1.17-5.1,1.17H110.75c-3.11,0-7.59,1.16-8.74-2.22s-.94-8-1.37-11.51l-2.37-20L91.81,47.32,89.4,27.05c-.24-2-2.45-8.78,1-9.52,2-.42,1.15-3.47-.84-3.05-4.71,1-4.31,4.65-3.88,8.33l1.9,15.91,6.07,51,4.86,40.84c.37,3.16.32,6.76,4.14,7.72,4.76,1.2,10.91.16,15.76.16h24.66c4,0,8.23.52,9.22-4.43,2-9.79,2.4-20.16,3.58-30.07l6.24-52.44L164.72,30c.4-3.36,1.2-6.92,1.23-10.32,0-4.42-3.36-5.28-7-5.28H90A1.58,1.58,0,0,0,90,17.58Z"/><path class="cls-1" d="M105.68,138.44h39.95l-1.58-1.58V157l1.58-1.58H105.68l1.58,1.58V136.86a1.58,1.58,0,0,0-3.16,0V157a1.6,1.6,0,0,0,1.58,1.58h39.95a1.6,1.6,0,0,0,1.58-1.58V136.86a1.6,1.6,0,0,0-1.58-1.58H105.68A1.58,1.58,0,0,0,105.68,138.44Z"/><path class="cls-1" d="M104.1,157c0,4.52-.15,8.94,5.51,9.33,5.29.36,10.74,0,16,0s10.65.34,15.91,0c5.75-.38,5.64-4.69,5.64-9.33a1.58,1.58,0,0,0-3.16,0c0,2.22.74,5.16-2,6.17a10.76,10.76,0,0,1-2.89,0h-27a10.76,10.76,0,0,1-2.89,0c-2.74-1-2-3.95-2-6.17a1.58,1.58,0,0,0-3.16,0Z"/><path class="cls-1" d="M126.46,149.23a8.06,8.06,0,0,0-8,7.77,1.6,1.6,0,0,0,1.58,1.58h12.79a1.6,1.6,0,0,0,1.58-1.58,8.06,8.06,0,0,0-8-7.77c-2-.11-2,3.05,0,3.15a4.84,4.84,0,0,1,4.81,4.62l1.58-1.58H120.06l1.58,1.58a4.84,4.84,0,0,1,4.82-4.62C128.48,152.28,128.49,149.12,126.46,149.23Z"/><path class="cls-1" d="M87.57,26.57h76.17a1.58,1.58,0,0,0,0-3.16H87.57a1.58,1.58,0,0,0,0,3.16Z"/><path class="cls-1" d="M99.29,38.39H152l-1.58-1.58-3.19,25.68,1.58-1.58H102.48l1.58,1.58-3.19-25.68c-.25-2-3.41-2-3.16,0l3.2,25.68a1.61,1.61,0,0,0,1.57,1.58h46.35a1.63,1.63,0,0,0,1.58-1.58l3.19-25.68A1.59,1.59,0,0,0,152,35.23H99.29A1.58,1.58,0,0,0,99.29,38.39Z"/><path class="cls-1" d="M124.23,98.33a2.15,2.15,0,0,0,3.06,0l8.6-8.6c7.54-7.54-2.59-17.67-10.13-10.13-6.91-6.9-17,3.23-10.13,10.13Z"/></g><rect class="cls-3" width="177" height="177"/></g></g></svg>