<svg xmlns="http://www.w3.org/2000/svg" viewBox="0 0 177 177"><defs><style>.cls-1{fill:#5c8f8e;}.cls-2{fill:none;}</style></defs><title>new-toner</title><g id="Layer_2" data-name="Layer 2"><g id="Layer_4" data-name="Layer 4"><g id="Toner"><path class="cls-1" d="M110.13,161H66.87a5.7,5.7,0,0,1-5.7-5.69V50.71A5.7,5.7,0,0,1,66.87,45h43.26a5.7,5.7,0,0,1,5.7,5.69V155.33A5.7,5.7,0,0,1,110.13,161ZM66.87,48.17a2.54,2.54,0,0,0-2.54,2.54V155.33a2.54,2.54,0,0,0,2.54,2.53h43.26a2.54,2.54,0,0,0,2.54-2.53V50.71a2.54,2.54,0,0,0-2.54-2.54Z"/><path class="cls-1" d="M110.35,48.17H65.56V23.47A7.49,7.49,0,0,1,73,16h29.82a7.5,7.5,0,0,1,7.49,7.49ZM68.72,45h38.47V23.47a4.33,4.33,0,0,0-4.33-4.33H73a4.33,4.33,0,0,0-4.32,4.33Z"/><path class="cls-1" d="M109.8,86.52H67.2V52.6h42.6ZM70.36,83.36h36.28V55.76H70.36Z"/><path class="cls-1" d="M88.37,37.7a9.22,9.22,0,0,0-9.12,8.89,1.59,1.59,0,0,0,1.58,1.58H95.91a1.6,1.6,0,0,0,1.58-1.58,9.23,9.23,0,0,0-9.12-8.89c-2-.1-2,3.06,0,3.16a6,6,0,0,1,6,5.73L95.91,45H80.83l1.58,1.57a6,6,0,0,1,6-5.73C90.39,40.76,90.4,37.6,88.37,37.7Z"/><path class="cls-1" d="M87.74,74.62a1.53,1.53,0,0,0,2.17,0L96,68.51c5.36-5.36-1.84-12.55-7.19-7.2-4.91-4.9-12.11,2.3-7.2,7.2Z"/></g><rect class="cls-2" width="177" height="177"/></g></g></svg>