<svg xmlns="http://www.w3.org/2000/svg" viewBox="0 0 97 97"><defs><style>.cls-1{fill:#5c8f8e;}.cls-2{fill:none;}</style></defs><title>combination-green-icon</title><g id="Layer_2" data-name="Layer 2"><g id="Layer_4" data-name="Layer 4"><path class="cls-1" d="M78,64.52c-4.68-9.36-9.44-18.67-14.15-28L49,60.57a32.09,32.09,0,0,0-2.42,4.27,14.22,14.22,0,0,0,.54,11.91c3.67,7.11,12.45,10.32,20,8.39,9.14-2.33,14.76-11.65,11-20.62-.76-1.79-3.43-.38-2.67,1.41,3.16,7.46-2.2,14.86-9.64,16.43-6.76,1.42-14.74-2-16.79-9a11.62,11.62,0,0,1,1.6-9.61l1.64-2.65,7.34-11.82L65,40.41l-2.6-.11c4.31,8.54,8.67,17.07,13,25.63C76.24,67.66,78.91,66.26,78,64.52Z"/><path class="cls-1" d="M70.79,67.65c-.07-.45,0,.11,0,.27,0,.41,0,.82,0,1.23a13,13,0,0,1-.46,3.72c-1.09,3.85-4.32,5-8.08,4.57-1.28-.16-1.27,1.86,0,2,4.33.53,8.26-1.06,9.8-5.35a14.75,14.75,0,0,0,.61-7c-.19-1.28-2.13-.74-1.94.53Z"/><path class="cls-1" d="M51,63.94H43.56q.06-6.72.13-13.46a14.11,14.11,0,0,0,10.5-6.26,18.53,18.53,0,0,0,2.26-5.39c.46-1.8,1.08-4.1.4-5.9a4.58,4.58,0,0,0-5.2-2.76c-2.59.54-3.28,2.63-3.71,4.93s-1.87,4.78-4.24,5.27V19.81a16.06,16.06,0,0,0-.14-3.25A6.61,6.61,0,0,0,31,15.32a11.43,11.43,0,0,0-.55,4.54L30.38,31a4.34,4.34,0,0,1-2.9-1.09,5.1,5.1,0,0,1-1.11-2.56A4.54,4.54,0,0,0,22,23.73c-5.76,0-4.51,7.07-3,10.5a15.44,15.44,0,0,0,11.47,8.7l0,21H21.85a1.17,1.17,0,0,0,0,2.33H49.73Zm-9.61-14.5-.15,14.48-8.39,0,0-22a1.19,1.19,0,0,0-1.16-1.16,13.67,13.67,0,0,1-9.86-6.2A13.73,13.73,0,0,1,20,29c-.29-3.27,3.44-3.86,4.21-.63,1,4,4.34,5.37,8.49,5L32.77,23c0-3.4-.77-9.36,4.32-9.36,4.41,0,4.29,4.32,4.29,7.43V41.61a1.18,1.18,0,0,0,1.16,1.16,7.07,7.07,0,0,0,4.62-1.58,8.21,8.21,0,0,0,2.48-3.52c.71-1.85.38-5.74,3.37-5.21,3.72.66.71,7.91-.41,9.89-2.13,3.78-5.82,5.62-10.06,5.92A1.19,1.19,0,0,0,41.38,49.44Z"/><rect class="cls-2" width="97" height="97"/></g></g></svg>