<svg xmlns="http://www.w3.org/2000/svg" viewBox="0 0 97 97"><defs><style>.cls-1{fill:#5c8f8e;}.cls-2{fill:none;}</style></defs><title>dry-green-icon</title><g id="Layer_2" data-name="Layer 2"><g id="Layer_4" data-name="Layer 4"><path class="cls-1" d="M70.92,58A25,25,0,0,0,74,50.65c.63-2.45,1.47-5.58.54-8a6.22,6.22,0,0,0-7.06-3.75c-3.52.73-4.47,3.57-5,6.71s-2.54,6.49-5.77,7.16v-28a21.66,21.66,0,0,0-.19-4.41,9,9,0,0,0-17.05-1.7c-.85,2-.73,4.08-.75,6.18L38.54,40a5.94,5.94,0,0,1-3.94-1.48c-1-1-1.16-2.21-1.51-3.49-.76-2.77-2.87-5-5.91-5-7.84,0-6.14,9.61-4.09,14.28A21,21,0,0,0,38.68,56.22q0,14.3,0,28.58H26.94a1.58,1.58,0,0,0,0,3.16H69.58a1.58,1.58,0,0,0,0-3.16H56.46l.18-18.31C62.48,65.74,67.63,63.1,70.92,58ZM26.86,44.84a18.73,18.73,0,0,1-2.46-7.63c-.4-4.45,4.68-5.24,5.72-.86,1.19,5,5.07,6.94,10,6.86a1.59,1.59,0,0,0,1.58-1.57q.06-6.28.1-12.55c0-4.63-1-12.72,5.89-12.72,6,0,5.82,5.87,5.82,10.1v28A1.62,1.62,0,0,0,55.07,56a9.61,9.61,0,0,0,6.28-2.16,11.12,11.12,0,0,0,3.38-4.78c1-2.52.52-7.81,4.58-7.09,5.06.9,1,10.77-.55,13.46-2.9,5.13-7.91,7.64-13.69,8.05a1.61,1.61,0,0,0-1.58,1.58q-.09,9.86-.19,19.7l-11.42,0q0-15,0-29.94a1.62,1.62,0,0,0-1.58-1.58A18.6,18.6,0,0,1,26.86,44.84Z"/><rect class="cls-2" width="97" height="97"/></g></g></svg>