<svg xmlns="http://www.w3.org/2000/svg" viewBox="0 0 149.88 152.88"><defs><style>.cls-1{fill:#5c8f8e;}</style></defs><title>exfoliator-quiz</title><g id="Layer_2" data-name="Layer 2"><g id="Layer_4" data-name="Layer 4"><path class="cls-1" d="M142.58,109.38q.58-1.25,1.11-2.52A77.71,77.71,0,0,0,147.88,59h0c-.18-.82-.38-1.63-.59-2.43s-.47-1.79-.74-2.67h0a76.47,76.47,0,0,0-27.93-39.5l-.58-.42c-.62-.45-1.24-.89-1.87-1.31h0A73.5,73.5,0,0,0,74.94,0C74,0,73.11,0,72.19.07h0c-.81,0-1.61.08-2.42.13l-.9.07a73.27,73.27,0,0,0-20,4.47c-.92.35-1.83.72-2.73,1.1l-1.37.61-1.59.73c-.47.23-.94.45-1.4.69s-1.07.55-1.59.83c-.72.38-1.42.77-2.12,1.18h0c-.89.51-3.45,2.11-4.3,2.68h0c-.58.39-1.15.79-1.72,1.19l-.85.62A76,76,0,0,0,14.07,31.88c-.1.13-.19.27-.28.4A77.14,77.14,0,0,0,0,76.44c0,1.74.08,3.46.19,5.17,0,.48.07,1,.11,1.42a76.79,76.79,0,0,0,23.85,49.6l0,0c.93.88,1.89,1.73,2.86,2.56h0a73.89,73.89,0,0,0,38.72,17.08h0c.79.1,1.59.19,2.39.26,1,.1,1.9.17,2.86.22,1.3.07,2.62.11,3.94.11a73.53,73.53,0,0,0,41.24-12.62h0A76.37,76.37,0,0,0,142.58,109.38ZM23.41,122.53A70.37,70.37,0,0,1,6.87,84.87H21.52c.33.53.68,1,.92,1.46l5.09,9q3.41,6,6.8,12l-8.43,14.9Zm9.1-28.18q-3.41-6-6.8-12,3.39-6,6.8-12,2.46-4.36,4.94-8.73c.28-.49.7-1.09,1.09-1.73h23.6c.69,0,1.61.11,2.51.11l10.2,18a20.17,20.17,0,0,0,2,3.37l.1,1c-.26.52-.49,1-.72,1.42q-2.55,4.5-5.09,9-3.42,6-6.82,12H38.52c-.33-.53-.68-1-.92-1.46ZM68.56,57.17c.23-.47.45-.93.65-1.3l5.1-9q3.41-6,6.83-12.06l.28,0c7.7.09,15.41,0,23.11,0,.94,0,2,.12,3,.06l8.22,14.53c1.24,2.19,2.26,5,3.83,7-.25.5-.48,1-.7,1.38l-5.09,9q-3.54,6.24-7.06,12.48H81.08Zm.65,48.74,5.1-9,7.06-12.48H107L117.55,103a17.87,17.87,0,0,0,2.41,3.92l0,.43-12.72,22.48h-24c-.61,0-1.41-.09-2.22-.11q-6.3-11.14-12.62-22.29C68.72,106.88,69,106.33,69.21,105.91Zm41.85-24.06c.92-1.42,1.63-3.28,2.37-4.58l10.4-18.37.28,0c5.74.07,11.49,0,17.23,0A71.18,71.18,0,0,1,138,104l-14,.73Zm28.77-28H126c-.61,0-1.41-.09-2.22-.1l-12.27-21.7c.73-1.29,1.33-2.79,2-3.88l3.81-6.73A70.19,70.19,0,0,1,139.83,53.85ZM74.94,6.49A67.08,67.08,0,0,1,111.51,17.3l-3.36,11.53H83.28c-.74,0-1.77-.12-2.74-.1L68.25,7l.11-.22Q71.62,6.49,74.94,6.49ZM57.37,8.83l8.44,3.65q3.63,6.42,7.27,12.85C74.25,27.39,75.22,30,76.63,32c-.14.3-.28.58-.42.82q-2.55,4.5-5.09,9-3.68,6.48-7.34,13H38.52c-.33-.54-.68-1-.92-1.47l-5.09-9L27.35,35.2l1.53-10.52A68.05,68.05,0,0,1,57.37,8.83ZM20.22,34.32l1,.07c.4.7.88,1.36,1.19,1.91l5.09,9,6.8,12q-3.39,6-6.8,12l-4.94,8.73c-.28.5-.7,1.1-1.09,1.73H6.44c-.05-1.11-.08-2.23-.08-3.35A70.53,70.53,0,0,1,20.22,34.32Zm8.12,93.39,4.17-7.36Q35,116,37.45,111.62c.28-.5.7-1.1,1.09-1.74h23.6c.61,0,1.42.09,2.22.11q4.36,7.7,8.72,15.41c1.24,2.19,2.26,5,3.83,7-.25.5-.48,1-.7,1.37q-2.55,4.5-5.09,9l-1.89,3.33A67.77,67.77,0,0,1,28.34,127.71Zm46.28,18.68q3.25-5.76,6.52-11.51l.28,0c7.7.09,15.41,0,23.11,0,.87,0,1.85.1,2.79.07l1.33,2.35a67.09,67.09,0,0,1-34,9.07ZM113,134.61c-.42-.75-.84-1.5-1.27-2.24l13-22.93h10.7A70,70,0,0,1,113,134.61Z"/></g></g></svg>