<svg xmlns="http://www.w3.org/2000/svg" viewBox="0 0 97 97"><defs><style>.cls-1{fill:#5c8f8e;}.cls-2{fill:none;}</style></defs><title>oil-drop-green-icon</title><g id="Layer_2" data-name="Layer 2"><g id="Layer_4" data-name="Layer 4"><path class="cls-1" d="M66.6,46.49c-5.47-9.82-11-19.6-16.51-29.39a1.79,1.79,0,0,0-3.06,0L32.28,43.36a36.42,36.42,0,0,0-2.62,5.13,16.67,16.67,0,0,0,1.25,13.94c4.66,8.14,15.12,11.46,23.9,8.81C65.41,68,71.52,56.82,66.6,46.49c-1-2.06-4-.26-3.07,1.79,4.1,8.59-1.81,17.54-10.45,19.76-7.86,2-17.4-1.62-20.16-9.69A13.63,13.63,0,0,1,34.3,47l1.8-3.2,8-14.24,6-10.67H47c5.5,9.79,11,19.57,16.5,29.39C64.64,50.27,67.71,48.49,66.6,46.49Z"/><path class="cls-1" d="M57.92,51c-.08-.54,0,.13,0,.32,0,.48.06.95.06,1.43a15.32,15.32,0,0,1-.54,4.37C56.19,61.61,52.39,63,48,62.45c-1.51-.19-1.5,2.18,0,2.36,5.08.62,9.69-1.25,11.5-6.28a17.53,17.53,0,0,0,.71-8.2c-.22-1.5-2.49-.86-2.28.63Z"/><rect class="cls-2" width="97" height="97"/></g></g></svg>