<svg xmlns="http://www.w3.org/2000/svg" viewBox="0 0 157.71 160.87"><defs><style>.cls-1{fill:#5c8f8e;}</style></defs><title>pimple-quiz</title><g id="Layer_2" data-name="Layer 2"><g id="Layer_4" data-name="Layer 4"><path class="cls-1" d="M78.85,160.87C35.37,160.87,0,124.78,0,80.43S35.37,0,78.85,0s78.86,36.08,78.86,80.43S122.33,160.87,78.85,160.87Zm0-151.74C40.31,9.13,9,41.11,9,80.43s31.36,71.31,69.9,71.31,69.91-32,69.91-71.31S117.4,9.13,78.85,9.13Z"/><ellipse class="cls-1" cx="93.73" cy="66.18" rx="14.43" ry="14.71"/><ellipse class="cls-1" cx="42.34" cy="88.25" rx="7.21" ry="7.36"/><path class="cls-1" d="M96.67,137.25a23.42,23.42,0,1,1,23-23.42A23.22,23.22,0,0,1,96.67,137.25Zm0-37.71a14.29,14.29,0,1,0,14,14.29A14.16,14.16,0,0,0,96.67,99.54Z"/><ellipse class="cls-1" cx="66.23" cy="35.37" rx="5.86" ry="5.98"/></g></g></svg>