<svg xmlns="http://www.w3.org/2000/svg" viewBox="0 0 155.47 158.58"><defs><style>.cls-1{fill:#5c8f8e;}</style></defs><title>pore-quiz</title><g id="Layer_2" data-name="Layer 2"><g id="Layer_4" data-name="Layer 4"><path class="cls-1" d="M77.74,158.58C34.87,158.58,0,123,0,79.29S34.87,0,77.74,0s77.73,35.57,77.73,79.29S120.6,158.58,77.74,158.58Zm0-149.45C39.81,9.13,9,40.6,9,79.29s30.86,70.17,68.79,70.17S146.52,118,146.52,79.29,115.66,9.13,77.74,9.13Z"/><path class="cls-1" d="M77.42,119.31c-1-.24-2-.5-3-.79-9.88-2.92-16.08-8-18.41-15.11-3.66-11.18,3.85-23.25,5.76-26,.51-2.24.75-5.71-.28-7.09-.14-.19-.52-.7-2-.7-8.24,0-21,4.31-21.14,4.35l-.51.18H6.25V67.27H36.8c2.65-.87,14.34-4.53,22.73-4.53a8.64,8.64,0,0,1,7.32,3.42c3.56,4.82,1.48,12.73,1.24,13.62l-.17.61-.38.5c-.07.11-8.14,11.31-5.16,20.37,1.6,4.84,6.28,8.43,13.91,10.68.85.26,1.74.49,2.64.7Z"/><path class="cls-1" d="M78.93,119.31l-1.51-6.67c9-2.13,14.58-5.86,16.46-11.1,3.22-9-5-20.53-5.07-20.65l-.37-.5-.17-.61C88,78.89,86,71,89.51,66.16a8.62,8.62,0,0,1,7.32-3.42c8.39,0,20.08,3.66,22.73,4.53h30.55v6.84H118.48l-.51-.17c-.13,0-12.92-4.36-21.14-4.36-1.45,0-1.82.51-2,.7-1.07,1.44-.74,5-.28,7.09,1.93,2.83,9.64,15.21,5.59,26.52C97.47,111.44,90.33,116.63,78.93,119.31Z"/><path class="cls-1" d="M77.45,119.07c-6.11,0-11.69-2.67-16.6-7.94l4.87-4.71c3.59,3.86,7.54,5.81,11.74,5.81h.15c6.54-.07,12.15-4.82,13-5.76l5,4.61c-1.82,2-9,7.9-17.88,8Z"/><path class="cls-1" d="M90,88.91h0l-.09-.16c-.06-.12-.13-.23-.19-.34L78.27,68.14,67.8,86.64a13.66,13.66,0,0,0-2.94,8.5,13.32,13.32,0,1,0,26.64,0A13.83,13.83,0,0,0,90,88.91Z"/><path class="cls-1" d="M31.31,94.29A17.86,17.86,0,0,1,21,90.68c-3.63-2.57-6.88-3.63-9.38-3.07a5.39,5.39,0,0,0-3.39,2.33l-3.9-2.25a9.88,9.88,0,0,1,6.2-4.51c3.82-.91,8.21.35,13,3.75,9.73,6.87,16.26-1,16.53-1.38l.31-.32c4.1-3.46,14-7.57,22.17,1.59l-3.31,3.07c-6.92-7.77-14.67-2.2-15.87-1.26A16.16,16.16,0,0,1,31.31,94.29Z"/><path class="cls-1" d="M125.49,94.29a16.16,16.16,0,0,1-12-5.66c-1.39-1.1-9-6.47-15.87,1.26l-3.31-3.07c8.16-9.16,18.08-5,22.18-1.59l.3.32a13.18,13.18,0,0,0,4.73,3.36c3.77,1.55,7.74.89,11.8-2,4.82-3.4,9.19-4.66,13-3.75a9.88,9.88,0,0,1,6.19,4.51l-3.91,2.22,2-1.11-1.94,1.14a5.35,5.35,0,0,0-3.39-2.33c-2.49-.56-5.74.5-9.38,3.07A17.82,17.82,0,0,1,125.49,94.29Z"/><ellipse class="cls-1" cx="35.11" cy="101.03" rx="3.11" ry="3.17"/><ellipse class="cls-1" cx="50.21" cy="115.52" rx="3.11" ry="3.17"/><ellipse class="cls-1" cx="33.33" cy="119.15" rx="3.11" ry="3.17"/><ellipse class="cls-1" cx="118.58" cy="100.13" rx="3.11" ry="3.17"/><ellipse class="cls-1" cx="103.49" cy="114.62" rx="3.11" ry="3.17"/><ellipse class="cls-1" cx="120.36" cy="118.24" rx="3.11" ry="3.17"/></g></g></svg>