<svg xmlns="http://www.w3.org/2000/svg" viewBox="0 0 97 97"><defs><style>.cls-1{fill:#f9b5a2;}.cls-2{fill:none;}</style></defs><title>sensitive-pink-icon</title><g id="Layer_2" data-name="Layer 2"><g id="Layer_4" data-name="Layer 4"><path class="cls-1" d="M74.64,20.35a1.49,1.49,0,0,1,.06,1.58,3.69,3.69,0,0,1-1.15,1.21,13,13,0,0,0-3,3c-.85,1.13-1.61,2.35-2.39,3.53-1.07,1.62-2.14,3.27-3.27,4.87a42.76,42.76,0,0,1-3.68,4.57,8.66,8.66,0,0,1-3,2.12,9.24,9.24,0,0,1-3.27.64l.34.21a3,3,0,0,1,.33.21,6.56,6.56,0,0,1,1.26,1,1.7,1.7,0,0,1,.48,1.42,4.19,4.19,0,0,1-.66,1.45c-.31.5-.66,1-.88,1.37L55,48.88c-.26.48-.53.95-.79,1.42l-1,1.85c-.34.62-.68,1.23-1,1.84a14,14,0,0,1-3.13,3.71,15.91,15.91,0,0,1-4,2.43l.92.11.93.12a1.53,1.53,0,0,1,1,.63,1,1,0,0,1,0,1.17,17.91,17.91,0,0,1-2.76,3.09,20.69,20.69,0,0,1-3.34,2.44,15.29,15.29,0,0,1-12.54,1.17c-.37,1.38-.72,2.75-1,4.13s-.6,2.74-.86,4.1a1,1,0,0,1-1.37.82,1.26,1.26,0,0,1-.94-1.45c.27-1.46.58-2.91.91-4.35s.68-2.88,1.07-4.31a10.11,10.11,0,0,1-3.13-3,10.24,10.24,0,0,1-1.65-4.38A21,21,0,0,1,23,52a36.31,36.31,0,0,1,3.29-7.9l4-7.46,4-7.47a7.56,7.56,0,0,1,.91-1.52,1.4,1.4,0,0,1,1.58-.47A2,2,0,0,1,38,28.55,6.75,6.75,0,0,1,38.2,31a25.72,25.72,0,0,1,5.26-4,50.73,50.73,0,0,1,5.89-2.88,65.44,65.44,0,0,1,7.89-2.69,66.78,66.78,0,0,1,8.16-1.7,42.7,42.7,0,0,1,4.83-.64C72.11,19,73.91,19.21,74.64,20.35ZM36.88,29.27h0a.55.55,0,0,0,.1-.18S36.94,29.11,36.88,29.27Zm-1.21.09h0c0-.17,0-.21-.06-.19S35.58,29.28,35.67,29.36ZM52.18,40.11h0a0,0,0,0,0,0,0A.08.08,0,0,0,52.18,40.11ZM68.1,25.5c.52-.74,1-1.44,1.6-2.09a12.12,12.12,0,0,1,1.86-1.79,19.74,19.74,0,0,0-4.83.21c-1.64.23-3.26.59-4.75.9a71.4,71.4,0,0,0-7.27,1.92,54,54,0,0,0-7,2.78,32.92,32.92,0,0,0-6,3.59,15.93,15.93,0,0,0-4.51,5.22,1,1,0,0,1-1.43.49,1.32,1.32,0,0,1-.76-1.41c.11-.6.21-1.2.31-1.8s.17-1.2.23-1.81l-.38.71-.37.71q-1.64,3-3.25,6.09t-3.25,6.09a34,34,0,0,0-3.55,9c-.71,3.31-.64,6.66,1.1,9.25a7,7,0,0,0,.84,1,7.27,7.27,0,0,0,1,.86q.9-3,2-5.9t2.41-5.76a70.56,70.56,0,0,1,7.34-12.41A57.07,57.07,0,0,1,49.39,31,50.74,50.74,0,0,1,54,27.64a27.06,27.06,0,0,1,5.06-2.57,1,1,0,0,1,1.41.76,1.25,1.25,0,0,1-.77,1.55l-.32.12-.36.18c-.41.18-.81.38-1.2.58l-1.17.64A50.64,50.64,0,0,0,39.72,45.07a79.3,79.3,0,0,0-9.84,21.61,12.06,12.06,0,0,0,5,.7,12.67,12.67,0,0,0,4.8-1.26,17.76,17.76,0,0,0,2.58-1.61,18.3,18.3,0,0,0,2.32-2l-3.2-.4-3.21-.4A1.26,1.26,0,0,1,37,60.44a1.14,1.14,0,0,1,1.15-1.17,19.48,19.48,0,0,0,3.11-.47,21.32,21.32,0,0,0,3-.93A10.76,10.76,0,0,0,48,55.53,15.51,15.51,0,0,0,50.56,52l1-1.89c.34-.63.68-1.26,1-1.88s.53-1,.8-1.43l.8-1.42c.08-.13.16-.33.24-.5a.64.64,0,0,1,.28-.36l-.2-.12-.15-.08c-.66-.45-1.91-1-2.94-1.67s-1.85-1.52-1.63-2.56a1,1,0,0,1,.43-.63,1.06,1.06,0,0,1,.72-.25c1,.1,2,.28,3.06.35a7.44,7.44,0,0,0,3-.3,6.65,6.65,0,0,0,2.3-1.63c.68-.7,1.28-1.5,1.84-2.19,1.26-1.58,2.4-3.25,3.52-4.93S66.94,27.14,68.1,25.5Zm4.57-3.71h0a.11.11,0,0,0,.07.05S72.74,21.82,72.67,21.79Z"/><rect class="cls-2" width="97" height="97"/></g></g></svg>