<svg xmlns="http://www.w3.org/2000/svg" viewBox="0 0 154.35 157.44"><defs><style>.cls-1{fill:#5c8f8e;}</style></defs><title>tight-quiz</title><g id="Layer_2" data-name="Layer 2"><g id="Layer_4" data-name="Layer 4"><path class="cls-1" d="M77.09,157.44C34.53,157.4,0,122,0,78.63S34.71,0,77.27,0s77.13,35.4,77.08,78.81S119.64,157.49,77.09,157.44ZM77.26,9.13C39.63,9.08,9,40.27,9,78.64s30.52,69.63,68.15,69.68,68.26-31.15,68.3-69.52S114.88,9.17,77.26,9.13Z"/><path class="cls-1" d="M64.86,40.87h0a2,2,0,0,1-.27-.3A.56.56,0,0,0,64.86,40.87Z"/><path class="cls-1" d="M63,39.28l-.23-.12h0A1.14,1.14,0,0,0,63,39.28Z"/><path class="cls-1" d="M112.86,68.81a105.73,105.73,0,0,0-2-18.53c-1.11-5-3.71-12.56-10.12-11.43a6.78,6.78,0,0,0-2.29.89,9,9,0,0,0-6.08-8.15,9.83,9.83,0,0,0-7.68.87,9.53,9.53,0,0,0-4.53-6.09,11.35,11.35,0,0,0-8.95-.65,9,9,0,0,0-5.39,5.5,8.48,8.48,0,0,0-.49,2,10.53,10.53,0,0,0-9.34.24c-3.3,2-4.36,5.85-4.41,9.52q-.16,13.24-.34,26.49c0,.63,0,1.26,0,1.89L50.87,71c-3.08-3.21-7.81-7.39-12.6-5.81-3.13,1-5.25,4.41-5.89,7.56a19.82,19.82,0,0,0,.75,9.78c.39,1.23.87,2.43,1.36,3.62a1.67,1.67,0,0,1,.08.2h0c.13.37.27.73.43,1.08.37.82.82,1.61,1.25,2.39A203.79,203.79,0,0,0,52,114.55c2.94,3.92,6,7.88,10,10.8,4.44,3.27,10.54,3.93,15.85,4.12a89.11,89.11,0,0,0,15.73-1l1.89-.29c.42-.07.58-.1.45-.09a3.69,3.69,0,0,0,.56-.11c3.7-1,6.57-4.26,8.58-7.41,5.08-7.93,6.59-18.12,7.43-27.35A183.82,183.82,0,0,0,112.86,68.81Zm-7.24-11.44c0,.15,0,.1,0,0Zm-3.29-12.15-.19,0,0,0h0A.83.83,0,0,0,102.33,45.22Zm-.17,0Zm-.34-.09-.07,0s0,0,0,0l0,0C101.55,45.19,101.6,45.13,101.82,45.17ZM89,37.71ZM86,39.5a1.07,1.07,0,0,1-.15.21A.51.51,0,0,1,86,39.5Zm-8.76-7.36s.07,0,.13.11C77.31,32.19,77.24,32.14,77.27,32.14ZM58.6,39.54a.84.84,0,0,0-.08.14S58.54,39.61,58.6,39.54ZM41.6,71.7a.93.93,0,0,1-.22-.09A.73.73,0,0,1,41.6,71.7Zm31.74,50.92Zm21.84-.94-.27,0h0Zm-.36,0-.11,0,.11,0Zm4-3.34-.09.11C98.86,118.26,99.07,118,98.77,118.39Zm-.17.24,0-.07A.43.43,0,0,0,98.6,118.63Zm8.06-36c-.07,3.62-.26,7.23-.6,10.83-.07.75-.14,1.49-.23,2.24,0,.33-.07.67-.11,1s0,.38-.07.57l0,.13,0,.11c-.19,1.34-.4,2.68-.64,4a68.28,68.28,0,0,1-1.63,7c-.29,1-.6,1.92-.94,2.87-.15.4-.3.81-.46,1.21h0v0s0,0,0,0l-.08.16c0,.13-.1.27-.15.38a32.18,32.18,0,0,1-2.06,4c-.31.48-.66.92-1,1.4l-.12.15c-.17.21-.35.41-.53.62s-.64.67-1,1l-.42.38a12,12,0,0,1-1.44.9l0,0-.33.11-.39.11-1.88.3-.93.13h-.08l-.8.1c-1.1.14-2.2.25-3.3.35-2.62.23-5.25.36-7.87.34-1.42,0-2.84-.07-4.25-.19-.65,0-1.3-.12-1.94-.2l-.46-.07c-.38-.06-.76-.13-1.13-.21a24.5,24.5,0,0,1-3.75-1l-.75-.29c.78.31-.06,0-.26-.15a11.37,11.37,0,0,1-1.17-.67c-.23-.15-.68-.63-.95-.69h0c-.18-.15-.35-.29-.52-.45-.74-.66-1.45-1.37-2.14-2.09-1.61-1.71-3.1-3.53-4.54-5.4l-.22-.29L57,110.6l-1.23-1.69c-.78-1.08-1.54-2.17-2.29-3.28-2.83-4.16-5.51-8.43-8.07-12.77-1.59-2.67-3.18-5.36-4.59-8.14a.47.47,0,0,0-.05-.1,11.3,11.3,0,0,0-.46-1.07l0,0a3.52,3.52,0,0,0-.18-.45A29.21,29.21,0,0,1,39,79.78c-.16-.61-.3-1.23-.41-1.86,0-.21-.09-.72-.08-.55,0-.31,0-.63-.06-1s0-.71,0-1.07c0-.21.07-.7,0-.58.05-.27.1-.54.17-.81a5.08,5.08,0,0,1,.15-.52s.1-.27.15-.4l.11-.2.27-.49s.07-.1.1-.16l.09-.13,0-.06,0,0,.06-.08s.36-.35.53-.54l.07,0,.32,0h0c.15,0,.56.15.83.24l.28.13c.21.11.42.23.62.36.44.26.85.55,1.26.84l.17.13.59.5c.84.74,1.63,1.52,2.39,2.33s1.44,1.58,2.13,2.41c.29.35.57.7.85,1.06l.42.53a2.44,2.44,0,0,0,.27.29,18.11,18.11,0,0,1,1.2,1.75,3.17,3.17,0,0,0,5.93-1.63c0-7.65.18-15.31.28-23q.08-6.21.16-12.42l0-2.45c0-.23,0-.46,0-.69l0-.24h0a14.21,14.21,0,0,1,.36-1.39l0-.07.07-.12a3.3,3.3,0,0,0,.18-.32l.09-.18.3-.28a2.36,2.36,0,0,0,.4-.24c.14,0,.28-.09.42-.13l.07,0,.59,0,.65,0a.72.72,0,0,0,.21,0l.13,0c.44.1.87.23,1.3.36h0l-.08,0,.09,0a.78.78,0,0,1,.23.12l.21.11q.24.13.48.3l.17.12c.13.12.39.35.45.42s.16.2.26.33c0-.07,0-.07.12.06s.1.16.15.24l.06,0,0,0,.07.11.21.36v4c0,6.75-.1,13.5,0,20.25V66a3.25,3.25,0,0,0,3.18,3.25A3.28,3.28,0,0,0,71.48,66V49.47c0-4.84-.07-9.69,0-14.53a4.53,4.53,0,0,1,0-.52l.06-.38c.07-.29.17-.57.25-.85s.22-.38.32-.57h0a3.73,3.73,0,0,0,.34-.35l0,0h0l.57-.32c.1,0,.21-.08.3-.1s.48-.1.71-.17c-.69.2.12,0,.36,0a11.2,11.2,0,0,1,1.16,0l.18,0,.15,0,.81.22.06,0a3.39,3.39,0,0,0,.67.4l0,0c.12.13.25.29.38.42l.31.52a.11.11,0,0,1,0-.08.22.22,0,0,0,0,.11h0c.15.25.16.32.13.3s0,.08,0,.1c.1.32.18.64.25,1l0,.17c0,.14,0,.27,0,.41.15,4.86,0,9.75,0,14.62,0,6.19-.13,12.39,0,18.58v.35a3.18,3.18,0,1,0,6.36,0l0-17c0-3.56.05-7.11.05-10.67.22-.32.21-.45.15-.38l-.06.1-.09.22v0a.42.42,0,0,0,0-.1.67.67,0,0,1,.11-.2,8.76,8.76,0,0,1,.47-.85c.11-.18.25-.35.35-.53h0l.11-.11a6.14,6.14,0,0,1,.5-.52c.19-.19.86-.58.19-.2.19-.11.37-.26.57-.37l.41-.23h0a4.44,4.44,0,0,0,.86-.25l.2,0h1.18a.87.87,0,0,1,.27.07l.14,0,.24.08.25.18c-.11-.1,0-.14.12,0l.1.1.09,0-.08,0c0,.06.11.11.16.16a.27.27,0,0,1,.07.08,4.08,4.08,0,0,0,.29.5v0c.09.31.2.61.26.93a1.22,1.22,0,0,1,0,.17c0,.08,0,.16,0,.23v.37q0,10.35,0,20.71v7.5a3.19,3.19,0,1,0,6.37,0l0-18.87c.72-1.21,1.45-2.41,2.15-3.63a.19.19,0,0,1,0-.09,5.79,5.79,0,0,1,.54-.57.46.46,0,0,0,.07-.07l-.17.11c.2-.12.39-.28.6-.41l.1-.06.13,0h-.07l.08,0,.06,0h0l.25.24.09.12a13,13,0,0,1,.7,1.15c.1.2.2.41.29.61a.45.45,0,0,1,0-.11l0,.11.07.16c.21.46,0,.11-.07-.16.06.17.14.34.2.51a33.91,33.91,0,0,1,1.36,5c.23,1.14.42,2.29.59,3.43,0,.27.07.53.11.8s0,.28,0,.42c.1.76.18,1.52.25,2.28A190.7,190.7,0,0,1,106.66,82.67Z"/><path class="cls-1" d="M101.85,112.79l.08-.16v0C101.56,113.16,101.7,113.05,101.85,112.79Z"/><path class="cls-1" d="M39.51,72.06l-.09.13.1-.14Z"/><path class="cls-1" d="M101.25,45.64c.77-.47.33-.26,0,0Z"/><polygon class="cls-1" points="103.33 47.38 103.33 47.38 103.33 47.38 103.33 47.38"/><path class="cls-1" d="M102,45.26h0l-.07,0Z"/><path class="cls-1" d="M78.38,33.66c0-.09-.1-.21-.13-.3v0A.48.48,0,0,0,78.38,33.66Z"/><path class="cls-1" d="M90.39,37.78l-.28-.07h0C90.32,37.78,90.39,37.79,90.39,37.78Z"/><path class="cls-1" d="M91.24,38.18,91,38.07a1.16,1.16,0,0,0,.23.12Z"/></g></g></svg>