<svg xmlns="http://www.w3.org/2000/svg" viewBox="0 0 168 168"><defs><style>.cls-1{fill:none;}.cls-2{fill:#5c8f8e;}.cls-3{fill:#fff;}</style></defs><title>diet-iconldpi</title><g id="Layer_2" data-name="Layer 2"><g id="Layer_1-2" data-name="Layer 1"><rect class="cls-1" width="168" height="168"/><path class="cls-2" d="M102.91,151.46a35.59,35.59,0,0,1-9.67-1.33,36.9,36.9,0,0,1-8.63-3.7,5.56,5.56,0,0,0-5-.17,38.75,38.75,0,0,1-8.31,2.49C60.86,150.63,50,148,40.68,141.34c-12.12-8.67-20.52-23.18-23.06-39.81C13,71.11,29.45,42.73,54.33,38.26a39.28,39.28,0,0,1,26.53,4.79,15.24,15.24,0,0,0,13.72.64,36.85,36.85,0,0,1,25-1.9h0c23.54,6.66,36.85,36.34,29.68,66.16-4,16.63-13.61,30.44-26.36,37.91A39.51,39.51,0,0,1,102.91,151.46ZM82,139.76a11,11,0,0,1,5.62,1.5,30.52,30.52,0,0,0,7.21,3.09c8.23,2.34,16.87,1.07,25-3.67,11.35-6.65,19.94-19.09,23.55-34.13,6.43-26.73-5-53.19-25.48-59h0A30.88,30.88,0,0,0,97,49.2a21.49,21.49,0,0,1-19.07-.93,33.38,33.38,0,0,0-22.52-4.1c-21.71,3.89-36,29.22-31.84,56.46,2.29,15,9.81,28.1,20.62,35.84,8.09,5.78,17.11,8,26.09,6.37a32,32,0,0,0,7-2.1A12.26,12.26,0,0,1,82,139.76Z"/><polygon class="cls-3" points="117.17 35.29 118.17 43.29 108.17 48.29 97.17 49.29 91.16 47.92 94.17 40.29 117.17 35.29"/><path class="cls-2" d="M90.17,48.29l-2.93.33c-.08-.35-.17-.7-.25-1l-6-.19a18.72,18.72,0,0,0-1.28-4.58c-2.15-6.06-5.4-15.22,2.12-24.42l1.52-1.85,13.8,7.75s-6,5.14-5.82,11.71c4.17-6.81,11.7-12.83,24.1-11.7,6.77.62,10.6.93,12.77,1.09l2.95.9s2,4,1,5c-5.68,10.72-23.36,24.3-43,19Zm3.38-2c8.76,2.59,16.93.43,24.34-6.43a46.09,46.09,0,0,0,7.19-8.67c-2.59-.21-6-.51-10.18-.89C99.56,28.89,94.82,41.25,93.55,46.27ZM85.13,24.12c-3.57,5.9-1.55,11.6.26,16.69.21.59.41,1.17.6,1.73-1.45-9.07-.24-14.31,1.38-17.3Z"/><path class="cls-2" d="M129.17,94.29c-.06,9.94-4.29,20.78-13.51,25.41-3.45,1.74-.42,6.91,3,5.18,11.08-5.57,16.41-18.63,16.48-30.59,0-3.86-6-3.86-6,0Z"/><circle class="cls-2" cx="107.17" cy="126.29" r="4"/></g></g></svg>