<svg xmlns="http://www.w3.org/2000/svg" viewBox="0 0 168 168"><defs><style>.cls-1{fill:none;}.cls-2{fill:#5c8f8e;}</style></defs><title>dont-touch-iconldpi</title><g id="Layer_2" data-name="Layer 2"><g id="Layer_1-2" data-name="Layer 1"><rect class="cls-1" width="168" height="168"/><path class="cls-2" d="M84,150.7c-35.07,0-63.6-29.92-63.6-66.7S48.93,17.3,84,17.3,147.6,47.22,147.6,84,119.07,150.7,84,150.7ZM84,25C53,25,27.77,51.48,27.77,84S53,143,84,143s56.23-26.45,56.23-59S115,25,84,25Z"/><path class="cls-2" d="M73.81,51.94h0a1.51,1.51,0,0,1-.23-.26A.46.46,0,0,0,73.81,51.94Z"/><path class="cls-2" d="M72.29,50.59l-.19-.1h0Z"/><path class="cls-2" d="M113.4,75.57a93.09,93.09,0,0,0-1.69-15.71c-.92-4.26-3.07-10.63-8.35-9.67a5.41,5.41,0,0,0-1.89.76,7.6,7.6,0,0,0-5-6.9,7.87,7.87,0,0,0-6.33.75,8.08,8.08,0,0,0-3.74-5.16A9.11,9.11,0,0,0,79,39.1a7.57,7.57,0,0,0-4.44,4.66,7.66,7.66,0,0,0-.4,1.67,8.46,8.46,0,0,0-7.7.21c-2.72,1.69-3.59,5-3.62,8.07q-.14,11.24-.26,22.45c0,.53,0,1.07,0,1.61-.09-.1-.18-.19-.26-.29-2.55-2.72-6.45-6.26-10.4-4.91-2.57.88-4.32,3.74-4.84,6.41a17,17,0,0,0,.63,8.29c.31,1,.71,2.06,1.12,3.07l.07.16h0c.11.31.23.61.36.91.31.69.68,1.36,1,2a173.89,173.89,0,0,0,13,20.93c2.43,3.33,5,6.68,8.25,9.14,3.66,2.77,8.7,3.33,13.07,3.48a72.11,72.11,0,0,0,13-.88l1.56-.25c.35-.06.48-.08.37-.07a2.52,2.52,0,0,0,.46-.1c3-.88,5.41-3.62,7.06-6.28,4.18-6.73,5.41-15.37,6.1-23.19A160,160,0,0,0,113.4,75.57Zm-6-9.69c0,.13,0,.09,0,0ZM104.7,55.59l-.15,0,0,0h0A.55.55,0,0,0,104.7,55.59Zm-.14,0Zm-.28-.07-.06,0s0,0,0,0l0,0C104.05,55.57,104.1,55.51,104.28,55.55ZM93.71,49.24Zm-2.45,1.52c-.06.09-.13.2-.13.18A.7.7,0,0,1,91.26,50.76ZM84,44.53s.06,0,.11.09S84,44.53,84,44.53ZM68.65,50.82l-.06.12S68.61,50.87,68.65,50.82Zm-14,27.27L54.49,78C54.6,78,54.68,78.07,54.67,78.09ZM80.88,121.2Zm18-.82-.22,0h0Zm-.3.05h-.09l.09,0Zm3.26-2.84-.08.09C101.9,117.48,102.08,117.29,101.84,117.59Zm-.15.2,0-.06Zm6.61-30.47c-.06,3.06-.2,6.12-.48,9.17-.06.64-.12,1.27-.19,1.9l-.09.85-.06.48v.11l0,.1c-.15,1.13-.32,2.27-.52,3.4-.36,2-.79,4-1.34,5.9-.24.81-.49,1.62-.77,2.42-.12.35-.25.69-.38,1h0v0s0,0,0,0l-.06.13c-.05.11-.08.23-.13.33a26.8,26.8,0,0,1-1.69,3.34c-.25.41-.54.79-.8,1.19l-.1.12c-.14.18-.29.36-.44.53s-.52.57-.8.84l-.35.32a9.23,9.23,0,0,1-1.19.76l0,0-.28.1-.32.09-1.55.25-.76.11h-.07l-.66.09c-.91.11-1.81.21-2.72.3-2.16.19-4.32.3-6.48.29q-1.76,0-3.51-.15l-1.6-.17-.38-.06-.93-.17a19.76,19.76,0,0,1-3.09-.88c-.21-.07-.41-.16-.62-.25.65.27,0,0-.21-.12a9.23,9.23,0,0,1-1-.56c-.19-.13-.57-.54-.79-.59h0l-.42-.37c-.62-.57-1.2-1.16-1.77-1.78A56.81,56.81,0,0,1,68,111.85c-.11-.13-.58-.78-.19-.24l-.42-.58c-.34-.47-.68-1-1-1.43-.65-.91-1.28-1.84-1.9-2.77C62.13,103.3,59.92,99.68,57.8,96c-1.31-2.26-2.62-4.54-3.79-6.89A.36.36,0,0,0,54,89c-.1-.32-.31-.73-.38-.91l0,0a1.66,1.66,0,0,0-.15-.39,24.19,24.19,0,0,1-.9-2.77c-.14-.52-.25-1-.35-1.57,0-.18-.07-.61-.06-.46,0-.27,0-.54,0-.81s0-.61,0-.91.06-.59,0-.49c0-.23.08-.46.14-.69a4.16,4.16,0,0,1,.12-.44s.08-.22.13-.33.07-.15.08-.18.16-.27.23-.41a1,1,0,0,1,.08-.14l.07-.11,0,0,0,0,0-.06.44-.46,0,0,.27,0h0l.68.2.23.11.51.3c.36.22.7.47,1,.72l.14.11.49.42a26.15,26.15,0,0,1,2,2c.61.66,1.19,1.34,1.75,2l.71.9.35.45a2.4,2.4,0,0,0,.22.24,17.34,17.34,0,0,1,1,1.48,2.65,2.65,0,0,0,3,1.26,2.79,2.79,0,0,0,1.93-2.65c0-6.48.13-13,.2-19.45l.12-10.53,0-2.07a5.62,5.62,0,0,1,0-.58c0-.07,0-.14,0-.21h0c.09-.4.18-.79.3-1.18l0-.06.06-.11a2.15,2.15,0,0,0,.14-.26c0-.08.06-.13.08-.16l.24-.23a1.85,1.85,0,0,0,.33-.21l.35-.11.06,0,.49,0,.53,0h.17l.11,0c.36.09.72.2,1.07.31h0l-.06,0,.07,0a.67.67,0,0,1,.19.1l.17.1a3.34,3.34,0,0,1,.4.25L73,51c.1.11.32.3.37.36s.13.17.21.27c0-.05,0-.05.1.06l.13.2a.09.09,0,0,0,0,0l0,0,.06.09a3.07,3.07,0,0,1,.17.31v3.4c0,5.72-.07,11.44,0,17.16,0,.12,0,.23,0,.35a2.63,2.63,0,1,0,5.25,0v-14c0-4.1-.07-8.21,0-12.31,0-.15,0-.29,0-.44a3,3,0,0,1,.06-.32c0-.25.13-.49.2-.73s.18-.32.26-.48h0c.09-.1.19-.2.28-.31h0l.48-.27.25-.09c.19-.06.39-.08.58-.14-.57.17.1,0,.3,0a7.53,7.53,0,0,1,1,0h.15l.13,0,.66.19,0,0a3,3,0,0,0,.55.34l0,0c.11.11.21.25.32.36l.25.43v-.06a.37.37,0,0,0,0,.09h0c.11.21.12.27.1.26a.47.47,0,0,1,0,.09,5.34,5.34,0,0,1,.21.81s0,.09,0,.14,0,.23,0,.35c.13,4.11,0,8.26,0,12.38,0,5.24-.1,10.5,0,15.74v.3a2.62,2.62,0,1,0,5.24,0V61.24c0-3,0-6,0-9,.18-.28.18-.38.12-.32a.59.59,0,0,1,0,.08c0,.06,0,.12-.08.19v0l0-.09a.52.52,0,0,1,.09-.16c.12-.25.25-.49.39-.73s.21-.29.29-.44h0l.09-.1c.13-.15.27-.3.41-.44s.71-.49.15-.17c.17-.09.31-.22.47-.31l.34-.2h0a5.79,5.79,0,0,0,.71-.21.75.75,0,0,1,.16,0h1a.38.38,0,0,1,.22.06l.12,0,.19.07.21.15c-.09-.09,0-.12.1,0l.08.09.08,0-.07,0,.13.14.06.07c.07.14.16.29.24.42v0c.08.26.16.51.22.78,0,0,0,.1,0,.15a1.28,1.28,0,0,1,0,.19c0,.11,0,.21,0,.31,0,5.85,0,11.7,0,17.55v6.36a2.63,2.63,0,1,0,5.25,0v-16c.59-1,1.19-2,1.76-3.08l0-.07c.15-.17.29-.33.45-.48l.06-.06-.14.09c.17-.11.32-.24.49-.35l.09,0,.1,0h-.06l.07,0,0,0h0l.2.21.08.09c.2.32.4.64.57,1,.09.17.17.35.25.52a.16.16,0,0,1,0-.09.16.16,0,0,0,0,.09l0,.13c.18.39,0,.1,0-.13,0,.14.11.29.16.43a30,30,0,0,1,1.13,4.28q.29,1.44.48,2.91c0,.22.07.44.1.67s0,.24,0,.36c.08.64.15,1.29.21,1.93A163.91,163.91,0,0,1,108.3,87.32Z"/><path class="cls-2" d="M104.37,112.84a.75.75,0,0,1,.06-.13v0C104.13,113.16,104.25,113.06,104.37,112.84Z"/><path class="cls-2" d="M53,78.39a.41.41,0,0,1-.07.11l.08-.12Z"/><path class="cls-2" d="M103.81,56c.63-.41.27-.23,0,0Z"/><polygon class="cls-2" points="105.53 57.42 105.53 57.42 105.53 57.42 105.53 57.42"/><path class="cls-2" d="M104.43,55.62h0Z"/><path class="cls-2" d="M85,45.82a1.39,1.39,0,0,1-.1-.26l0,0A.53.53,0,0,0,85,45.82Z"/><path class="cls-2" d="M94.85,49.3l-.23-.06h0C94.79,49.3,94.86,49.31,94.85,49.3Z"/><path class="cls-2" d="M95.55,49.64l-.18-.1.19.1Z"/><rect class="cls-2" x="79.14" y="17.65" width="7.64" height="127.88" transform="translate(89.82 -34.56) rotate(48.86)"/></g></g></svg>