<svg xmlns="http://www.w3.org/2000/svg" viewBox="0 0 190.08 182.52"><defs><style>.cls-1,.cls-2{fill:#f0bb69;}.cls-2{font-size:95.52px;font-family:Nunito-Black, Nunito Black;font-weight:800;}</style></defs><title>exclamation-mark-yellow</title><g id="Layer_2" data-name="Layer 2"><g id="Layer_1-2" data-name="Layer 1"><path class="cls-1" d="M67.65,182.52a7.91,7.91,0,0,1-2.29-.35,7.72,7.72,0,0,1-5.13-4.95L51.28,151a3.35,3.35,0,0,0-3.37-2.25l-23.46,1.43A7.82,7.82,0,0,1,16.54,140l8.25-25.35a3.34,3.34,0,0,0-1.35-3.83l-19.9-13a7.82,7.82,0,0,1,.08-13.14L23.41,72a3.36,3.36,0,0,0,1.39-3.85L16.35,41.88A7.82,7.82,0,0,1,23.8,31.67l27.25,0h0a3.35,3.35,0,0,0,3.23-2.47l6.26-23.3A7.81,7.81,0,0,1,72.82,1.75l20.12,15.3a3.35,3.35,0,0,0,4,0h0L117.31,1.59a7.82,7.82,0,0,1,12.22,4l7.31,24.35a3.34,3.34,0,0,0,3.27,2.38l25.79-.49a7.82,7.82,0,0,1,7.58,10.24l-8.35,25.54a3.36,3.36,0,0,0,1.34,3.83l20.1,13.23a7.83,7.83,0,0,1,0,13l-20.7,13.68a3.32,3.32,0,0,0-1.31,3.89l8.73,25a7.82,7.82,0,0,1-7.42,10.39l-27-.14a3.39,3.39,0,0,0-3.24,2.48l-6.26,23.38a7.81,7.81,0,0,1-12.3,4.18L97,165.16a3.36,3.36,0,0,0-4.06,0L72.38,180.9A7.8,7.8,0,0,1,67.65,182.52ZM48.12,144.27a7.83,7.83,0,0,1,7.39,5.29l8.95,26.21a3.35,3.35,0,0,0,5.2,1.58l20.55-15.74a7.83,7.83,0,0,1,9.5,0L119.81,177a3.34,3.34,0,0,0,5.26-1.79l6.25-23.38a7.82,7.82,0,0,1,7.6-5.8l27,.15h0a3.34,3.34,0,0,0,3.15-4.45l-8.73-25a7.81,7.81,0,0,1,3.07-9.1L184.11,94a3.34,3.34,0,0,0,0-5.58L164,75.16a7.85,7.85,0,0,1-3.13-9l8.35-25.54A3.35,3.35,0,0,0,166,36.28l-25.8.49a7.83,7.83,0,0,1-7.63-5.56L125.25,6.85A3.36,3.36,0,0,0,120,5.15L99.69,20.61a7.83,7.83,0,0,1-9.46,0L70.11,5.31A3.3,3.3,0,0,0,67,4.81,3.27,3.27,0,0,0,64.86,7.1L58.6,30.4a7.83,7.83,0,0,1-7.55,5.79h0l-27.25,0h0a3.3,3.3,0,0,0-2.7,1.37,3.26,3.26,0,0,0-.48,3l8.45,26.32a7.82,7.82,0,0,1-3.25,9L6,88.41A3.34,3.34,0,0,0,6,94l19.9,13a7.82,7.82,0,0,1,3.16,9L20.8,141.34a3.34,3.34,0,0,0,3.38,4.37l23.46-1.43Z"/><text class="cls-2" transform="translate(82.05 124.23)">!</text></g></g></svg>