<svg xmlns="http://www.w3.org/2000/svg" viewBox="0 0 168 168"><defs><style>.cls-1{fill:none;}.cls-2{fill:#5c8f8e;}</style></defs><title>pimple-iconldpi</title><g id="Layer_2" data-name="Layer 2"><g id="Layer_1-2" data-name="Layer 1"><rect class="cls-1" width="168" height="168"/><path class="cls-2" d="M84,152.15c-35.83,0-65-30.57-65-68.15S48.17,15.85,84,15.85,149,46.42,149,84,119.83,152.15,84,152.15ZM84,23.58c-31.77,0-57.61,27.1-57.61,60.42S52.23,144.42,84,144.42s57.61-27.1,57.61-60.42S115.77,23.58,84,23.58Z"/><ellipse class="cls-2" cx="96.26" cy="71.92" rx="11.89" ry="12.47"/><ellipse class="cls-2" cx="53.91" cy="90.62" rx="5.94" ry="6.23"/><path class="cls-2" d="M98.68,132.14c-10.43,0-18.92-8.9-18.92-19.84s8.49-19.84,18.92-19.84,18.92,8.9,18.92,19.84S109.11,132.14,98.68,132.14Zm0-31.95c-6.36,0-11.54,5.43-11.54,12.11s5.18,12.11,11.54,12.11,11.55-5.44,11.55-12.11S105.05,100.19,98.68,100.19Z"/><ellipse class="cls-2" cx="73.6" cy="45.82" rx="4.83" ry="5.07"/></g></g></svg>