<?xml version="1.0" encoding="utf-8"?>
<!-- Generator: Adobe Illustrator 23.0.3, SVG Export Plug-In . SVG Version: 6.00 Build 0)  -->
<svg version="1.1" id="Layer_1" xmlns="http://www.w3.org/2000/svg" xmlns:xlink="http://www.w3.org/1999/xlink" x="0px" y="0px"
	 viewBox="0 0 168 168" style="enable-background:new 0 0 168 168;" xml:space="preserve">
<style type="text/css">
	.st0{fill:#5C8F8E;}
	.st1{fill:#F4F2F1;}
	.st2{fill:none;}
</style>
<title>sunscreen-iconldpi</title>
<g>
	<g id="Layer_1-2">
		<g id="Sunscreen">
			<path class="st0" d="M74.9,99.9c-14.1,0-25.5-11.4-25.5-25.4C49.4,60.4,60.7,49,74.8,49c14.1,0,25.5,11.4,25.5,25.4c0,0,0,0,0,0
				C100.3,88.5,88.9,99.9,74.9,99.9z M74.9,51.5c-12.7,0-23,10.3-23,23s10.3,23,23,23s23-10.3,23-23l0,0
				C97.9,61.7,87.6,51.5,74.9,51.5z"/>
			<path class="st0" d="M74.9,100.2c-14.2,0-25.8-11.5-25.8-25.7c0-14.2,11.5-25.8,25.7-25.8s25.8,11.5,25.8,25.7c0,0,0,0,0,0
				C100.6,88.6,89.1,100.2,74.9,100.2z M74.9,49.3c-13.9,0-25.2,11.2-25.2,25.1c0,13.9,11.2,25.2,25.1,25.2
				c13.9,0,25.2-11.2,25.2-25.1c0,0,0,0,0,0C100,60.6,88.7,49.3,74.9,49.3z M74.9,97.7c-12.9,0-23.3-10.4-23.3-23.3
				s10.4-23.3,23.3-23.3s23.3,10.4,23.3,23.3c0,0,0,0,0,0C98.1,87.3,87.7,97.7,74.9,97.7z M74.9,51.7c-12.5,0-22.7,10.1-22.7,22.7
				s10.1,22.7,22.7,22.7c12.5,0,22.7-10.1,22.7-22.7C97.5,61.9,87.4,51.8,74.9,51.7L74.9,51.7z"/>
			<path class="st0" d="M75.3,42c0.7,0,1.2-0.5,1.2-1.2c0,0,0,0,0,0V21.1c0-0.7-0.6-1.2-1.2-1.2l0,0l0,0c-0.7,0-1.2,0.5-1.3,1.2
				c0,0,0,0,0,0v19.7C74,41.5,74.6,42,75.3,42C75.2,42,75.2,42,75.3,42L75.3,42z"/>
			<path class="st0" d="M75.3,42.3L75.3,42.3c-0.8,0-1.5-0.7-1.5-1.5V21.1c-0.1-0.8,0.6-1.6,1.4-1.6s1.6,0.6,1.6,1.4
				c0,0.1,0,0.2,0,0.2v19.7C76.8,41.6,76.1,42.3,75.3,42.3C75.3,42.3,75.3,42.3,75.3,42.3L75.3,42.3z M75.3,20.1
				c-0.5,0-0.9,0.4-0.9,0.9v19.7c0,0.5,0.4,0.9,0.9,0.9l0,0c0.2,0,0.5-0.1,0.7-0.3c0.2-0.2,0.3-0.4,0.3-0.7V21.1
				C76.2,20.6,75.8,20.1,75.3,20.1z"/>
			<path class="st0" d="M74,108.1v20.5c0,0.7,0.5,1.2,1.2,1.2c0,0,0,0,0,0h0.1c0.7,0,1.2-0.5,1.2-1.2l0,0v-20.6
				c0-0.7-0.5-1.2-1.2-1.2c0,0,0,0,0,0l0,0C74.6,106.9,74,107.4,74,108.1C74,108.1,74,108.1,74,108.1z"/>
			<path class="st0" d="M75.3,130.1L75.3,130.1c-0.9,0-1.6-0.7-1.6-1.5v-20.5c0-0.9,0.7-1.5,1.6-1.6c0.4,0,0.8,0.1,1.1,0.4
				c0.3,0.3,0.4,0.7,0.4,1.1v20.6C76.8,129.5,76.1,130.1,75.3,130.1C75.3,130.1,75.3,130.1,75.3,130.1z M75.3,107.1L75.3,107.1
				c-0.6,0-1,0.4-1,1v20.6c0,0.5,0.4,0.9,0.9,0.9h0.1c0.5,0,0.9-0.4,0.9-0.9v-20.6c0-0.2-0.1-0.5-0.3-0.6
				C75.8,107.3,75.5,107.2,75.3,107.1L75.3,107.1z"/>
			<path class="st0" d="M93.2,46.2l10-17.4c0.3-0.6,0.1-1.3-0.4-1.6l-0.1,0c-0.6-0.3-1.3-0.1-1.6,0.4c0,0,0,0,0,0L91.1,45
				c-0.3,0.6-0.1,1.3,0.4,1.6l0,0C92.1,47,92.8,46.8,93.2,46.2C93.2,46.3,93.2,46.3,93.2,46.2z"/>
			<path class="st0" d="M92.2,47.1c-0.3,0-0.5-0.1-0.8-0.2c-0.7-0.4-1-1.3-0.6-2l10-17.4c0.2-0.3,0.5-0.6,0.9-0.7
				c0.4-0.1,0.8,0,1.1,0.1h0.1c0.3,0.2,0.6,0.5,0.7,0.9c0.1,0.4,0.1,0.8-0.2,1.1l-10,17.4c-0.2,0.3-0.5,0.6-0.9,0.7
				C92.4,47.1,92.3,47.1,92.2,47.1z M102.1,27.3h-0.2c-0.2,0.1-0.4,0.2-0.5,0.4l-10,17.4c-0.2,0.4-0.1,1,0.3,1.2
				c0.2,0.1,0.5,0.2,0.8,0.1c0.2-0.1,0.4-0.2,0.5-0.4l10-17.4c0.2-0.4,0.1-1-0.3-1.2h-0.1C102.4,27.4,102.3,27.3,102.1,27.3z"/>
			<path class="st0" d="M57.5,103.2l-10.2,17.6c-0.3,0.6-0.1,1.3,0.4,1.6h0.1c0.6,0.3,1.3,0.1,1.6-0.4l10.2-17.6
				c0.3-0.6,0.1-1.3-0.5-1.6c0,0,0,0,0,0l0,0C58.6,102.4,57.8,102.6,57.5,103.2C57.5,103.2,57.5,103.2,57.5,103.2z"/>
			<path class="st0" d="M48.4,123c-0.3,0-0.5-0.1-0.7-0.2l-0.1-0.1c-0.7-0.4-0.9-1.3-0.5-2l10.2-17.6c0.4-0.7,1.3-0.9,2-0.5
				c0.4,0.2,0.7,0.5,0.8,0.9c0.1,0.4,0.1,0.8-0.1,1.1l-10.2,17.6c-0.2,0.3-0.5,0.6-0.9,0.7C48.7,123,48.5,123,48.4,123z M57.7,103.4
				L47.6,121c-0.2,0.4-0.1,1,0.3,1.2c0,0,0,0,0,0H48c0.2,0.1,0.4,0.2,0.7,0.1c0.2-0.1,0.4-0.2,0.5-0.4l10.2-17.6
				c0.1-0.2,0.2-0.5,0.1-0.7c-0.1-0.2-0.2-0.4-0.5-0.6C58.6,102.8,58,102.9,57.7,103.4L57.7,103.4z"/>
			<path class="st0" d="M105.3,60.2l18-9.6c0.6-0.3,0.8-1,0.5-1.6V49c-0.3-0.6-1-0.8-1.6-0.5l-18,9.6c-0.6,0.3-0.8,1-0.5,1.6
				c0,0,0,0,0,0l0,0C104,60.3,104.7,60.5,105.3,60.2C105.3,60.2,105.3,60.2,105.3,60.2z"/>
			<path class="st0" d="M104.8,60.7c-0.1,0-0.3,0-0.4-0.1c-0.8-0.3-1.3-1.1-1-2c0.1-0.4,0.4-0.7,0.7-0.9l18-9.6
				c0.7-0.4,1.6-0.1,2,0.6v0.1c0.4,0.7,0.1,1.6-0.6,2c0,0,0,0,0,0l-18,9.6C105.2,60.6,105,60.7,104.8,60.7z M122.7,48.7
				c-0.1,0-0.3,0-0.4,0.1l-18,9.6c-0.4,0.2-0.6,0.8-0.4,1.2c0,0,0,0,0,0c0.1,0.2,0.3,0.4,0.6,0.5c0.2,0.1,0.5,0,0.7-0.1l18-9.6
				c0.2-0.1,0.4-0.3,0.4-0.5c0.1-0.2,0-0.5-0.1-0.7v-0.1c-0.1-0.2-0.3-0.4-0.5-0.4C122.9,48.7,122.8,48.6,122.7,48.7L122.7,48.7z"/>
			<path class="st0" d="M44.9,89.6L27.2,99c-0.6,0.3-0.8,1-0.5,1.6c0,0,0,0,0,0l0,0.1c0.3,0.6,1,0.8,1.6,0.5c0,0,0,0,0,0L46,91.8
				c0.6-0.3,0.8-1,0.5-1.6c0,0,0,0,0,0l0,0C46.2,89.6,45.5,89.3,44.9,89.6C44.9,89.6,44.9,89.6,44.9,89.6z"/>
			<path class="st0" d="M27.8,101.7c-0.5,0-1.1-0.3-1.3-0.8v-0.1c-0.4-0.7-0.1-1.6,0.6-2c0,0,0,0,0,0l17.7-9.4
				c0.7-0.4,1.6-0.1,2,0.6c0.2,0.4,0.3,0.8,0.2,1.2c-0.1,0.4-0.4,0.7-0.7,0.9l-17.7,9.4C28.3,101.6,28.1,101.7,27.8,101.7z M45,89.9
				l-17.6,9.4c-0.4,0.2-0.6,0.8-0.4,1.2l0,0.1c0.2,0.4,0.8,0.6,1.2,0.4c0,0,0,0,0,0l17.7-9.4c0.2-0.1,0.4-0.3,0.4-0.5
				c0.1-0.2,0-0.5-0.1-0.7C46.1,89.9,45.5,89.7,45,89.9C45.1,89.9,45,89.9,45,89.9z"/>
			<path class="st0" d="M41.2,73.6H21.5c-0.7,0-1.2,0.5-1.2,1.2l0,0v0.1c0,0.7,0.5,1.2,1.2,1.2l0,0h19.8c0.7,0,1.2-0.5,1.2-1.2
				c0,0,0,0,0,0l0,0C42.5,74.2,41.9,73.6,41.2,73.6C41.2,73.6,41.2,73.6,41.2,73.6z"/>
			<path class="st0" d="M41.3,76.4H21.5c-0.8,0-1.5-0.6-1.5-1.5c0,0,0,0,0,0v-0.1c0-0.8,0.7-1.5,1.5-1.5h0h19.7
				c0.9,0,1.5,0.7,1.5,1.6c0,0.4-0.1,0.8-0.4,1.1C42.1,76.2,41.7,76.4,41.3,76.4z M21.5,73.9c-0.5,0-0.9,0.4-0.9,0.9v0.1
				c0,0.5,0.4,0.9,0.9,0.9h19.8c0.2,0,0.5-0.1,0.6-0.3c0.2-0.2,0.3-0.4,0.3-0.6c0-0.6-0.4-1-1-1L21.5,73.9z"/>
			<path class="st0" d="M108.5,73.6c-0.7,0-1.3,0.6-1.3,1.3l0,0c0,0.7,0.5,1.2,1.2,1.2c0,0,0,0,0,0H129c0.7,0,1.2-0.5,1.2-1.2v-0.1
				c0-0.7-0.5-1.2-1.2-1.2H108.5z"/>
			<path class="st0" d="M129,76.4h-20.6c-0.4,0-0.8-0.2-1.1-0.4c-0.3-0.3-0.4-0.7-0.4-1.1c0-0.9,0.7-1.5,1.6-1.6H129
				c0.8,0,1.5,0.7,1.5,1.5v0.1C130.5,75.7,129.8,76.4,129,76.4z M108.5,73.9c-0.6,0-1,0.4-1,1c0,0.2,0.1,0.5,0.2,0.6
				c0.2,0.2,0.4,0.3,0.6,0.3H129c0.5,0,0.9-0.4,0.9-0.9l0,0v-0.1c0-0.5-0.4-0.9-0.9-0.9c0,0,0,0,0,0L108.5,73.9z"/>
			<path class="st0" d="M45.8,57.6l-17.3-9.3c-0.6-0.3-1.3-0.1-1.6,0.5v0.1c-0.3,0.6-0.1,1.3,0.5,1.6c0,0,0,0,0,0l17.3,9.3
				c0.6,0.3,1.3,0.1,1.6-0.5c0,0,0,0,0,0l0,0C46.6,58.7,46.4,58,45.8,57.6C45.8,57.6,45.8,57.6,45.8,57.6z"/>
			<path class="st0" d="M45.2,60.2c-0.2,0-0.5-0.1-0.7-0.2l-17.3-9.3c-0.3-0.2-0.6-0.5-0.7-0.9c-0.1-0.4-0.1-0.8,0.1-1.1v-0.1
				c0.4-0.7,1.3-1,2-0.6l17.3,9.3c0.7,0.4,1,1.3,0.6,2C46.2,59.8,45.7,60.2,45.2,60.2z M27.9,48.5c-0.3,0-0.6,0.2-0.8,0.5V49
				c-0.2,0.4-0.1,1,0.4,1.2l17.3,9.3c0.4,0.2,1,0.1,1.2-0.4c0.1-0.2,0.2-0.5,0.1-0.8c-0.1-0.2-0.2-0.4-0.4-0.5l-17.3-9.3
				C28.2,48.5,28.1,48.4,27.9,48.5z"/>
			<path class="st0" d="M103.3,89.9L103.3,89.9c-0.3,0.6-0.1,1.3,0.5,1.6c0,0,0,0,0,0l18.3,9.8c0.6,0.3,1.3,0.1,1.6-0.5c0,0,0,0,0,0
				v-0.1c0.3-0.6,0.1-1.3-0.5-1.6c0,0,0,0,0,0l-18.3-9.8C104.3,89.1,103.6,89.3,103.3,89.9z"/>
			<path class="st0" d="M122.6,101.8c-0.2,0-0.5-0.1-0.7-0.2l-18.3-9.8c-0.7-0.4-1-1.3-0.6-2l0.3,0.1l-0.3-0.2c0.4-0.7,1.3-1,2-0.6
				l18.3,9.8c0.7,0.4,1,1.3,0.6,2v0.1c-0.2,0.3-0.5,0.6-0.9,0.7C122.9,101.8,122.8,101.9,122.6,101.8z M103.3,89.9l0.2,0.2
				c-0.1,0.2-0.1,0.5-0.1,0.7c0.1,0.2,0.2,0.4,0.4,0.5l18.3,9.8c0.2,0.1,0.5,0.1,0.7,0.1c0.2-0.1,0.4-0.2,0.5-0.4v-0.1
				c0.1-0.2,0.1-0.5,0.1-0.7c-0.1-0.2-0.2-0.4-0.4-0.5l-18.2-9.8c-0.4-0.2-1-0.1-1.2,0.4l0,0L103.3,89.9z"/>
			<path class="st0" d="M57.9,45.4L47.3,28.9c-0.4-0.6-1.1-0.7-1.6-0.4l-0.1,0c-0.5,0.4-0.7,1.1-0.4,1.6c0,0,0,0,0,0l10.6,16.5
				c0.4,0.6,1.1,0.7,1.6,0.4c0,0,0,0,0,0l0,0C58,46.8,58.2,46,57.9,45.4C57.9,45.4,57.9,45.4,57.9,45.4z"/>
			<path class="st0" d="M56.8,47.6c-0.5,0-1-0.2-1.2-0.7L45,30.4c-0.4-0.7-0.2-1.6,0.4-2l0.1,0c0.7-0.4,1.6-0.2,2,0.5l10.6,16.5
				c0.4,0.7,0.2,1.6-0.4,2c0,0,0,0,0,0C57.4,47.5,57.1,47.6,56.8,47.6z M46.3,28.6c-0.2,0-0.3,0.1-0.5,0.1l-0.1,0
				c-0.4,0.3-0.5,0.8-0.3,1.2c0,0,0,0,0,0l10.6,16.6c0.3,0.4,0.8,0.5,1.2,0.3c0.2-0.1,0.4-0.3,0.5-0.6c0.1-0.2,0-0.5-0.1-0.7
				L47.1,29C46.9,28.8,46.6,28.6,46.3,28.6L46.3,28.6z"/>
			<path class="st0" d="M92,103.3l11.2,17.5c0.4,0.5,1.1,0.7,1.6,0.4c0,0,0,0,0,0h0.1c0.6-0.4,0.7-1.1,0.4-1.6L94.1,102
				c-0.4-0.6-1.1-0.7-1.6-0.3c0,0,0,0,0,0l0,0C91.9,102,91.7,102.7,92,103.3C92,103.3,92,103.3,92,103.3z"/>
			<path class="st0" d="M104.2,121.7c-0.1,0-0.2,0-0.3,0c-0.4-0.1-0.7-0.3-0.9-0.7l-11.2-17.5c-0.4-0.7-0.2-1.6,0.5-2
				c0.3-0.2,0.8-0.3,1.2-0.2c0.4,0.1,0.7,0.3,0.9,0.6l11.2,17.5c0.2,0.3,0.3,0.7,0.2,1.1c-0.1,0.4-0.3,0.7-0.7,0.9H105
				C104.8,121.6,104.5,121.7,104.2,121.7z M93.1,101.8c-0.2,0-0.4,0.1-0.5,0.2c-0.4,0.2-0.6,0.8-0.3,1.2c0,0,0,0,0,0l11.2,17.5
				c0.1,0.2,0.3,0.3,0.6,0.4c0.2,0,0.5,0,0.7-0.1h0.1c0.2-0.1,0.3-0.3,0.4-0.6c0.1-0.2,0-0.5-0.1-0.7l-11.2-17.5
				c-0.1-0.2-0.3-0.3-0.6-0.4C93.2,101.8,93.2,101.8,93.1,101.8z"/>
			<polyline class="st1" points="83.1,24.4 92.9,122.9 133.1,121.2 142.9,62.9 113,24.4 85.5,24.4 			"/>
			<path class="st0" d="M85.6,25.3h54.5c1.3-0.2,2.7-0.2,4,0c2.9,0.8,2,3.3,1.7,5.4l-1.5,12.4l-4.7,39.2l-4,33.7
				c-0.2,1.8,0,4.5-0.7,6.1c-0.8,1.8-3.1,1.4-4.6,1.4h-27.8c-2.5,0-6.7,1-7.5-2.2c-0.7-3-0.7-6.2-1.1-9.3l-1.9-16.3l-8-67.3
				c-0.2-1.3-0.6-2.9,1.8-3.2c1.1-0.2,0.7-1.9-0.5-1.7c-4,0.6-3.2,4.1-2.8,7l1.6,13.1l5,41.9l4,33.3c0.3,2.7,0.2,6,3.6,6.5
				c4.2,0.6,8.9,0,13.1,0h19.8c3.1,0,6.5,0.4,7.1-3.5c1.4-8.6,2.1-17.4,3.1-26L145,53c1-8.5,2.6-17,3-25.5c0.2-3.8-3-4-5.8-4H85.6
				c-0.5,0-0.9,0.4-0.9,0.9C84.7,24.9,85.1,25.3,85.6,25.3L85.6,25.3z"/>
			<path class="st0" d="M98.6,125.3h33l-0.9-0.9v16.7l0.9-0.9h-33l0.9,0.9v-16.7c0-0.5-0.4-0.9-0.9-0.9c-0.5,0-0.9,0.4-0.9,0.9v16.7
				c0,0.5,0.4,0.9,0.9,0.9h33c0.5,0,0.9-0.4,0.9-0.9v-16.7c0-0.5-0.4-0.9-0.9-0.9h-33c-0.5,0.1-0.9,0.5-0.8,1
				C97.8,124.9,98.1,125.3,98.6,125.3z"/>
			<path class="st0" d="M97.7,141.1c0,3.7-0.2,7.2,4.5,7.3c4.3,0.1,8.6,0,12.9,0s8.6,0.1,12.9,0c4.6-0.1,4.5-3.6,4.5-7.3
				c-0.1-0.5-0.5-0.9-1-0.8c-0.4,0-0.8,0.4-0.8,0.8c0,1.9,0.6,4.9-2,5.5c-0.8,0.1-1.5,0.1-2.3,0h-22.6c-0.8,0.1-1.6,0.1-2.4,0
				c-2.5-1-2-3.4-2-5.5c0-0.5-0.4-0.9-0.9-0.9C98.1,140.2,97.7,140.6,97.7,141.1z"/>
			<path class="st0" d="M115.7,135.1c-3.3,0-6,2.7-6.2,6c0,0.5,0.4,0.9,0.9,0.9H121c0.5,0,0.9-0.4,0.9-0.9
				C121.8,137.7,119,135.1,115.7,135.1c-1.2-0.1-1.2,1.7,0,1.8c2.4,0,4.3,1.9,4.4,4.2l0.9-0.9h-10.6l0.9,0.9c0.1-2.4,2-4.2,4.4-4.2
				C116.9,136.8,116.9,135,115.7,135.1z"/>
			<path class="st0" d="M83.6,32.7h63c0.5-0.1,0.9-0.5,0.8-1c0-0.4-0.4-0.8-0.8-0.8h-63c-0.5,0.1-0.9,0.5-0.8,1
				C82.8,32.3,83.2,32.7,83.6,32.7z"/>
			<path class="st0" d="M93.3,42.5h43.6l-0.9-0.9l-2.6,21.2l0.9-0.9H95.9l0.9,0.9l-2.6-21.2c-0.1-1.1-1.9-1.1-1.8,0L95,62.9
				c0,0.5,0.4,0.9,0.9,0.9h38.3c0.5,0,0.9-0.4,0.9-0.9l2.6-21.2c0-0.5-0.4-0.9-0.9-0.9H93.3c-0.5,0-0.9,0.4-0.9,0.9
				C92.4,42.1,92.8,42.5,93.3,42.5z"/>
			<path class="st0" d="M113.9,92.5c0.7,0.7,1.8,0.7,2.5,0l7.1-7.1c6.2-6.2-2.1-14.6-8.4-8.4c-5.7-5.7-14.1,2.7-8.4,8.4L113.9,92.5z
				"/>
		</g>
		<rect class="st2" width="168" height="168"/>
	</g>
</g>
</svg>
