<svg xmlns="http://www.w3.org/2000/svg" viewBox="0 0 168 168"><defs><style>.cls-1{fill:none;}.cls-2{fill:#5c8f8e;}.cls-3{fill:#fff;}</style></defs><title>water-iconldpi</title><g id="Layer_2" data-name="Layer 2"><g id="Layer_1-2" data-name="Layer 1"><rect class="cls-1" width="168" height="168"/><path class="cls-2" d="M124.37,88.71c-11.17-20.07-22.5-40.06-33.75-60.09a3.66,3.66,0,0,0-6.26,0L54.22,82.3a75.2,75.2,0,0,0-5.36,10.5,34.06,34.06,0,0,0,2.55,28.5c9.53,16.64,30.92,23.43,48.86,18,21.67-6.55,34.16-29.49,24.1-50.6-2-4.21-8.26-.53-6.26,3.66,8.37,17.55-3.72,35.86-21.37,40.4-16.07,4.14-35.57-3.32-41.21-19.82-2.74-8-1.26-16,2.82-23.21,1.22-2.17,2.44-4.35,3.67-6.52L78.36,54.11,90.62,32.28H84.36c11.25,20,22.58,40,33.75,60.09C120.38,96.45,126.64,92.8,124.37,88.71Z"/><polygon class="cls-3" points="81.32 51.28 69.32 62.28 61.32 84.28 54.32 66.28 73.32 47.28 81.32 51.28"/><path class="cls-2" d="M106.15,92.24c-.15-1.09,0,.27,0,.65.07,1,.13,2,.14,2.94a31.6,31.6,0,0,1-1.1,8.93c-2.63,9.25-10.38,12.06-19.4,11-3.08-.37-3,4.46,0,4.83,10.4,1.26,19.83-2.55,23.52-12.83A35.59,35.59,0,0,0,110.81,91c-.44-3.07-5.09-1.76-4.66,1.28Z"/><path class="cls-2" d="M61.28,88.28h0A2.36,2.36,0,0,1,59,86.48L54.83,70.27a21.63,21.63,0,0,0-10-13.36l-3-1.76a3.58,3.58,0,0,1,.69-6.48l1.57-.52A20.32,20.32,0,0,0,56.38,36.82l1.82-4.28a3.57,3.57,0,0,1,3.33-2.2h0a3.56,3.56,0,0,1,3.32,2.2l2.79,6.58a14.4,14.4,0,0,0,8.92,8.11l4.07,1.29a3.42,3.42,0,0,1,.72,6.2L78.9,56.19A23.53,23.53,0,0,0,68.39,69.86l-4.82,16.7A2.37,2.37,0,0,1,61.28,88.28Zm.25-54.77a.44.44,0,0,0-.42.27L59.3,38.06A23.5,23.5,0,0,1,45.12,51.15l-1.57.52a.39.39,0,0,0-.28.35.39.39,0,0,0,.2.4l3,1.77A24.73,24.73,0,0,1,57.9,69.49l3.42,13.43,4-13.94A26.66,26.66,0,0,1,77.27,53.47L79.72,52a.22.22,0,0,0,.12-.25.24.24,0,0,0-.17-.21L75.6,50.25a17.53,17.53,0,0,1-10.87-9.89l-2.8-6.58a.41.41,0,0,0-.4-.27Z"/><path class="cls-2" d="M84.73,102.28h0A1.71,1.71,0,0,1,83,101L80.9,92.6A10.68,10.68,0,0,0,76,86l-1.54-.91a2.36,2.36,0,0,1,.46-4.27l.81-.27a10,10,0,0,0,6-5.56l.94-2.2a2.37,2.37,0,0,1,4.37,0l1.44,3.39a7,7,0,0,0,4.29,3.91l2.1.66a2.27,2.27,0,0,1,.49,4.12l-1.27.76a11.57,11.57,0,0,0-5.19,6.76L86.4,101A1.72,1.72,0,0,1,84.73,102.28ZM76.34,83.15l1,.58a13.27,13.27,0,0,1,6.15,8.21l1.31,5.12,1.56-5.39a14.2,14.2,0,0,1,6.38-8.3l.54-.33L92,82.63A9.62,9.62,0,0,1,86,77.23l-1.19-2.79L84.16,76a12.6,12.6,0,0,1-7.62,7Z"/></g></g></svg>