<?xml version="1.0" encoding="utf-8"?>
<!-- Generator: Adobe Illustrator 23.0.3, SVG Export Plug-In . SVG Version: 6.00 Build 0)  -->
<svg version="1.1" id="Layer_1" xmlns="http://www.w3.org/2000/svg" xmlns:xlink="http://www.w3.org/1999/xlink" x="0px" y="0px"
	 viewBox="0 0 168 168" style="enable-background:new 0 0 168 168;" xml:space="preserve">
<style type="text/css">
	.st0{fill:none;}
	.st1{fill:#5C8F8E;}
	.st2{fill:#F4F2F1;}
</style>
<title>water-iconldpi</title>
<g>
	<g id="Layer_1-2">
		<rect class="st0" width="168" height="168"/>
		<path class="st1" d="M124.4,88.7c-11.2-20.1-22.5-40.1-33.8-60.1c-1-1.7-3.3-2.3-5-1.2c-0.5,0.3-0.9,0.7-1.2,1.2L54.2,82.3
			c-2.1,3.4-3.9,6.9-5.4,10.5c-3.4,9.4-2.4,19.8,2.5,28.5c9.5,16.6,30.9,23.4,48.9,18C121.9,132.8,134.4,109.8,124.4,88.7
			c-2-4.2-8.3-0.5-6.3,3.7c8.4,17.5-3.7,35.9-21.4,40.4c-16.1,4.1-35.6-3.3-41.2-19.8c-2.7-8-1.3-16,2.8-23.2
			c1.2-2.2,2.4-4.3,3.7-6.5l16.3-29.1l12.3-21.8h-6.3c11.2,20,22.6,40,33.8,60.1C120.4,96.4,126.6,92.8,124.4,88.7z"/>
		<polygon class="st2" points="81.3,51.3 69.3,62.3 61.3,84.3 54.3,66.3 73.3,47.3 		"/>
		<path class="st1" d="M106.2,92.2c-0.2-1.1,0,0.3,0,0.7c0.1,1,0.1,2,0.1,2.9c0.1,3-0.3,6-1.1,8.9c-2.6,9.2-10.4,12.1-19.4,11
			c-3.1-0.4-3,4.5,0,4.8c10.4,1.3,19.8-2.6,23.5-12.8c1.8-5.4,2.3-11.1,1.5-16.8C110.4,87.9,105.7,89.2,106.2,92.2L106.2,92.2z"/>
		<path class="st1" d="M61.3,88.3L61.3,88.3c-1.1,0-2-0.7-2.3-1.8l-4.2-16.2c-1.4-5.6-5-10.4-10-13.4l-3-1.8c-1.7-1-2.3-3.2-1.3-4.9
			c0.4-0.7,1.1-1.3,2-1.6l1.6-0.5c5.5-1.8,10-6,12.3-11.3l1.8-4.3c0.6-1.3,1.9-2.2,3.3-2.2l0,0c1.5,0,2.8,0.9,3.3,2.2l2.8,6.6
			c1.6,3.9,4.9,6.8,8.9,8.1l4.1,1.3c1.8,0.6,2.8,2.5,2.2,4.3c-0.3,0.8-0.8,1.5-1.5,1.9l-2.4,1.5c-5.1,3.1-8.9,7.9-10.5,13.7
			l-4.8,16.7C63.3,87.6,62.3,88.3,61.3,88.3z M61.5,33.5c-0.2,0-0.3,0.1-0.4,0.3l-1.8,4.3c-2.6,6.2-7.8,11-14.2,13.1l-1.6,0.5
			c-0.2,0-0.3,0.2-0.3,0.3c0,0.2,0.1,0.3,0.2,0.4l3,1.8c5.7,3.4,9.8,8.9,11.4,15.3l3.4,13.4l4-13.9c1.9-6.5,6.1-12,11.9-15.5
			l2.5-1.5c0.1,0,0.1-0.1,0.1-0.2c0-0.1-0.1-0.2-0.2-0.2l-4.1-1.3c-4.9-1.5-8.9-5.2-10.9-9.9l-2.8-6.6
			C61.9,33.6,61.7,33.5,61.5,33.5z"/>
		<path class="st1" d="M84.7,102.3L84.7,102.3c-0.8,0-1.5-0.5-1.7-1.3l-2.1-8.4c-0.7-2.8-2.5-5.1-4.9-6.6l-1.5-0.9
			c-1.1-0.7-1.5-2.1-0.8-3.2c0.3-0.5,0.7-0.9,1.3-1l0.8-0.3c2.7-0.9,4.9-2.9,6-5.6l0.9-2.2c0.5-1.2,1.9-1.8,3.1-1.3
			c0.6,0.2,1,0.7,1.3,1.3l1.4,3.4c0.8,1.9,2.4,3.3,4.3,3.9l2.1,0.7c1.2,0.4,1.9,1.6,1.5,2.8c-0.2,0.5-0.5,1-1,1.3l-1.3,0.8
			c-2.5,1.5-4.4,3.9-5.2,6.8l-2.5,8.6C86.2,101.8,85.5,102.3,84.7,102.3z M76.3,83.2l1,0.6c3.1,1.8,5.3,4.8,6.2,8.2l1.3,5.1l1.6-5.4
			c1-3.5,3.3-6.4,6.4-8.3l0.5-0.3L92,82.6c-2.7-0.8-4.9-2.8-6-5.4l-1.2-2.8L84.2,76c-1.4,3.3-4.2,5.9-7.6,7L76.3,83.2z"/>
	</g>
</g>
</svg>
